SplineFontDB: 3.0
FontName: MapkeyIcons
FullName: Mapkey Icons
FamilyName: Mapkey Icons
Weight: Book
Copyright: (c) mapshakers 2015 \nLicense: CC0 1.0 Universal\nwww.mapshakers.com\nAuthor: Filip Zavadil \nwww.filipzavadil.com 
Version: 1.0
ItalicAngle: 0
UnderlinePosition: -100
UnderlineWidth: 50
Ascent: 819
Descent: 205
InvalidEm: 0
sfntRevision: 0x00010000
LayerCount: 2
Layer: 0 1 "Back" 1
Layer: 1 1 "Fore" 0
XUID: [1021 901 -259729385 11223]
StyleMap: 0x0000
FSType: 8
OS2Version: 1
OS2_WeightWidthSlopeOnly: 0
OS2_UseTypoMetrics: 0
CreationTime: 1422989929
ModificationTime: 1440936449
PfmFamily: 17
TTFWeight: 400
TTFWidth: 5
LineGap: 92
VLineGap: 0
Panose: 2 0 5 3 0 0 0 0 0 0
OS2TypoAscent: 819
OS2TypoAOffset: 0
OS2TypoDescent: -205
OS2TypoDOffset: 0
OS2TypoLinegap: 92
OS2WinAscent: 682
OS2WinAOffset: 0
OS2WinDescent: 212
OS2WinDOffset: 0
HheadAscent: 682
HheadAOffset: 0
HheadDescent: -212
HheadDOffset: 0
OS2SubXSize: 666
OS2SubYSize: 716
OS2SubXOff: 0
OS2SubYOff: 143
OS2SupXSize: 666
OS2SupYSize: 716
OS2SupXOff: 0
OS2SupYOff: 490
OS2StrikeYSize: 50
OS2StrikeYPos: 264
OS2Vendor: 'PfEd'
OS2CodePages: 00000001.00000000
OS2UnicodeRanges: 00000000.00000000.00000000.00000000
MarkAttachClasses: 1
DEI: 91125
TtTable: prep
PUSHW_1
 511
SCANCTRL
PUSHB_1
 1
SCANTYPE
SVTCA[y-axis]
MPPEM
PUSHB_1
 8
LT
IF
PUSHB_2
 1
 1
INSTCTRL
EIF
PUSHB_2
 70
 6
CALL
IF
POP
PUSHB_1
 16
EIF
MPPEM
PUSHB_1
 20
GT
IF
POP
PUSHB_1
 128
EIF
SCVTCI
PUSHB_1
 20
CALL
EndTTInstrs
TtTable: fpgm
PUSHB_1
 0
FDEF
PUSHB_1
 0
SZP0
MPPEM
PUSHB_1
 42
LT
IF
PUSHB_1
 74
SROUND
EIF
PUSHB_1
 0
SWAP
MIAP[rnd]
RTG
PUSHB_1
 6
CALL
IF
RTDG
EIF
MPPEM
PUSHB_1
 42
LT
IF
RDTG
EIF
DUP
MDRP[rp0,rnd,grey]
PUSHB_1
 1
SZP0
MDAP[no-rnd]
RTG
ENDF
PUSHB_1
 1
FDEF
DUP
MDRP[rp0,min,white]
PUSHB_1
 12
CALL
ENDF
PUSHB_1
 2
FDEF
MPPEM
GT
IF
RCVT
SWAP
EIF
POP
ENDF
PUSHB_1
 3
FDEF
ROUND[Black]
RTG
DUP
PUSHB_1
 64
LT
IF
POP
PUSHB_1
 64
EIF
ENDF
PUSHB_1
 4
FDEF
PUSHB_1
 6
CALL
IF
POP
SWAP
POP
ROFF
IF
MDRP[rp0,min,rnd,black]
ELSE

StartChar: mapshakers
Encoding: 57344 57344 33
Width: 744
VWidth: 828
Flags: W
HStem: -69 49<242.163 494.177> 128 76<390.703 465.312> 215 86<235.438 293.938> 505 61<207.531 485.326>
VStem: 76 92<366 441.062> 510 78<23.3115 84.3906>
LayerCount: 2
Fore
SplineSet
500 74 m 2,0,-1
 451 120 l 2,1,2
 440 129 440 129 425 128.5 c 128,-1,3
 410 128 410 128 401 122 c 2,4,-1
 262 20 l 2,5,6
 251 12 251 12 245 3 c 128,-1,7
 239 -6 239 -6 242 -10 c 0,8,9
 247 -19 247 -19 280 -20 c 2,10,-1
 449 -20 l 2,11,12
 462 -20 462 -20 477 -12 c 128,-1,13
 492 -4 492 -4 498 9 c 2,14,-1
 507 23 l 2,15,16
 510 33 510 33 510 39 c 2,17,-1
 510 49 l 2,18,19
 510 65 510 65 500 74 c 2,0,-1
575 79 m 2,20,21
 588 66 588 66 588 51 c 128,-1,22
 588 36 588 36 582 28 c 2,23,-1
 545 -39 l 2,24,25
 539 -51 539 -51 524 -60 c 128,-1,26
 509 -69 509 -69 494 -69 c 2,27,-1
 203 -69 l 2,28,29
 190 -70 190 -70 176 -60 c 0,30,31
 151 -44 151 -44 149 -22 c 0,32,33
 149 -1 149 -1 163 11 c 2,34,-1
 410 197 l 2,35,36
 419 204 419 204 426 204 c 2,37,-1
 435 204 l 2,38,39
 449 203 449 203 458 194 c 2,40,-1
 575 79 l 2,20,21
174 426 m 2,41,42
 169 418 169 418 168.5 402.5 c 128,-1,43
 168 387 168 387 181 375 c 2,44,-1
 248 311 l 2,45,46
 259 301 259 301 273 301 c 0,47,48
 287 300 287 300 298 308 c 2,49,-1
 471 441 l 2,50,51
 482 448 482 448 486.5 460.5 c 128,-1,52
 491 473 491 473 485.5 483 c 128,-1,53
 480 493 480 493 467 499 c 0,54,55
 453 505 453 505 438 505 c 2,56,-1
 253 505 l 2,57,58
 239 505 239 505 224.5 496.5 c 128,-1,59
 210 488 210 488 203 476 c 2,60,-1
 174 426 l 2,41,42
89 359 m 2,61,62
 76 372 76 372 76.5 387.5 c 128,-1,63
 77 403 77 403 82 412 c 2,64,-1
 152 536 l 2,65,66
 158 548 158 548 173 557 c 128,-1,67
 188 566 188 566 203 566 c 2,68,-1
 494 566 l 2,69,70
 508 566 508 566 523 556 c 0,71,72
 537 549 537 549 545 536 c 2,73,-1
 572 488 l 2,74,75
 580 474 580 474 577 461 c 128,-1,76
 574 448 574 448 563 439 c 2,77,-1
 276 221 l 2,78,79
 267 214 267 214 260 215 c 2,80,-1
 251 215 l 2,81,82
 237 217 237 217 226 226 c 2,83,-1
 89 359 l 2,61,62
181 192 m 2,84,85
 190 182 190 182 189 169 c 128,-1,86
 188 156 188 156 178 147 c 2,87,-1
 113 98 l 2,88,89
 102 90 102 90 90 92 c 128,-1,90
 78 94 78 94 70 108 c 2,91,-1
 6 220 l 2,92,93
 0 232 0 232 0 249 c 0,94,95
 -2 266 -2 266 6 278 c 2,96,-1
 21 304 l 2,97,98
 27 316 27 316 39.5 317.5 c 128,-1,99
 52 319 52 319 62 309 c 2,100,-1
 181 192 l 2,84,85
690 220 m 2,101,-1
 644 136 l 2,102,103
 637 124 637 124 624 122 c 0,104,105
 613 118 613 118 604 128 c 2,106,-1
 503 228 l 2,107,108
 494 237 494 237 495 250 c 128,-1,109
 496 263 496 263 507 272 c 2,110,-1
 611 352 l 2,111,112
 622 358 622 358 636 356 c 0,113,114
 648 354 648 354 654 342 c 2,115,-1
 690 278 l 2,116,117
 696 266 696 266 696 249 c 128,-1,118
 696 232 696 232 690 220 c 2,101,-1
EndSplineSet
Validated: 1
EndChar

StartChar: mapkey
Encoding: 57345 57345 34
Width: 707
VWidth: 828
Flags: W
HStem: -9 65<227.622 478.99> 95 90<283.157 320.844 326.455 424.613> 346 58<398.953 513.432>
VStem: 0 76<291.112 410.551> 371 2<629.801 644> 630 76<291.526 411.416>
LayerCount: 2
Fore
SplineSet
162 101 m 5,0,1
 232 56 232 56 355 56 c 4,2,3
 479 55 479 55 545 103 c 5,4,5
 542 44 542 44 489.5 17.5 c 132,-1,6
 437 -9 437 -9 352.5 -9 c 132,-1,7
 268 -9 268 -9 217 18 c 132,-1,8
 166 45 166 45 162 101 c 5,0,1
668 449 m 4,9,10
 707 409 707 409 706.5 355.5 c 132,-1,11
 706 302 706 302 675 263 c 4,12,13
 645 225 645 225 598 213 c 5,14,15
 582 191 582 191 558 175 c 5,16,17
 562 167 562 167 565 159 c 5,18,19
 543 128 543 128 482 111.5 c 132,-1,20
 421 95 421 95 351 95 c 132,-1,21
 281 95 281 95 222 111 c 4,22,23
 164 127 164 127 141 154 c 5,24,25
 145 164 145 164 148 175 c 5,26,27
 125 193 125 193 108 213 c 5,28,29
 60 224 60 224 30 263 c 132,-1,30
 0 302 0 302 0 355.5 c 132,-1,31
 0 409 0 409 38.5 449.5 c 132,-1,32
 77 490 77 490 133 493 c 5,33,34
 209 562 209 562 322 572 c 5,35,36
 317 576 317 576 311 587 c 6,37,-1
 304 606 l 5,38,39
 312 602 312 602 326 597.5 c 132,-1,40
 340 593 340 593 349 594 c 4,41,42
 356 596 356 596 371 632 c 5,43,-1
 373 644 l 5,44,45
 375 590 375 590 385 586 c 4,46,47
 391 582 391 582 410.5 593.5 c 132,-1,48
 430 605 430 605 443 618 c 6,49,-1
 455 630 l 5,50,51
 439 579 439 579 425 567 c 5,52,-1
 423 566 l 5,53,54
 508 549 508 549 571 493 c 5,55,56
 627 489 627 489 668 449 c 4,9,10
329 266.5 m 132,-1,58
 321 272 321 272 311 269.5 c 132,-1,59
 301 267 301 267 295 258 c 6,60,-1
 274 219 l 6,61,62
 270 213 270 213 270 205 c 132,-1,63
 270 197 270 197 283 186 c 4,64,65
 288 183 288 183 298 184 c 132,-1,66
 308 185 308 185 315 197 c 6,67,-1
 337 236 l 6,68,69
 341 244 341 244 339 252.5 c 132,-1,57
 337 261 337 261 329 266.5 c 132,-1,58
427 219 m 6,70,-1
 407 258 l 6,71,72
 403 266 403 266 393 269 c 132,-1,73
 383 272 383 272 375 266.5 c 132,-1,74
 367 261 367 261 364 252 c 4,75,76
 360 243 360 243 365 236 c 6,77,-1
 387 197 l 6,78,79
 394 185 394 185 404 185 c 132,-1,80
 414 185 414 185 420.5 189 c 132,-1,81
 427 193 427 193 429 202 c 132,-1,82
 431 211 431 211 427 219 c 6,70,-1
605.5 288.5 m 132,-1,84
 630 316 630 316 630 353.5 c 132,-1,85
 630 391 630 391 603 417.5 c 132,-1,86
 576 444 576 444 538 444 c 4,87,88
 524 444 524 444 513 440 c 5,89,90
 480 480 480 480 433.5 480 c 132,-1,91
 387 480 387 480 353 437 c 5,92,93
 318 480 318 480 272.5 480 c 132,-1,94
 227 480 227 480 193 441 c 5,95,96
 182 444 182 444 169 444 c 4,97,98
 132 444 132 444 104 417 c 132,-1,99
 76 390 76 390 76 353 c 132,-1,100
 76 316 76 316 100 289 c 4,101,102
 125 262 125 262 159 259 c 5,103,104
 166 237 166 237 178 218 c 5,105,106
 210 252 210 252 255.5 271 c 132,-1,107
 301 290 301 290 353 290 c 132,-1,108
 405 290 405 290 451 271 c 132,-1,109
 497 252 497 252 527 219 c 5,110,111
 537 236 537 236 545 259 c 5,112,83
 581 261 581 261 605.5 288.5 c 132,-1,84
537 311 m 5,113,114
 496 346 496 346 443 346 c 4,115,116
 416 346 416 346 385 336 c 6,117,-1
 373 331 l 5,118,119
 373 341 373 341 382 357 c 4,120,121
 391 374 391 374 400 383 c 4,122,123
 419 404 419 404 455 404 c 4,124,125
 484 404 484 404 501.5 392 c 132,-1,126
 519 380 519 380 528 360.5 c 132,-1,127
 537 341 537 341 537 320 c 6,128,-1
 537 311 l 5,113,114
186.5 366 m 132,-1,130
 191 378 191 378 211 391.5 c 132,-1,131
 231 405 231 405 252 405 c 4,132,133
 295 405 295 405 313 384 c 132,-1,134
 331 363 331 363 339 335 c 5,135,136
 302 348 302 348 282.5 347 c 132,-1,137
 263 346 263 346 254 344 c 4,138,139
 216 340 216 340 184 319 c 5,140,-1
 178 312 l 6,141,142
 179 314 179 314 177 320 c 4,143,144
 175 328 175 328 178.5 341 c 132,-1,129
 182 354 182 354 186.5 366 c 132,-1,130
178 312 m 1030,145,-1
EndSplineSet
Validated: 1
EndChar

StartChar: bar
Encoding: 57347 57347 35
Width: 568
VWidth: 828
Flags: W
HStem: 398 46<433.705 506.629> 452 92<160.782 245.529> 604 45<404.449 452 452 504.683>
VStem: 206 51<61.082 268.005> 528 40<468.752 577.647>
LayerCount: 2
Fore
SplineSet
208.5 452 m 128,-1,1
 186 452 186 452 169 438 c 128,-1,2
 152 424 152 424 152 404 c 128,-1,3
 152 384 152 384 169 370.5 c 128,-1,4
 186 357 186 357 208.5 357 c 128,-1,5
 231 357 231 357 246 370.5 c 128,-1,6
 261 384 261 384 261 404 c 128,-1,7
 261 424 261 424 246 438 c 128,-1,0
 231 452 231 452 208.5 452 c 128,-1,1
0 518 m 0,8,9
 0 544 0 544 37 544 c 2,10,-1
 425 544 l 2,11,12
 463 544 463 544 464 518 c 0,13,14
 464 504 464 504 450 487 c 2,15,-1
 304 309 l 2,16,17
 284 286 284 286 270.5 245.5 c 128,-1,18
 257 205 257 205 257 175 c 2,19,-1
 257 129 l 2,20,21
 257 97 257 97 276.5 65 c 128,-1,22
 296 33 296 33 325 22 c 128,-1,23
 354 11 354 11 354 2 c 128,-1,24
 354 -7 354 -7 324 -7 c 2,25,-1
 140 -7 l 2,26,27
 109 -7 109 -7 108.5 2.5 c 128,-1,28
 108 12 108 12 142 23 c 1,29,30
 169 36 169 36 188 67 c 0,31,32
 208 99 208 99 206 129 c 2,33,-1
 206 175 l 2,34,35
 206 207 206 207 193 246 c 128,-1,36
 180 285 180 285 160 309 c 2,37,-1
 14 487 l 2,38,39
 -1 504 -1 504 0 518 c 0,8,9
369 608 m 0,40,41
 404 648 404 648 451 648 c 0,42,43
 452 648 452 648 452 649 c 0,44,45
 498 650 498 650 532 615.5 c 128,-1,46
 566 581 566 581 568 530 c 0,47,48
 568 526 568 526 568 524 c 0,49,50
 568 477 568 477 536.5 437.5 c 128,-1,51
 505 398 505 398 455 398 c 0,52,53
 440 398 440 398 433.5 405.5 c 128,-1,54
 427 413 427 413 428 422.5 c 128,-1,55
 429 432 429 432 434.5 438.5 c 128,-1,56
 440 445 440 445 446 444.5 c 128,-1,57
 452 444 452 444 455 444 c 0,58,59
 487 444 487 444 508 468 c 128,-1,60
 529 492 529 492 528 523 c 2,61,-1
 528 527 l 2,62,63
 526 561 526 561 504 582.5 c 128,-1,64
 482 604 482 604 456 604 c 0,65,66
 453 603 453 603 450 603 c 0,67,68
 420 601 420 601 399 577 c 0,69,70
 394 571 394 571 386 570.5 c 128,-1,71
 378 570 378 570 371 575.5 c 128,-1,72
 364 581 364 581 364 591 c 128,-1,73
 364 601 364 601 369 608 c 0,40,41
EndSplineSet
Validated: 1
EndChar

StartChar: traffic_signal
Encoding: 57348 57348 36
Width: 586
VWidth: 828
Flags: W
HStem: 1 39<240.956 344.43> 201 37<241.688 293 293 342.477> 397 37<242.672 342.477> 593 50<237.447 347.022>
VStem: 0 128<169 208 360.875 399 552.875 592> 153 61<64.7522 177.279 261.721 372.495 457.69 568.763> 372 58<63.6906 176.763 261.721 372.763 456.721 568.763> 457 128<169 208 360.875 399 552.875 592>
LayerCount: 2
Fore
SplineSet
292 201 m 128,-1,1
 259 201 259 201 236.5 178 c 128,-1,2
 214 155 214 155 214 121 c 0,3,4
 215 88 215 88 236 64 c 0,5,6
 258 40 258 40 292 40 c 2,7,-1
 293 40 l 2,8,9
 325 40 325 40 349 63 c 0,10,11
 371 85 371 85 371.5 119.5 c 128,-1,12
 372 154 372 154 348.5 177.5 c 128,-1,0
 325 201 325 201 292 201 c 128,-1,1
457 208 m 1,13,-1
 573 208 l 2,14,15
 584 208 584 208 585 201 c 128,-1,16
 586 194 586 194 580 186 c 2,17,-1
 457 50 l 1,18,-1
 457 208 l 1,13,-1
13 208 m 2,19,-1
 128 208 l 1,20,-1
 128 50 l 1,21,-1
 6 186 l 2,22,23
 -1 194 -1 194 0.5 201 c 128,-1,24
 2 208 2 208 13 208 c 2,19,-1
292 397 m 128,-1,26
 259 397 259 397 236 372.5 c 128,-1,27
 213 348 213 348 214 317 c 0,28,29
 215 284 215 284 236 261 c 0,30,31
 258 239 258 239 292 238 c 0,32,33
 293 238 293 238 293 237 c 1,34,35
 325 237 325 237 349 261 c 0,36,37
 371 284 371 284 371.5 317 c 128,-1,38
 372 350 372 350 348.5 373.5 c 128,-1,25
 325 397 325 397 292 397 c 128,-1,26
457 399 m 1,39,-1
 573 399 l 2,40,41
 584 399 584 399 585 392 c 0,42,43
 587 387 587 387 580 378 c 2,44,-1
 457 241 l 1,45,-1
 457 399 l 1,39,-1
13 399 m 2,46,-1
 128 399 l 1,47,-1
 128 241 l 1,48,-1
 6 378 l 2,49,50
 -2 387 -2 387 0 393 c 128,-1,51
 2 399 2 399 13 399 c 2,46,-1
457 592 m 1,52,-1
 573 592 l 2,53,54
 584 592 584 592 585 584.5 c 128,-1,55
 586 577 586 577 580 570 c 2,56,-1
 457 433 l 1,57,-1
 457 592 l 1,52,-1
13 592 m 2,58,-1
 128 592 l 1,59,-1
 128 433 l 1,60,-1
 6 570 l 2,61,62
 -2 578 -2 578 0 585 c 128,-1,63
 2 592 2 592 13 592 c 2,58,-1
292 593 m 128,-1,65
 259 593 259 593 236 569.5 c 128,-1,66
 213 546 213 546 214 512 c 0,67,68
 215 479 215 479 237 457 c 128,-1,69
 259 435 259 435 292 434 c 128,-1,70
 325 433 325 433 348.5 456 c 128,-1,71
 372 479 372 479 372 512.5 c 128,-1,72
 372 546 372 546 348.5 569.5 c 128,-1,64
 325 593 325 593 292 593 c 128,-1,65
211 643 m 2,73,-1
 375 643 l 2,74,75
 398 643 398 643 414.5 626.5 c 128,-1,76
 431 610 431 610 430 584 c 2,77,-1
 430 60 l 2,78,79
 430 37 430 37 413.5 19.5 c 128,-1,80
 397 2 397 2 375 1 c 2,81,-1
 211 1 l 2,82,83
 187 1 187 1 170 18.5 c 128,-1,84
 153 36 153 36 153 60 c 2,85,-1
 153 584 l 2,86,87
 153 608 153 608 170 625.5 c 128,-1,88
 187 643 187 643 211 643 c 2,73,-1
EndSplineSet
Validated: 1
EndChar

StartChar: playground_alt
Encoding: 57349 57349 37
Width: 686
VWidth: 828
Flags: W
HStem: -17 79<235.482 464.793> 356 34<282.438 336> 486 176<262.727 391.501>
VStem: 0 248<301.232 443.735>
LayerCount: 2
Fore
SplineSet
398 469 m 1,0,1
 502 455 502 455 592 401 c 1,2,3
 560 496 560 496 474 547 c 1,4,5
 432 526 432 526 388 482 c 1,6,7
 394 476 394 476 398 469 c 1,0,1
342 62 m 0,8,9
 377 62 377 62 425.5 70.5 c 128,-1,10
 474 79 474 79 492 101 c 1,11,-1
 336 356 l 2,12,13
 334 356 334 356 322 355 c 2,14,-1
 310 353 l 2,15,16
 296 353 296 353 282 356 c 1,17,18
 244 315 244 315 212 253 c 0,19,20
 180 190 180 190 166 131 c 1,21,22
 240 62 240 62 342 62 c 0,8,9
220 553 m 1,23,24
 168 525 168 525 132 477 c 1,25,26
 156 482 156 482 180 482 c 0,27,28
 202 482 202 482 226 478 c 1,29,30
 236 490 236 490 248 500 c 1,31,-1
 220 553 l 1,23,24
311 486 m 128,-1,33
 284 486 284 486 266 471.5 c 128,-1,34
 248 457 248 457 248 437.5 c 128,-1,35
 248 418 248 418 266 404 c 128,-1,36
 284 390 284 390 311 390 c 128,-1,37
 338 390 338 390 358 404 c 128,-1,38
 378 418 378 418 378 437.5 c 128,-1,39
 378 457 378 457 358 471.5 c 128,-1,32
 338 486 338 486 311 486 c 128,-1,33
343 662 m 128,-1,41
 436 662 436 662 515 616.5 c 128,-1,42
 594 571 594 571 640 493 c 128,-1,43
 686 415 686 415 686 322.5 c 128,-1,44
 686 230 686 230 640 152.5 c 128,-1,45
 594 75 594 75 515 29 c 128,-1,46
 436 -17 436 -17 343 -17 c 128,-1,47
 250 -17 250 -17 171 29 c 128,-1,48
 92 75 92 75 46 152.5 c 128,-1,49
 0 230 0 230 0 322.5 c 128,-1,50
 0 415 0 415 46 493 c 128,-1,51
 92 571 92 571 171 616.5 c 128,-1,40
 250 662 250 662 343 662 c 128,-1,41
EndSplineSet
Validated: 1
EndChar

StartChar: dentist
Encoding: 57350 57350 38
Width: 492
VWidth: 828
Flags: W
VStem: 72 108<136.338 308.68> 317 128<112.809 311.107>
LayerCount: 2
Fore
SplineSet
346 441 m 1,0,-1
 409 475 l 1,1,-1
 346 510 l 1,2,-1
 312 573 l 1,3,-1
 278 510 l 1,4,-1
 215 475 l 1,5,-1
 278 441 l 1,6,-1
 312 378 l 1,7,-1
 346 441 l 1,0,-1
69 228 m 2,8,-1
 72 292 l 2,9,10
 72 370 72 370 38 416 c 0,11,12
 18 443 18 443 9 463 c 128,-1,13
 0 483 0 483 0 509 c 0,14,15
 0 534 0 534 13 562 c 0,16,17
 38 621 38 621 99 622 c 0,18,19
 115 622 115 622 147.5 609.5 c 128,-1,20
 180 597 180 597 191 593.5 c 128,-1,21
 202 590 202 590 214.5 590 c 128,-1,22
 227 590 227 590 245 595 c 128,-1,23
 263 600 263 600 299 617 c 128,-1,24
 335 634 335 634 347.5 635 c 128,-1,25
 360 636 360 636 379 636 c 128,-1,26
 398 636 398 636 430.5 624 c 128,-1,27
 463 612 463 612 477.5 584 c 128,-1,28
 492 556 492 556 492 521 c 128,-1,29
 492 486 492 486 465 437 c 0,30,31
 436 386 436 386 436 333 c 2,32,-1
 436 326 l 2,33,34
 437 304 437 304 441 276 c 128,-1,35
 445 248 445 248 445 229 c 0,36,37
 445 134 445 134 380 22 c 0,38,39
 367 2 367 2 348.5 -18 c 128,-1,40
 330 -38 330 -38 326 -43 c 0,41,42
 320 -49 320 -49 305 -52 c 128,-1,43
 290 -55 290 -55 284 -51.5 c 128,-1,44
 278 -48 278 -48 283 -28.5 c 128,-1,45
 288 -9 288 -9 299 66.5 c 128,-1,46
 310 142 310 142 313.5 164.5 c 128,-1,47
 317 187 317 187 317 219.5 c 128,-1,48
 317 252 317 252 308 292 c 0,49,50
 304 309 304 309 281 319 c 0,51,52
 254 329 254 329 227 322 c 0,53,54
 178 309 178 309 180 236 c 0,55,56
 180 219 180 219 183 203.5 c 128,-1,57
 186 188 186 188 209.5 112 c 128,-1,58
 233 36 233 36 234 24 c 0,59,60
 236 6 236 6 232.5 -13.5 c 128,-1,61
 229 -33 229 -33 218 -38 c 0,62,63
 216 -40 216 -40 207 -40 c 0,64,65
 197 -40 197 -40 170 -8.5 c 128,-1,66
 143 23 143 23 123 50 c 1,67,68
 101 94 101 94 91 117 c 128,-1,69
 81 140 81 140 74.5 172 c 128,-1,70
 68 204 68 204 69 228 c 2,8,-1
EndSplineSet
Validated: 1
EndChar

StartChar: fishing
Encoding: 57351 57351 39
Width: 701
VWidth: 828
Flags: W
HStem: -4 70<104.721 231.023> 428 57<386 492.017>
VStem: 0 70<101.409 225.423> 134 69<323.499 473.443> 326 103<488.823 551.431>
LayerCount: 2
Fore
SplineSet
545 485 m 1,0,1
 481 429 481 429 392 428 c 0,2,3
 380 428 380 428 373 429 c 2,4,-1
 358 432 l 2,5,6
 360 431 360 431 362.5 429.5 c 128,-1,7
 365 428 365 428 371.5 424 c 128,-1,8
 378 420 378 420 385.5 417 c 128,-1,9
 393 414 393 414 404 410 c 0,10,11
 422 402 422 402 444 401 c 0,12,13
 488 402 488 402 518 436 c 0,14,15
 537 458 537 458 545 482 c 0,16,17
 545 484 545 484 545 485 c 1,0,1
465 556 m 0,18,19
 429 549 429 549 429 522 c 0,20,21
 429 500 429 500 449 490 c 0,22,23
 457 486 457 486 463 485 c 0,24,25
 484 485 484 485 495 503 c 0,26,27
 499 510 499 510 501 518 c 0,28,29
 501 540 501 540 483 551 c 0,30,31
 473 556 473 556 465 556 c 0,18,19
303 386 m 0,32,33
 307 425 307 425 326 445 c 1,34,35
 326 494 326 494 337 542.5 c 128,-1,36
 348 591 348 591 365 621 c 1,37,38
 373 608 373 608 384 599 c 128,-1,39
 395 590 395 590 403 586 c 2,40,-1
 411 582 l 1,41,42
 428 618 428 618 427 644 c 1,43,44
 460 629 460 629 502 598 c 128,-1,45
 544 567 544 567 575 528 c 1,46,47
 606 520 606 520 628 500 c 0,48,49
 696 441 696 441 700 279 c 0,50,51
 700 270 700 270 700 262 c 2,52,-1
 700 251 l 2,53,54
 700 252 700 252 695 258 c 0,55,56
 691 264 691 264 687 267 c 0,57,58
 672 284 672 284 649 284 c 0,59,60
 642 284 642 284 636 282 c 1,61,62
 629 207 629 207 601 162 c 1,63,64
 635 158 635 158 661 136.5 c 128,-1,65
 687 115 687 115 697 81 c 0,66,67
 702 65 702 65 701 54 c 2,68,-1
 701 42 l 1,69,70
 664 72 664 72 623 71 c 0,71,72
 602 71 602 71 580 64 c 0,73,74
 548 55 548 55 524.5 32 c 128,-1,75
 501 9 501 9 491 -22 c 1,76,77
 469 10 469 10 468.5 53.5 c 128,-1,78
 468 97 468 97 501 129 c 1,79,80
 453 150 453 150 407.5 215.5 c 128,-1,81
 362 281 362 281 338 359 c 1,82,83
 327 352 327 352 325 325 c 2,84,-1
 324 316 l 1,85,86
 303 359 303 359 303 386 c 0,32,33
303 256 m 1,87,-1
 362 162 l 1,88,-1
 336 148 l 1,89,90
 330 84 330 84 282 40 c 128,-1,91
 234 -4 234 -4 166 -4 c 128,-1,92
 98 -4 98 -4 49 45 c 128,-1,93
 0 94 0 94 0 166 c 128,-1,94
 0 238 0 238 48 280 c 0,95,96
 68 297 68 297 101 316.5 c 128,-1,97
 134 336 134 336 134 342 c 2,98,-1
 134 461 l 1,99,100
 111 470 111 470 95.5 491 c 128,-1,101
 80 512 80 512 80 543.5 c 128,-1,102
 80 575 80 575 105 600.5 c 128,-1,103
 130 626 130 626 166 626 c 128,-1,104
 202 626 202 626 227.5 600.5 c 128,-1,105
 253 575 253 575 253 544 c 0,106,107
 253 484 253 484 203 462 c 1,108,-1
 203 342 l 2,109,110
 202 307 202 307 179 287 c 128,-1,111
 156 267 156 267 128 251.5 c 128,-1,112
 100 236 100 236 85 218 c 128,-1,113
 70 200 70 200 70 161 c 128,-1,114
 70 122 70 122 98.5 94 c 128,-1,115
 127 66 127 66 166 66 c 128,-1,116
 205 66 205 66 233 90 c 128,-1,117
 261 114 261 114 267 149 c 1,118,-1
 243 164 l 1,119,-1
 303 256 l 1,87,-1
EndSplineSet
Validated: 1
EndChar

StartChar: wind_generator
Encoding: 57352 57352 40
Width: 560
VWidth: 828
Flags: W
HStem: 248 46<433.688 539.364> 316 64<221.282 266.718>
VStem: 204 57<197.285 268.462>
LayerCount: 2
Fore
SplineSet
248 298 m 2,0,1
 253 300 253 300 261 302 c 1,2,-1
 284 -34 l 1,3,-1
 188 -34 l 1,4,-1
 204 246 l 1,5,6
 228 269 228 269 240 285 c 2,7,-1
 248 298 l 2,0,1
298 354 m 1,8,9
 315 353 315 353 368.5 337.5 c 128,-1,10
 422 322 422 322 491 294 c 128,-1,11
 560 266 560 266 560 254 c 0,12,13
 560 248 560 248 541 247.5 c 128,-1,14
 522 247 522 247 463 257 c 128,-1,15
 404 267 404 267 348 283 c 128,-1,16
 292 299 292 299 278 309 c 1,17,18
 298 325 298 325 298 348 c 2,19,-1
 298 354 l 1,8,9
4 127 m 0,20,21
 0 126 0 126 0 130 c 0,22,23
 0 143 0 143 46 197.5 c 128,-1,24
 92 252 92 252 135 290 c 128,-1,25
 178 328 178 328 192 336 c 1,26,27
 198 310 198 310 224 300 c 1,28,29
 214 287 214 287 186 259 c 0,30,31
 134 211 134 211 76 169 c 128,-1,32
 18 127 18 127 4 127 c 0,20,21
202 382 m 1,33,34
 193 395 193 395 177.5 449 c 128,-1,35
 162 503 162 503 152 560.5 c 128,-1,36
 142 618 142 618 142 635 c 128,-1,37
 142 652 142 652 146 654 c 0,38,39
 148 654 148 654 148 655 c 1,40,41
 159 655 159 655 187.5 587.5 c 128,-1,42
 216 520 216 520 232 468.5 c 128,-1,43
 248 417 248 417 250 400 c 1,44,45
 247 401 247 401 244.5 400.5 c 128,-1,46
 242 400 242 400 240 400 c 0,47,48
 216 399 216 399 202 382 c 1,33,34
244 380 m 128,-1,50
 258 380 258 380 267 370.5 c 128,-1,51
 276 361 276 361 277 348 c 128,-1,52
 278 335 278 335 268 325.5 c 128,-1,53
 258 316 258 316 244 316 c 128,-1,54
 230 316 230 316 221 325.5 c 128,-1,55
 212 335 212 335 212 348 c 128,-1,56
 212 361 212 361 221 370.5 c 128,-1,49
 230 380 230 380 244 380 c 128,-1,50
EndSplineSet
Validated: 1
EndChar

StartChar: crucifix
Encoding: 57353 57353 41
Width: 452
VWidth: 828
Flags: W
HStem: 383 98<14.439 178 274 437.561>
VStem: 178 96<-26.561 383 481 650.076>
LayerCount: 2
Fore
SplineSet
452 431.5 m 128,-1,1
 452 411 452 411 438 397 c 128,-1,2
 424 383 424 383 404 383 c 2,3,-1
 274 383 l 1,4,-1
 274 7 l 2,5,6
 274 -14 274 -14 260 -27.5 c 128,-1,7
 246 -41 246 -41 226 -41 c 128,-1,8
 206 -41 206 -41 192 -27 c 128,-1,9
 178 -13 178 -13 178 7 c 2,10,-1
 178 383 l 1,11,-1
 48 383 l 2,12,13
 27 383 27 383 13.5 397 c 128,-1,14
 0 411 0 411 0 431.5 c 128,-1,15
 0 452 0 452 14 466.5 c 128,-1,16
 28 481 28 481 48 481 c 2,17,-1
 178 481 l 1,18,-1
 178 616 l 2,19,20
 178 637 178 637 192 650.5 c 128,-1,21
 206 664 206 664 226 664 c 128,-1,22
 246 664 246 664 260 649.5 c 128,-1,23
 274 635 274 635 274 616 c 2,24,-1
 274 481 l 1,25,-1
 404 481 l 2,26,27
 425 481 425 481 438.5 466.5 c 128,-1,0
 452 452 452 452 452 431.5 c 128,-1,1
EndSplineSet
Validated: 1
EndChar

StartChar: cave_entrance
Encoding: 57354 57354 42
Width: 771
VWidth: 828
Flags: W
HStem: 0 316<571.781 673.802> 253 271<337.654 442.534>
VStem: 0 231<33.1257 184.962>
LayerCount: 2
Fore
SplineSet
771 21 m 2,0,1
 772 12 772 12 754.5 6 c 128,-1,2
 737 0 737 0 713 0 c 2,3,-1
 544 0 l 2,4,5
 521 0 521 0 505.5 8 c 128,-1,6
 490 16 490 16 490 29 c 1,7,8
 506 62 506 62 507 107 c 0,9,10
 507 167 507 167 466.5 210 c 128,-1,11
 426 253 426 253 368.5 253 c 128,-1,12
 311 253 311 253 271 209.5 c 128,-1,13
 231 166 231 166 231 107 c 0,14,15
 231 68 231 68 249 32 c 1,16,17
 250 18 250 18 235 9 c 128,-1,18
 220 0 220 0 195 0 c 2,19,-1
 56 0 l 2,20,21
 31 0 31 0 16.5 12.5 c 128,-1,22
 2 25 2 25 0 50 c 0,23,24
 0 54 0 54 0 60 c 0,25,26
 0 146 0 146 54 268 c 0,27,28
 86 343 86 343 140 377 c 0,29,30
 177 400 177 400 217 400 c 0,31,32
 235 400 235 400 256 395 c 1,33,34
 276 460 276 460 329 496 c 0,35,36
 369 524 369 524 410.5 524 c 128,-1,37
 452 524 452 524 492 488 c 0,38,39
 517 466 517 466 538 418.5 c 128,-1,40
 559 371 559 371 571 308 c 1,41,42
 596 316 596 316 621 316 c 0,43,44
 647 316 647 316 670 297 c 0,45,46
 711 262 711 262 733 204 c 0,47,48
 756 147 756 147 763 105 c 2,49,-1
 771 21 l 2,0,1
EndSplineSet
Validated: 1
EndChar

StartChar: castle_defensive
Encoding: 57355 57355 43
Width: 759
VWidth: 828
Flags: W
HStem: 2 100<165 250> 235 63<529.469 586.174> 248 70<176.437 241.313> 465 95<176.346 231.851>
VStem: 0 56<561.992 632.951> 47 118<102.248 241.65 318.268 457.663> 113 61<561.834 632.862> 232 61<561.861 632.842> 250 108<373.032 456.547> 349 56<561.385 632.842> 468 61<299.54 371.862> 587 59<301 364.781> 650 109<8.70398 167.916> 704 55<299.439 364.781>
LayerCount: 2
Fore
SplineSet
250 340 m 2,0,-1
 250 401 l 2,1,2
 250 429 250 429 237 450 c 0,3,4
 234 455 234 455 226.5 460 c 128,-1,5
 219 465 219 465 209 465 c 0,6,7
 186 466 186 466 178 446 c 0,8,9
 167 425 167 425 165 401 c 2,10,-1
 165 340 l 2,11,12
 165 331 165 331 173.5 324.5 c 128,-1,13
 182 318 182 318 191 318 c 2,14,-1
 225 318 l 2,15,16
 235 318 235 318 242.5 324.5 c 128,-1,17
 250 331 250 331 250 340 c 2,0,-1
250 124 m 2,18,-1
 250 186 l 2,19,20
 250 214 250 214 237 233 c 0,21,22
 234 238 234 238 226.5 243 c 128,-1,23
 219 248 219 248 209 248 c 0,24,25
 186 248 186 248 178 229 c 0,26,27
 167 208 167 208 165 186 c 2,28,-1
 165 124 l 2,29,30
 165 114 165 114 173.5 108 c 128,-1,31
 182 102 182 102 191 102 c 2,32,-1
 225 102 l 2,33,34
 235 102 235 102 242.5 108.5 c 128,-1,35
 250 115 250 115 250 124 c 2,18,-1
371 372 m 2,36,-1
 387 372 l 2,37,38
 397 373 397 373 404 365 c 0,39,40
 412 358 412 358 412 349 c 2,41,-1
 412 323 l 2,42,43
 412 315 412 315 422 307 c 128,-1,44
 432 299 432 299 441 299 c 128,-1,45
 450 299 450 299 459 307 c 128,-1,46
 468 315 468 315 468 323 c 2,47,-1
 468 349 l 2,48,49
 468 359 468 359 476 365.5 c 128,-1,50
 484 372 484 372 493 372 c 2,51,-1
 504 372 l 2,52,53
 514 372 514 372 521.5 365 c 128,-1,54
 529 358 529 358 529 349 c 2,55,-1
 529 322 l 2,56,57
 529 313 529 313 539 305.5 c 128,-1,58
 549 298 549 298 558 298 c 128,-1,59
 567 298 567 298 577 305.5 c 128,-1,60
 587 313 587 313 587 322 c 2,61,-1
 587 349 l 2,62,63
 587 359 587 359 594 365.5 c 128,-1,64
 601 372 601 372 610 372 c 2,65,-1
 623 372 l 2,66,67
 634 372 634 372 640 365 c 128,-1,68
 646 358 646 358 646 349 c 2,69,-1
 646 323 l 2,70,71
 646 315 646 315 657.5 307 c 128,-1,72
 669 299 669 299 677.5 299 c 128,-1,73
 686 299 686 299 695 307 c 128,-1,74
 704 315 704 315 704 323 c 2,75,-1
 704 349 l 2,76,77
 704 359 704 359 711 365.5 c 128,-1,78
 718 372 718 372 727 372 c 2,79,-1
 736 372 l 2,80,81
 747 372 747 372 753 365 c 128,-1,82
 759 358 759 358 759 349 c 2,83,-1
 759 25 l 2,84,85
 759 15 759 15 752 8.5 c 128,-1,86
 745 2 745 2 736 2 c 2,87,-1
 673 2 l 2,88,89
 663 2 663 2 656.5 8.5 c 128,-1,90
 650 15 650 15 650 25 c 2,91,-1
 650 104 l 2,92,93
 648 141 648 141 615 188 c 0,94,95
 584 235 584 235 538 235 c 0,96,97
 521 235 521 235 503.5 226 c 128,-1,98
 486 217 486 217 474 205.5 c 128,-1,99
 462 194 462 194 451.5 178.5 c 128,-1,100
 441 163 441 163 438 157 c 128,-1,101
 435 151 435 151 430 139 c 0,102,103
 425 128 425 128 425 104 c 2,104,-1
 425 25 l 2,105,106
 425 15 425 15 417.5 8.5 c 128,-1,107
 410 2 410 2 399 2 c 2,108,-1
 74 2 l 2,109,110
 49 2 49 2 47 7 c 2,111,-1
 47 405 l 2,112,113
 47 429 47 429 34 446 c 2,114,-1
 14 471 l 2,115,116
 0 489 0 489 0 512 c 2,117,-1
 0 609 l 2,118,119
 0 619 0 619 7 626 c 128,-1,120
 14 633 14 633 23 633 c 2,121,-1
 32 633 l 2,122,123
 43 633 43 633 49.5 625 c 128,-1,124
 56 617 56 617 56 609 c 2,125,-1
 56 584 l 2,126,127
 56 574 56 574 66.5 567.5 c 128,-1,128
 77 561 77 561 85 561 c 128,-1,129
 93 561 93 561 103 568 c 128,-1,130
 113 575 113 575 113 584 c 2,131,-1
 113 609 l 2,132,133
 113 619 113 619 120.5 626 c 128,-1,134
 128 633 128 633 138 633 c 2,135,-1
 151 633 l 2,136,137
 162 633 162 633 168 625 c 128,-1,138
 174 617 174 617 174 609 c 2,139,-1
 174 583 l 2,140,141
 174 573 174 573 184 566.5 c 128,-1,142
 194 560 194 560 204 560 c 128,-1,143
 214 560 214 560 223 567 c 128,-1,144
 232 574 232 574 232 583 c 2,145,-1
 232 609 l 2,146,147
 232 619 232 619 239 626 c 128,-1,148
 246 633 246 633 255 633 c 2,149,-1
 268 633 l 2,150,151
 278 633 278 633 285.5 625 c 128,-1,152
 293 617 293 617 293 609 c 2,153,-1
 293 584 l 2,154,155
 293 574 293 574 303 567.5 c 128,-1,156
 313 561 313 561 322 561 c 0,157,158
 332 561 332 561 340.5 568 c 128,-1,159
 349 575 349 575 349 584 c 2,160,-1
 349 609 l 2,161,162
 349 619 349 619 357 626 c 128,-1,163
 365 633 365 633 374 633 c 2,164,-1
 383 633 l 2,165,166
 393 633 393 633 399 625 c 128,-1,167
 405 617 405 617 405 609 c 2,168,-1
 405 512 l 2,169,170
 405 490 405 490 392 471 c 2,171,-1
 372 446 l 2,172,173
 358 428 358 428 358 380 c 0,174,175
 358 374 358 374 361.5 373 c 128,-1,176
 365 372 365 372 371 372 c 2,36,-1
EndSplineSet
Validated: 1
EndChar

StartChar: cinema
Encoding: 57356 57356 44
Width: 749
VWidth: 828
Flags: W
HStem: -66 39<143.579 200.352> 16 37<141.734 201.658> 69 38<563 625.057> 137 37<496.125 515.906> 150 36<567.13 623.862> 270 40<137.249 194.384> 352 28<137.589 196.007> 406 40<560.383 620.825> 486 28<561.381 618.582>
VStem: 0 58<68.3125 292.968> 0 34<1.59473 45 339.78 384> 96 45<-14.4828 15.676 325.517 352> 202 45<-8.99854 16.5625 328 353.998> 238 39<86.4795 278.422> 308 43<33.9092 43.9213 375 383.453> 409 45<82.5126 95.4523 417.063 426> 457 39<176.682 370.452> 519 44<107.32 134.937 444.902 470.453> 625 44<107 129.906 445 467.999> 677 72<174.063 396.021> 727 22<67 108.197 407 443.003>
LayerCount: 2
Fore
SplineSet
83 367 m 0,0,1
 61 374 61 374 46 384 c 128,-1,2
 31 394 31 394 31 384 c 2,3,-1
 31 363 l 2,4,5
 31 352 31 352 42 345 c 0,6,7
 75 325 75 325 84.5 325.5 c 128,-1,8
 94 326 94 326 94 331 c 2,9,-1
 94 352 l 2,10,11
 94 363 94 363 83 367 c 0,0,1
146 352 m 2,12,13
 137 352 137 352 137 343 c 2,14,-1
 137 322 l 2,15,16
 137 310 137 310 146 310 c 2,17,-1
 162 310 l 2,18,19
 191 310 191 310 194.5 314.5 c 128,-1,20
 198 319 198 319 198 324 c 2,21,-1
 198 345 l 2,22,23
 198 354 198 354 187 354 c 0,24,25
 171 352 171 352 162 352 c 2,26,-1
 146 352 l 2,12,13
301 383.5 m 128,-1,28
 299 385 299 385 285.5 380 c 128,-1,29
 272 375 272 375 257 370 c 0,30,31
 243 366 243 366 243 356 c 2,32,-1
 243 334 l 2,33,34
 245 330 245 330 245 328 c 0,35,36
 252 324 252 324 294 342 c 0,37,38
 305 346 305 346 303 356 c 2,39,-1
 303 378 l 2,40,27
 303 382 303 382 301 383.5 c 128,-1,28
409 426 m 2,41,42
 409 436 409 436 401 432 c 128,-1,43
 393 428 393 428 377.5 420.5 c 128,-1,44
 362 413 362 413 355.5 410 c 128,-1,45
 349 407 349 407 349 397 c 2,46,-1
 349 375 l 2,47,48
 349 365 349 365 358 369 c 0,49,50
 389 383 389 383 399 388 c 128,-1,51
 409 393 409 393 409 404 c 2,52,-1
 409 426 l 2,41,42
517 465 m 2,53,54
 517 469 517 469 514 470.5 c 128,-1,55
 511 472 511 472 506 472 c 128,-1,56
 501 472 501 472 465 460 c 0,57,58
 454 457 454 457 454 446 c 2,59,-1
 454 423 l 2,60,61
 454 419 454 419 457.5 417 c 128,-1,62
 461 415 461 415 473.5 420 c 128,-1,63
 486 425 486 425 501 429 c 0,64,65
 515 434 515 434 517 446 c 2,66,-1
 517 465 l 2,53,54
589 486 m 0,67,68
 558 486 558 486 560 473 c 2,69,-1
 560 452 l 2,70,71
 560 443 560 443 571 444 c 128,-1,72
 582 445 582 445 591.5 445.5 c 128,-1,73
 601 446 601 446 610 446 c 0,74,75
 619 444 619 444 621 452 c 2,76,-1
 621 473 l 2,77,78
 621 482 621 482 610 485 c 0,79,80
 598 485 598 485 589 486 c 0,67,68
727 428 m 2,81,82
 725 443 725 443 675 468 c 0,83,84
 671 470 671 470 668 468 c 0,85,86
 666 468 666 468 666 464 c 2,87,-1
 666 441 l 2,88,89
 666 432 666 432 675 428 c 0,90,91
 696 419 696 419 711.5 408 c 128,-1,92
 727 397 727 397 727 407 c 2,93,-1
 727 428 l 2,81,82
235 278.5 m 128,-1,95
 232 281 232 281 212.5 275.5 c 128,-1,96
 193 270 193 270 151.5 270 c 128,-1,97
 110 270 110 270 69 292 c 0,98,99
 65 294 65 294 61.5 293 c 128,-1,100
 58 292 58 292 58 286 c 2,101,-1
 58 88 l 2,102,103
 58 77 58 77 69 73 c 0,104,105
 111 53 111 53 152 53 c 128,-1,106
 193 53 193 53 227 63 c 0,107,108
 236 66 236 66 238 76 c 2,109,-1
 238 272 l 2,110,94
 238 276 238 276 235 278.5 c 128,-1,95
454.5 370.5 m 128,-1,112
 452 372 452 372 438.5 366.5 c 128,-1,113
 425 361 425 361 371 335.5 c 128,-1,114
 317 310 317 310 288 300 c 0,115,116
 277 296 277 296 277 285 c 2,117,-1
 277 87 l 2,118,119
 277 77 277 77 288 82 c 0,120,121
 317 94 317 94 370 118 c 128,-1,122
 423 142 423 142 447 153 c 0,123,124
 458 156 458 156 457 166 c 2,125,-1
 457 364 l 2,126,111
 457 369 457 369 454.5 370.5 c 128,-1,112
666 392 m 0,127,128
 630 406 630 406 590.5 405.5 c 128,-1,129
 551 405 551 405 508 392 c 0,130,131
 498 388 498 388 496 378 c 2,132,-1
 496 181 l 2,133,134
 497 172 497 172 508 174 c 0,135,136
 554 187 554 187 593 186.5 c 128,-1,137
 632 186 632 186 666 174 c 0,138,139
 670 172 670 172 673.5 174 c 128,-1,140
 677 176 677 176 677 179 c 2,141,-1
 677 376 l 2,142,143
 677 388 677 388 666 392 c 0,127,128
87 29 m 0,144,145
 65 36 65 36 49.5 45 c 128,-1,146
 34 54 34 54 34 45 c 2,147,-1
 34 23 l 2,148,149
 34 12 34 12 45 5 c 0,150,151
 77 -15 77 -15 86.5 -14.5 c 128,-1,152
 96 -14 96 -14 96 -7 c 2,153,-1
 96 14 l 2,154,155
 96 25 96 25 87 29 c 0,144,145
202 8 m 2,156,157
 202 20 202 20 184 17 c 0,158,159
 175 16 175 16 166 16 c 2,160,-1
 151 16 l 2,161,162
 140 16 140 16 141 5 c 2,163,-1
 141 -15 l 2,164,165
 141 -19 141 -19 143.5 -23 c 128,-1,166
 146 -27 146 -27 151.5 -27 c 128,-1,167
 157 -27 157 -27 162 -27 c 0,168,169
 203 -28 203 -28 202 -13 c 2,170,-1
 202 8 l 2,156,157
308 41 m 2,171,172
 308 53 308 53 292 46.5 c 128,-1,173
 276 40 276 40 261.5 35 c 128,-1,174
 247 30 247 30 247 20 c 2,175,-1
 247 -3 l 2,176,177
 247 -9 247 -9 254 -9 c 128,-1,178
 261 -9 261 -9 297 5 c 0,179,180
 306 9 306 9 308 21 c 2,181,-1
 308 41 l 2,171,172
410.5 95.5 m 128,-1,183
 407 97 407 97 388 88 c 128,-1,184
 369 79 369 79 360 75 c 128,-1,185
 351 71 351 71 351 62 c 2,186,-1
 351 40 l 2,187,188
 351 31 351 31 362 34 c 2,189,-1
 378 42 l 2,190,191
 394 50 394 50 403 54 c 128,-1,192
 412 58 412 58 414 68 c 2,193,-1
 414 89 l 2,194,182
 414 94 414 94 410.5 95.5 c 128,-1,183
519 129 m 2,195,196
 519 133 519 133 516 135 c 128,-1,197
 513 137 513 137 508.5 137 c 128,-1,198
 504 137 504 137 468 122 c 0,199,200
 458 118 458 118 457 108 c 2,201,-1
 457 86 l 2,202,203
 457 75 457 75 473.5 81.5 c 128,-1,204
 490 88 490 88 510 94 c 0,205,206
 519 97 519 97 519 108 c 2,207,-1
 519 129 l 2,195,196
625 137 m 2,208,209
 625 151 625 151 594 150 c 0,210,211
 571 150 571 150 567 146 c 0,212,213
 563 141 563 141 563 137 c 2,214,-1
 563 117 l 2,215,216
 563 107 563 107 574 107 c 128,-1,217
 585 107 585 107 592 107 c 2,218,-1
 607 107 l 2,219,220
 627 105 627 105 625 115 c 2,221,-1
 625 137 l 2,208,209
720 106 m 0,222,223
 682 130 682 130 673 130 c 0,224,225
 669 127 669 127 669 124 c 2,226,-1
 669 104 l 2,227,228
 668 94 668 94 679 87 c 0,229,230
 699 78 699 78 720 64 c 0,231,232
 729 59 729 59 731 67 c 2,233,-1
 731 87 l 2,234,235
 729 99 729 99 720 106 c 0,222,223
0 13 m 2,236,-1
 0 436 l 2,237,238
 0 440 0 440 3 440 c 0,239,240
 7 440 7 440 11 436 c 0,241,242
 78 379 78 379 164 380 c 0,243,244
 229 382 229 382 322 424 c 0,245,246
 376 447 376 447 429 470 c 0,247,248
 528 514 528 514 587 514 c 0,249,250
 673 510 673 510 740 456 c 0,251,252
 751 447 751 447 749 436 c 2,253,-1
 749 13 l 2,254,255
 749 9 749 9 746.5 7.5 c 128,-1,256
 744 6 744 6 740 12 c 0,257,258
 675 65 675 65 587 69 c 0,259,260
 526 68 526 68 429 24 c 0,261,262
 377 0 377 0 322 -22 c 0,263,264
 223 -66 223 -66 164 -66 c 0,265,266
 78 -66 78 -66 11 -8 c 0,267,268
 0 2 0 2 0 13 c 2,236,-1
EndSplineSet
Validated: 1
EndChar

StartChar: water_tower
Encoding: 57357 57357 45
Width: 309
VWidth: 828
Flags: W
HStem: 4 69<71.7051 231.551> 101 67<71.3301 231.551> 199 66<71.0957 231.581> 300 51<76.1191 222.007> 309 85<52.0625 76.8774 220.693 265.851> 378 47<76.0312 134.094 165.266 222.667> 418 46<29.656 77.5338> 479 56<5.15771 50.5642 111.206 289> 479 47<112.652 177.478> 556 78<95.8506 214.322> 556 14<0.292969 24.0586>
VStem: 71 170<16.2808 72.8743 112.188 167.882 207.281 264.359>
LayerCount: 2
Fore
SplineSet
241 62 m 2,0,-1
 241 32 l 2,1,2
 240 25 240 25 232 16 c 0,3,4
 218 3 218 3 155 4 c 2,5,-1
 99 7 l 2,6,7
 87 9 87 9 79 15.5 c 128,-1,8
 71 22 71 22 71 32 c 2,9,-1
 71 62 l 2,10,11
 71 69 71 69 79 73 c 128,-1,12
 87 77 87 77 106.5 75 c 128,-1,13
 126 73 126 73 154.5 73 c 128,-1,14
 183 73 183 73 203.5 75.5 c 128,-1,15
 224 78 224 78 232.5 73.5 c 128,-1,16
 241 69 241 69 241 62 c 2,0,-1
241 157 m 2,17,-1
 241 126 l 2,18,19
 240 118 240 118 232 112 c 0,20,21
 218 99 218 99 155 101 c 2,22,-1
 99 104 l 2,23,24
 87 106 87 106 79 113 c 128,-1,25
 71 120 71 120 71 126 c 2,26,-1
 71 157 l 2,27,28
 71 164 71 164 79 169 c 128,-1,29
 87 174 87 174 106.5 171 c 128,-1,30
 126 168 126 168 154.5 168 c 128,-1,31
 183 168 183 168 203.5 171 c 128,-1,32
 224 174 224 174 232.5 169 c 128,-1,33
 241 164 241 164 241 157 c 2,17,-1
241 253 m 2,34,-1
 241 223 l 2,35,36
 240 216 240 216 232 207 c 0,37,38
 219 195 219 195 155 195 c 1,39,-1
 99 199 l 2,40,41
 87 201 87 201 79 208.5 c 128,-1,42
 71 216 71 216 71 223 c 2,43,-1
 71 253 l 2,44,45
 71 260 71 260 79 265 c 128,-1,46
 87 270 87 270 106.5 267.5 c 128,-1,47
 126 265 126 265 154.5 265 c 128,-1,48
 183 265 183 265 203.5 267 c 128,-1,49
 224 269 224 269 232.5 264.5 c 128,-1,50
 241 260 241 260 241 253 c 2,34,-1
273 434 m 0,51,52
 280 437 280 437 284 432 c 128,-1,53
 288 427 288 427 285.5 417 c 128,-1,54
 283 407 283 407 278.5 400.5 c 128,-1,55
 274 394 274 394 270 395 c 0,56,57
 269 396 269 396 262 406.5 c 128,-1,58
 255 417 255 417 246 414.5 c 128,-1,59
 237 412 237 412 227 403.5 c 128,-1,60
 217 395 217 395 208 386.5 c 128,-1,61
 199 378 199 378 190 378 c 128,-1,62
 181 378 181 378 171.5 392 c 128,-1,63
 162 406 162 406 152.5 406.5 c 128,-1,64
 143 407 143 407 133.5 400 c 128,-1,65
 124 393 124 393 115.5 386 c 128,-1,66
 107 379 107 379 96.5 379 c 128,-1,67
 86 379 86 379 76 398.5 c 128,-1,68
 66 418 66 418 52 418 c 0,69,70
 48 418 48 418 43.5 414.5 c 128,-1,71
 39 411 39 411 33 414 c 0,72,73
 19 419 19 419 26 443 c 0,74,75
 30 451 30 451 33.5 455.5 c 128,-1,76
 37 460 37 460 38.5 460.5 c 128,-1,77
 40 461 40 461 42 462 c 128,-1,78
 44 463 44 463 46.5 463.5 c 128,-1,79
 49 464 49 464 51.5 464 c 128,-1,80
 54 464 54 464 57.5 462.5 c 128,-1,81
 61 461 61 461 64 459 c 128,-1,82
 67 457 67 457 70.5 453.5 c 128,-1,83
 74 450 74 450 78 445 c 0,84,85
 87 428 87 428 97 427.5 c 128,-1,86
 107 427 107 427 115.5 432.5 c 128,-1,87
 124 438 124 438 133.5 446 c 128,-1,88
 143 454 143 454 152.5 454 c 128,-1,89
 162 454 162 454 171.5 439.5 c 128,-1,90
 181 425 181 425 190 425 c 128,-1,91
 199 425 199 425 208 434 c 128,-1,92
 217 443 217 443 226.5 450.5 c 128,-1,93
 236 458 236 458 245 460 c 128,-1,94
 254 462 254 462 265 448 c 0,95,96
 270 437 270 437 273 434 c 0,51,52
51 490 m 0,97,98
 37 490 37 490 30 482 c 0,99,100
 24 477 24 477 16.5 479 c 128,-1,101
 9 481 9 481 7 491 c 128,-1,102
 5 501 5 501 2.5 512 c 128,-1,103
 0 523 0 523 5 529 c 128,-1,104
 10 535 10 535 21 535 c 0,105,106
 88 526 88 526 154 526 c 1,107,-1
 289 535 l 2,108,109
 299 536 299 536 303.5 530 c 128,-1,110
 308 524 308 524 306.5 513.5 c 128,-1,111
 305 503 305 503 301.5 493.5 c 128,-1,112
 298 484 298 484 290.5 473 c 128,-1,113
 283 462 283 462 274 457 c 0,114,115
 273 457 273 457 263.5 472 c 128,-1,116
 254 487 254 487 244.5 485.5 c 128,-1,117
 235 484 235 484 225.5 476 c 128,-1,118
 216 468 216 468 207.5 459.5 c 128,-1,119
 199 451 199 451 189 451.5 c 128,-1,120
 179 452 179 452 170 465.5 c 128,-1,121
 161 479 161 479 152 479 c 0,122,123
 142 480 142 480 132 472 c 0,124,125
 109 452 109 452 97 452 c 128,-1,126
 85 452 85 452 77 468 c 0,127,128
 65 489 65 489 51 490 c 0,97,98
300 570 m 0,129,130
 311 566 311 566 309 562 c 128,-1,131
 307 558 307 558 297 556 c 0,132,133
 226 550 226 550 154 550 c 2,134,-1
 12 556 l 2,135,136
 0 557 0 557 0 561.5 c 128,-1,137
 0 566 0 566 9 570 c 0,138,139
 55 590 55 590 129 628 c 0,140,141
 140 633 140 633 155.5 633.5 c 128,-1,142
 171 634 171 634 182 628 c 0,143,144
 254 590 254 590 300 570 c 0,129,130
230 308 m 0,145,146
 201 300 201 300 162 300 c 128,-1,147
 123 300 123 300 102.5 303.5 c 128,-1,148
 82 307 82 307 72 309 c 128,-1,149
 62 311 62 311 51 322 c 0,150,151
 37 338 37 338 37 361.5 c 128,-1,152
 37 385 37 385 52 393 c 0,153,154
 54 394 54 394 56 394 c 0,155,156
 66 394 66 394 75.5 374.5 c 128,-1,157
 85 355 85 355 95 353.5 c 128,-1,158
 105 352 105 352 114.5 359 c 128,-1,159
 124 366 124 366 133.5 373 c 128,-1,160
 143 380 143 380 152.5 379.5 c 128,-1,161
 162 379 162 379 171.5 365 c 128,-1,162
 181 351 181 351 190 351 c 128,-1,163
 199 351 199 351 208 360 c 128,-1,164
 217 369 217 369 227 377.5 c 128,-1,165
 237 386 237 386 246 389 c 0,166,167
 255 393 255 393 265 378 c 0,168,169
 268 374 268 374 268 373 c 0,170,171
 275 369 275 369 271 349 c 0,172,173
 265 315 265 315 241 310 c 0,174,175
 237 308 237 308 230 308 c 0,145,146
EndSplineSet
Validated: 1
EndChar

StartChar: boundary_stone
Encoding: 57358 57358 46
Width: 414
VWidth: 828
Flags: W
LayerCount: 2
Fore
SplineSet
206 179 m 1,0,-1
 414 24 l 1,1,-1
 414 20 l 2,2,3
 414 13 414 13 407 7.5 c 128,-1,4
 400 2 400 2 394 2 c 2,5,-1
 18 2 l 2,6,7
 10 2 10 2 5 7.5 c 128,-1,8
 0 13 0 13 0 20 c 2,9,-1
 0 24 l 1,10,-1
 206 179 l 1,0,-1
206 384 m 1,11,-1
 340 284 l 1,12,-1
 340 158 l 1,13,-1
 206 259 l 1,14,-1
 72 158 l 1,15,-1
 72 284 l 1,16,-1
 206 384 l 1,11,-1
206 658 m 128,-1,18
 214 658 214 658 218 651 c 2,19,-1
 328 486 l 2,20,21
 340 470 340 470 340 452 c 2,22,-1
 340 363 l 1,23,-1
 206 463 l 1,24,-1
 72 363 l 1,25,-1
 72 452 l 2,26,27
 72 472 72 472 84 486 c 2,28,-1
 196 651 l 2,29,17
 198 658 198 658 206 658 c 128,-1,18
EndSplineSet
Validated: 1
EndChar

StartChar: cinema_alt
Encoding: 57360 57360 47
Width: 745
VWidth: 828
Flags: W
HStem: 1 237<49.1504 201.195 331.352 517.77> 290 92<97.5374 141.19> 290 38<52.6615 141.5> 291 139<397.74 461.921> 432 93<96.8285 137.414> 590 57<343.607 468.75>
VStem: 0 93<389.279 428.047> 0 35<344.963 430.75> 142 92<382.652 428.047> 254 56<431.25 556.88> 470 140<438.351 498.92> 553 192<145.209 280.013>
LayerCount: 2
Fore
SplineSet
430 238 m 0,0,1
 477 238 477 238 522 257 c 1,2,-1
 522 40 l 2,3,4
 522 25 522 25 510 13 c 0,5,6
 499 2 499 2 483 1 c 2,7,-1
 85 1 l 2,8,9
 69 1 69 1 57 12.5 c 128,-1,10
 45 24 45 24 45 40 c 2,11,-1
 45 253 l 1,12,13
 78 239 78 239 117.5 238 c 128,-1,14
 157 237 157 237 192.5 255.5 c 128,-1,15
 228 274 228 274 252 307 c 1,16,-1
 266 307 l 1,17,18
 335 238 335 238 430 238 c 0,0,1
117 382 m 128,-1,20
 127 382 127 382 134.5 389.5 c 128,-1,21
 142 397 142 397 142 407.5 c 128,-1,22
 142 418 142 418 134.5 425 c 128,-1,23
 127 432 127 432 117 432 c 128,-1,24
 107 432 107 432 100 425 c 128,-1,25
 93 418 93 418 93 407.5 c 128,-1,26
 93 397 93 397 100 389.5 c 128,-1,19
 107 382 107 382 117 382 c 128,-1,20
102 375 m 1,27,28
 88 381 88 381 82 394 c 1,29,30
 53 380 53 380 39 365 c 0,31,32
 35 361 35 361 35 354.5 c 128,-1,33
 35 348 35 348 45 338 c 128,-1,34
 55 328 55 328 61 328 c 0,35,36
 78 328 78 328 102 375 c 1,27,28
117 525 m 128,-1,38
 166 525 166 525 200 490 c 128,-1,39
 234 455 234 455 234 406.5 c 128,-1,40
 234 358 234 358 200 324 c 128,-1,41
 166 290 166 290 117 290 c 128,-1,42
 68 290 68 290 34 324 c 128,-1,43
 0 358 0 358 0 406.5 c 128,-1,44
 0 455 0 455 34 490 c 128,-1,37
 68 525 68 525 117 525 c 128,-1,38
432.5 430 m 128,-1,46
 448 430 448 430 459 441.5 c 128,-1,47
 470 453 470 453 470 469 c 128,-1,48
 470 485 470 485 459 496 c 128,-1,49
 448 507 448 507 432.5 507 c 128,-1,50
 417 507 417 507 405.5 496 c 128,-1,51
 394 485 394 485 394 469 c 128,-1,52
 394 453 394 453 405.5 441.5 c 128,-1,45
 417 430 417 430 432.5 430 c 128,-1,46
378 495 m 1,53,54
 385 516 385 516 406 523 c 1,55,56
 398 540 398 540 384.5 558.5 c 128,-1,57
 371 577 371 577 364 583.5 c 128,-1,58
 357 590 357 590 349 590 c 128,-1,59
 341 590 341 590 325.5 575.5 c 128,-1,60
 310 561 310 561 310 552 c 128,-1,61
 310 543 310 543 316.5 537 c 128,-1,62
 323 531 323 531 342 517.5 c 128,-1,63
 361 504 361 504 378 495 c 1,53,54
431.5 647 m 128,-1,65
 506 647 506 647 558 595 c 128,-1,66
 610 543 610 543 610 468.5 c 128,-1,67
 610 394 610 394 558 342.5 c 128,-1,68
 506 291 506 291 431.5 291 c 128,-1,69
 357 291 357 291 305.5 342.5 c 128,-1,70
 254 394 254 394 254 468.5 c 128,-1,71
 254 543 254 543 305.5 595 c 128,-1,64
 357 647 357 647 431.5 647 c 128,-1,65
724 337 m 0,72,73
 745 338 745 338 745 320 c 2,74,-1
 745 104 l 2,75,76
 746 91 746 91 734 88 c 0,77,78
 722 84 722 84 706 91 c 2,79,-1
 590 137 l 2,80,81
 575 143 575 143 564 155.5 c 128,-1,82
 553 168 553 168 553 180 c 2,83,-1
 553 245 l 2,84,85
 553 256 553 256 563 269 c 128,-1,86
 573 282 573 282 590 286 c 2,87,-1
 706 334 l 2,88,89
 716 337 716 337 724 337 c 0,72,73
EndSplineSet
Validated: 1
EndChar

StartChar: court_house
Encoding: 57361 57361 48
Width: 703
VWidth: 828
Flags: W
HStem: 3 97<192.188 271.328 420.734 504> 3 66<116.376 186 504 595.799> 133 87<45.3213 175.302 529.152 657.787> 500 85<23.3906 175.906 593.282 659.285> 500 75<62.25 154.717> 537 77<159.223 316.689 381.187 545.929>
VStem: 0 44<220 277.161> 176 44<188.25 272.861> 285 127<146.25 457.746> 658 44<222.5 282.688>
LayerCount: 2
Fore
SplineSet
349 536 m 128,-1,1
 360 536 360 536 368 543.5 c 128,-1,2
 376 551 376 551 376 562 c 128,-1,3
 376 573 376 573 368 580.5 c 128,-1,4
 360 588 360 588 349 588 c 128,-1,5
 338 588 338 588 330 580.5 c 128,-1,6
 322 573 322 573 322 562 c 128,-1,7
 322 551 322 551 330 543.5 c 128,-1,0
 338 536 338 536 349 536 c 128,-1,1
674 580 m 1,8,9
 678 573 678 573 676 565 c 2,10,-1
 676 551 l 2,11,12
 674 530 674 530 666 526 c 0,13,14
 630 504 630 504 598 503 c 0,15,16
 572 503 572 503 540 517 c 0,17,18
 508 530 508 530 496 534 c 0,19,20
 475 542 475 542 447.5 541 c 128,-1,21
 420 540 420 540 376 524 c 1,22,23
 394 452 394 452 404 363 c 0,24,25
 412 277 412 277 412 252 c 0,26,27
 410 182 410 182 404 143 c 1,28,29
 424 126 424 126 428 100 c 1,30,-1
 480 100 l 2,31,32
 490 100 490 100 497 93 c 128,-1,33
 504 86 504 86 504 78 c 2,34,-1
 504 69 l 1,35,-1
 560 69 l 2,36,37
 575 69 575 69 586.5 59 c 128,-1,38
 598 49 598 49 598 36 c 2,39,-1
 598 3 l 1,40,-1
 106 3 l 1,41,-1
 106 36 l 2,42,43
 106 48 106 48 116 58 c 0,44,45
 128 68 128 68 144 69 c 2,46,-1
 186 69 l 1,47,-1
 186 78 l 2,48,49
 186 87 186 87 192 93.5 c 128,-1,50
 198 100 198 100 208 100 c 2,51,-1
 264 100 l 1,52,53
 268 128 268 128 292 145 c 1,54,55
 284 185 284 185 285 226.5 c 128,-1,56
 286 268 286 268 292 337 c 128,-1,57
 298 406 298 406 306 451 c 128,-1,58
 314 496 314 496 320 522 c 1,59,60
 272 538 272 538 244 537 c 0,61,62
 217 537 217 537 201.5 531.5 c 128,-1,63
 186 526 186 526 166 518 c 0,64,65
 122 498 122 498 94 499 c 0,66,67
 92 500 92 500 90 500 c 0,68,69
 60 500 60 500 28 519 c 0,70,71
 20 523 20 523 16 537 c 0,72,73
 12 550 12 550 16 562 c 2,74,-1
 18 572 l 2,75,76
 20 574 20 574 22 575 c 128,-1,77
 24 576 24 576 32 579 c 128,-1,78
 40 582 40 582 47 583.5 c 128,-1,79
 54 585 54 585 62 585 c 128,-1,80
 70 585 70 585 78 579.5 c 128,-1,81
 86 574 86 574 98 575 c 0,82,83
 108 577 108 577 128 586 c 0,84,85
 196 616 196 616 242 614 c 0,86,87
 276 614 276 614 318 603 c 1,88,89
 320 615 320 615 328 627 c 0,90,91
 336 640 336 640 342 644 c 2,92,-1
 350 650 l 1,93,94
 376 632 376 632 380 606 c 1,95,96
 418 616 418 616 455 616 c 128,-1,97
 492 616 492 616 516 608.5 c 128,-1,98
 540 601 540 601 562 591 c 128,-1,99
 584 581 584 581 593 580.5 c 128,-1,100
 602 580 602 580 616 588 c 0,101,102
 624 592 624 592 636 591.5 c 128,-1,103
 648 591 648 591 664 584 c 2,104,-1
 674 580 l 1,8,9
558 221 m 2,105,-1
 594 222 l 1,106,-1
 620 222 l 2,107,108
 658 221 658 221 658 236 c 0,109,110
 658 243 658 243 643 285.5 c 128,-1,111
 628 328 628 328 610 364 c 2,112,-1
 594 401 l 1,113,114
 528 251 528 251 529 235 c 0,115,116
 527 221 527 221 558 221 c 2,105,-1
594 477 m 1,117,118
 598 467 598 467 606 453 c 0,119,120
 616 438 616 438 634 395 c 2,121,-1
 666 319 l 2,122,123
 703 229 703 229 702.5 203 c 128,-1,124
 702 177 702 177 671 157 c 128,-1,125
 640 137 640 137 594 137 c 128,-1,126
 548 137 548 137 517 157 c 128,-1,127
 486 177 486 177 486 206 c 0,128,129
 486 222 486 222 512 292 c 0,130,131
 538 360 538 360 566 418 c 2,132,-1
 594 477 l 1,117,118
60 220 m 2,133,-1
 92 220 l 2,134,135
 104 220 104 220 112 220 c 128,-1,136
 120 220 120 220 130 220 c 128,-1,137
 140 220 140 220 148 220 c 0,138,139
 176 222 176 222 176 235 c 128,-1,140
 176 248 176 248 126 362 c 1,141,-1
 108 399 l 1,142,143
 42 249 42 249 44 232 c 0,144,145
 44 222 44 222 60 220 c 2,133,-1
108 475 m 1,146,147
 129 436 129 436 174.5 330.5 c 128,-1,148
 220 225 220 225 220 200.5 c 128,-1,149
 220 176 220 176 187 154.5 c 128,-1,150
 154 133 154 133 109 133 c 128,-1,151
 64 133 64 133 32 154.5 c 128,-1,152
 0 176 0 176 0 206.5 c 128,-1,153
 0 237 0 237 82 418 c 2,154,-1
 108 475 l 1,146,147
EndSplineSet
Validated: 1
EndChar

StartChar: fort
Encoding: 57362 57362 49
Width: 678
VWidth: 828
Flags: W
HStem: 326 68<92.125 129.688 548.125 583.657> 493 130<91 133.687 548.25 583.875>
VStem: 0 46<569 623> 26 242<5.09448 139.594 281 285 304 310> 26 62<225 325.733 397.156 492.825> 88 46<568 623> 138 60<394 478.625> 178 46<568 623> 312 66<273 319> 406 244<2 164.932> 424 119<273 318.91> 452 42<568 618.875> 476 67<397.156 478.594> 538 46<568.015 623> 594 56<225 314.501 394 482.562> 630 48<568 623>
LayerCount: 2
Fore
SplineSet
594 406 m 2,0,-1
 594 454 l 2,1,2
 594 469 594 469 584 483 c 0,3,4
 580 486 580 486 577 489.5 c 128,-1,5
 574 493 574 493 565 493 c 128,-1,6
 556 493 556 493 548 479 c 0,7,8
 543 466 543 466 543 454 c 2,9,-1
 543 406 l 2,10,11
 544 402 544 402 548 397 c 0,12,13
 552 394 552 394 556 394 c 2,14,-1
 580 394 l 2,15,16
 584 394 584 394 589 398 c 128,-1,17
 594 402 594 402 594 406 c 2,0,-1
594 237 m 2,18,-1
 594 286 l 2,19,20
 594 299 594 299 584 315 c 0,21,22
 573 326 573 326 564.5 326 c 128,-1,23
 556 326 556 326 548 311 c 0,24,25
 543 298 543 298 543 286 c 2,26,-1
 543 237 l 2,27,28
 543 233 543 233 546.5 229 c 128,-1,29
 550 225 550 225 556 225 c 2,30,-1
 580 225 l 2,31,32
 584 225 584 225 589 229 c 128,-1,33
 594 233 594 233 594 237 c 2,18,-1
112 493 m 0,34,35
 92 492 92 492 88 454 c 1,36,-1
 88 406 l 2,37,38
 88 402 88 402 92 397 c 0,39,40
 96 394 96 394 100 394 c 2,41,-1
 124 394 l 2,42,43
 128 394 128 394 133 397 c 128,-1,44
 138 400 138 400 138 406 c 2,45,-1
 138 454 l 2,46,47
 138 467 138 467 134 479 c 0,48,49
 124 493 124 493 112 493 c 0,34,35
112 326 m 0,50,51
 92 324 92 324 88 286 c 1,52,-1
 88 237 l 2,53,54
 88 233 88 233 92 229 c 128,-1,55
 96 225 96 225 100 225 c 2,56,-1
 124 225 l 2,57,58
 128 225 128 225 133 228.5 c 128,-1,59
 138 232 138 232 138 237 c 2,60,-1
 138 286 l 2,61,62
 138 302 138 302 130 315 c 0,63,64
 120 326 120 326 112 326 c 0,50,51
584 581 m 2,65,66
 584 567 584 567 598 568 c 2,67,-1
 618 568 l 2,68,69
 622 568 622 568 626 572 c 128,-1,70
 630 576 630 576 630 581 c 2,71,-1
 630 609 l 2,72,73
 630 615 630 615 634 619 c 128,-1,74
 638 623 638 623 642 623 c 2,75,-1
 662 623 l 2,76,77
 666 623 666 623 671 619 c 128,-1,78
 676 615 676 615 678 609 c 2,79,-1
 678 568 l 1,80,81
 674 564 674 564 674 562 c 128,-1,82
 674 560 674 560 672 556 c 2,83,-1
 656 519 l 1,84,-1
 650 507 l 1,85,-1
 650 14 l 2,86,87
 650 10 650 10 646 6 c 128,-1,88
 642 2 642 2 638 2 c 2,89,-1
 418 2 l 2,90,91
 406 2 406 2 406 14 c 2,92,-1
 406 114 l 2,93,94
 406 131 406 131 401 138.5 c 128,-1,95
 396 146 396 146 393 151.5 c 128,-1,96
 390 157 390 157 386 162 c 0,97,98
 364 194 364 194 340 195 c 0,99,100
 308 195 308 195 284 158 c 0,101,102
 278 148 278 148 276 145 c 128,-1,103
 274 142 274 142 272 140 c 0,104,105
 268 127 268 127 268 114 c 2,106,-1
 268 14 l 2,107,108
 268 10 268 10 264 6 c 128,-1,109
 260 2 260 2 256 2 c 2,110,-1
 38 2 l 2,111,112
 34 2 34 2 30 5 c 128,-1,113
 26 8 26 8 26 14 c 2,114,-1
 26 494 l 2,115,116
 26 508 26 508 20 519 c 2,117,-1
 0 569 l 1,118,-1
 0 609 l 2,119,120
 0 615 0 615 4 619 c 128,-1,121
 8 623 8 623 10 623 c 2,122,-1
 34 623 l 2,123,124
 38 623 38 623 41 619 c 128,-1,125
 44 615 44 615 46 609 c 2,126,-1
 46 581 l 2,127,128
 48 567 48 567 58 568 c 2,129,-1
 76 568 l 2,130,131
 81 568 81 568 84.5 572 c 128,-1,132
 88 576 88 576 88 581 c 2,133,-1
 88 609 l 2,134,135
 88 623 88 623 98 623 c 2,136,-1
 120 623 l 2,137,138
 131 623 131 623 134 609 c 2,139,-1
 134 581 l 2,140,141
 134 575 134 575 138 571.5 c 128,-1,142
 142 568 142 568 146 568 c 2,143,-1
 166 568 l 2,144,145
 170 568 170 568 174 572 c 128,-1,146
 178 576 178 576 178 581 c 2,147,-1
 178 609 l 2,148,149
 178 623 178 623 190 623 c 2,150,-1
 212 623 l 2,151,152
 226 623 226 623 224 609 c 2,153,-1
 224 566 l 2,154,155
 224 565 224 565 222 562.5 c 128,-1,156
 220 560 220 560 218 556 c 2,157,-1
 204 519 l 2,158,159
 198 506 198 506 198 494 c 2,160,-1
 198 326 l 2,161,162
 198 319 198 319 210 319 c 2,163,-1
 252 319 l 2,164,165
 257 319 257 319 259.5 314.5 c 128,-1,166
 262 310 262 310 262 304 c 2,167,-1
 262 285 l 2,168,169
 262 281 262 281 266 276.5 c 128,-1,170
 270 272 270 272 274 272 c 2,171,-1
 300 272 l 2,172,173
 304 272 304 272 308 276 c 128,-1,174
 312 280 312 280 312 285 c 2,175,-1
 312 304 l 2,176,177
 312 308 312 308 315 313.5 c 128,-1,178
 318 319 318 319 322 319 c 2,179,-1
 366 319 l 2,180,181
 370 319 370 319 374 314.5 c 128,-1,182
 378 310 378 310 378 304 c 2,183,-1
 378 285 l 2,184,185
 378 281 378 281 381 277 c 128,-1,186
 384 273 384 273 388 273 c 2,187,-1
 414 273 l 2,188,189
 418 273 418 273 421 276.5 c 128,-1,190
 424 280 424 280 424 285 c 2,191,-1
 424 304 l 2,192,193
 424 308 424 308 428 313.5 c 128,-1,194
 432 319 432 319 438 319 c 2,195,-1
 464 319 l 2,196,197
 469 319 469 319 472.5 323.5 c 128,-1,198
 476 328 476 328 476 331 c 2,199,-1
 476 508 l 1,200,-1
 456 556 l 1,201,-1
 452 569 l 1,202,-1
 452 609 l 2,203,204
 452 623 452 623 462 623 c 2,205,-1
 486 623 l 2,206,207
 490 623 490 623 492 619 c 128,-1,208
 494 615 494 615 494 609 c 2,209,-1
 494 581 l 2,210,211
 494 575 494 575 499 571.5 c 128,-1,212
 504 568 504 568 510 568 c 2,213,-1
 528 568 l 2,214,215
 532 568 532 568 535 572 c 128,-1,216
 538 576 538 576 538 581 c 2,217,-1
 538 609 l 2,218,219
 538 623 538 623 550 623 c 2,220,-1
 572 623 l 2,221,222
 576 623 576 623 580 619 c 128,-1,223
 584 615 584 615 584 609 c 2,224,-1
 584 581 l 2,65,66
EndSplineSet
Validated: 1
EndChar

StartChar: fountain
Encoding: 57363 57363 50
Width: 607
VWidth: 828
Flags: W
HStem: 1 38<185.096 264.199 347.383 417.719> 248 43<3.87793 95.99 513.198 568.782 569.188 605.109> 427 55<194.117 268.304 346.408 419.087> 568 53<122.047 240.008 372.365 491.61>
VStem: 31 50<442.766 526.802> 134 51<357.251 418.786> 270 69<53.4402 92.672> 279 53<291 411.53> 427 52<357.252 419.301> 531 53<434.531 527.413>
LayerCount: 2
Fore
SplineSet
31 248 m 1,0,-1
 11 248 l 2,1,2
 0 251 0 251 0 259 c 0,3,4
 0 263 0 263 4 270 c 0,5,6
 11 290 11 290 33 290 c 2,7,-1
 279 291 l 1,8,-1
 279 378 l 2,9,10
 278 398 278 398 266 412.5 c 128,-1,11
 254 427 254 427 233.5 427 c 128,-1,12
 213 427 213 427 199.5 412 c 128,-1,13
 186 397 186 397 185 380.5 c 128,-1,14
 184 364 184 364 177 356.5 c 128,-1,15
 170 349 170 349 159 349 c 128,-1,16
 148 349 148 349 141 357 c 128,-1,17
 134 365 134 365 134 377 c 0,18,19
 134 421 134 421 162.5 451.5 c 128,-1,20
 191 482 191 482 233 482 c 0,21,22
 258 481 258 481 279 469 c 1,23,24
 276 509 276 509 248 538.5 c 128,-1,25
 220 568 220 568 180.5 568 c 128,-1,26
 141 568 141 568 111 536 c 128,-1,27
 81 504 81 504 81 462 c 0,28,29
 81 450 81 450 74 442 c 128,-1,30
 67 434 67 434 56 434 c 128,-1,31
 45 434 45 434 38 442.5 c 128,-1,32
 31 451 31 451 31 462 c 0,33,34
 31 529 31 529 74 575 c 128,-1,35
 117 621 117 621 182 621 c 0,36,37
 220 621 220 621 252.5 602.5 c 128,-1,38
 285 584 285 584 306 552 c 1,39,40
 327 584 327 584 360 602.5 c 128,-1,41
 393 621 393 621 431 621 c 0,42,43
 494 621 494 621 539 574.5 c 128,-1,44
 584 528 584 528 584 462 c 0,45,46
 584 450 584 450 575.5 442 c 128,-1,47
 567 434 567 434 556.5 434 c 128,-1,48
 546 434 546 434 538.5 442.5 c 128,-1,49
 531 451 531 451 531 462 c 0,50,51
 531 505 531 505 501.5 536.5 c 128,-1,52
 472 568 472 568 432.5 568 c 128,-1,53
 393 568 393 568 365 539 c 128,-1,54
 337 510 337 510 333 469 c 1,55,56
 353 482 353 482 377 482 c 0,57,58
 379 482 379 482 380 482 c 0,59,60
 421 482 421 482 450 451 c 128,-1,61
 479 420 479 420 479 377 c 0,62,63
 479 364 479 364 471 356.5 c 128,-1,64
 463 349 463 349 453 349 c 128,-1,65
 443 349 443 349 435 357 c 128,-1,66
 427 365 427 365 427 381 c 128,-1,67
 427 397 427 397 413.5 412 c 128,-1,68
 400 427 400 427 379.5 427 c 128,-1,69
 359 427 359 427 346 412 c 128,-1,70
 333 397 333 397 332 377 c 2,71,-1
 332 291 l 1,72,-1
 575 291 l 2,73,74
 582 291 582 291 589 286 c 0,75,76
 605 278 605 278 607 262 c 0,77,78
 607 248 607 248 591 248 c 0,79,80
 589 248 589 248 582 248 c 0,81,82
 575 249 575 249 569 250 c 0,83,84
 562 248 562 248 558 248 c 0,85,86
 554 249 554 249 548 247 c 0,87,88
 543 245 543 245 537 243 c 0,89,90
 511 233 511 233 500.5 204.5 c 128,-1,91
 490 176 490 176 472 160.5 c 128,-1,92
 454 145 454 145 433.5 140.5 c 128,-1,93
 413 136 413 136 394 132.5 c 128,-1,94
 375 129 375 129 360.5 125.5 c 128,-1,95
 346 122 346 122 344 112 c 0,96,97
 341 100 341 100 339 92 c 0,98,99
 335 67 335 67 347 53 c 128,-1,100
 359 39 359 39 402 39 c 0,101,102
 409 39 409 39 418 32.5 c 128,-1,103
 427 26 427 26 427 11 c 2,104,-1
 427 1 l 1,105,-1
 182 1 l 1,106,-1
 184 14 l 2,107,108
 186 39 186 39 215 39 c 0,109,110
 269 41 269 41 270 77 c 0,111,112
 270 90 270 90 265 112 c 0,113,114
 262 121 262 121 248 125 c 128,-1,115
 234 129 234 129 214.5 132.5 c 128,-1,116
 195 136 195 136 175 140.5 c 128,-1,117
 155 145 155 145 136 160.5 c 128,-1,118
 117 176 117 176 112 193 c 128,-1,119
 107 210 107 210 103 217 c 128,-1,120
 99 224 99 224 94 228.5 c 128,-1,121
 89 233 89 233 83.5 236.5 c 128,-1,122
 78 240 78 240 72.5 242.5 c 128,-1,123
 67 245 67 245 62 246 c 0,124,125
 53 249 53 249 40 248 c 2,126,-1
 31 248 l 1,0,-1
EndSplineSet
Validated: 1
EndChar

StartChar: library
Encoding: 57364 57364 51
Width: 688
VWidth: 828
Flags: W
HStem: 17 62<60.3809 285.038 411.447 628> 107 59<402.251 463.189> 124 62<213.512 284.78 574.063 603.472> 149 60<74.2515 141.875> 229 61<213.512 284.78 573.007 605.102> 253 60<74.2515 143.787> 316 60<405.22 466.592> 328 60<212.006 281.749> 340 60<538.005 605.749> 352 59<77.2205 143.995> 465 61<60 281.641 413.688 628>
VStem: 0 60<79 465> 312 62<49 437.675> 628 60<83.5586 471>
LayerCount: 2
Fore
SplineSet
574 190 m 2,0,1
 576 192 576 192 581 191.5 c 128,-1,2
 586 191 586 191 595 183.5 c 128,-1,3
 604 176 604 176 606 164.5 c 128,-1,4
 608 153 608 153 601 141.5 c 128,-1,5
 594 130 594 130 582 129 c 2,6,-1
 426 107 l 1,7,-1
 422 107 l 2,8,9
 410 107 410 107 402 114 c 128,-1,10
 394 121 394 121 392 133.5 c 128,-1,11
 390 146 390 146 398 156 c 0,12,13
 406 164 406 164 416 166 c 2,14,-1
 574 190 l 2,0,1
81 201.5 m 128,-1,16
 90 209 90 209 96 209 c 2,17,-1
 102 209 l 1,18,-1
 264 186 l 2,19,20
 278 184 278 184 285 173.5 c 128,-1,21
 292 163 292 163 290 151.5 c 128,-1,22
 288 140 288 140 279 132 c 128,-1,23
 270 124 270 124 264 124 c 2,24,-1
 256 124 l 1,25,-1
 96 149 l 2,26,27
 82 151 82 151 74 161 c 128,-1,28
 66 171 66 171 70 184 c 0,29,15
 72 194 72 194 81 201.5 c 128,-1,16
576 295 m 1,30,-1
 584 295 l 2,31,32
 590 295 590 295 598 288.5 c 128,-1,33
 606 282 606 282 608 270 c 128,-1,34
 610 258 610 258 603 248 c 128,-1,35
 596 238 596 238 584 235 c 2,36,-1
 424 212 l 2,37,38
 420 210 420 210 413 210.5 c 128,-1,39
 406 211 406 211 398 219 c 128,-1,40
 390 227 390 227 388 237.5 c 128,-1,41
 386 248 386 248 394 259 c 128,-1,42
 402 270 402 270 414 272 c 2,43,-1
 576 295 l 1,30,-1
81 305 m 128,-1,45
 90 313 90 313 96 313 c 2,46,-1
 102 313 l 1,47,-1
 264 290 l 2,48,49
 278 287 278 287 285 276.5 c 128,-1,50
 292 266 292 266 290 255 c 128,-1,51
 288 244 288 244 279 236.5 c 128,-1,52
 270 229 270 229 264 229 c 2,53,-1
 256 229 l 1,54,-1
 96 253 l 2,55,56
 82 255 82 255 74 265 c 128,-1,57
 66 275 66 275 69 286 c 128,-1,44
 72 297 72 297 81 305 c 128,-1,45
576 400 m 1,58,-1
 584 400 l 2,59,60
 590 400 590 400 598 392.5 c 128,-1,61
 606 385 606 385 610 373 c 128,-1,62
 614 361 614 361 606 351.5 c 128,-1,63
 598 342 598 342 584 340 c 2,64,-1
 430 316 l 1,65,-1
 424 316 l 2,66,67
 412 316 412 316 405 323 c 128,-1,68
 398 330 398 330 396 342 c 128,-1,69
 394 354 394 354 401 364 c 128,-1,70
 408 374 408 374 420 376 c 2,71,-1
 576 400 l 1,58,-1
83 404 m 128,-1,73
 92 411 92 411 98 411 c 2,74,-1
 106 411 l 1,75,-1
 260 388 l 2,76,77
 274 385 274 385 282 375.5 c 128,-1,78
 290 366 290 366 288 354 c 128,-1,79
 286 342 286 342 277 335 c 128,-1,80
 268 328 268 328 260 328 c 2,81,-1
 252 328 l 1,82,-1
 98 352 l 2,83,84
 84 354 84 354 77 364 c 128,-1,85
 70 374 70 374 72 385.5 c 128,-1,72
 74 397 74 397 83 404 c 128,-1,73
74 79 m 1,86,87
 242 75 242 75 312 49 c 1,88,-1
 312 428 l 1,89,90
 262 465 262 465 86 465 c 2,91,-1
 60 465 l 1,92,-1
 60 79 l 1,93,-1
 74 79 l 1,86,87
628 471 m 1,94,95
 549 469 549 469 476.5 458 c 128,-1,96
 404 447 404 447 374 427 c 1,97,-1
 374 46 l 1,98,99
 448 74 448 74 628 85 c 1,100,-1
 628 471 l 1,94,95
344 482 m 1,101,102
 438 532 438 532 644 532 c 2,103,-1
 656 532 l 2,104,105
 668 532 668 532 678 523 c 0,106,107
 687 513 687 513 688 501 c 2,108,-1
 688 56 l 2,109,110
 688 44 688 44 680 36 c 128,-1,111
 672 28 672 28 663 27 c 128,-1,112
 654 26 654 26 632 24 c 0,113,114
 398 10 398 10 356 -32 c 0,115,116
 350 -34 350 -34 344 -34 c 2,117,-1
 342 -34 l 2,118,119
 328 -34 328 -34 318 -22 c 0,120,121
 278 14 278 14 72 17 c 0,122,123
 39 17 39 17 27.5 19 c 128,-1,124
 16 21 16 21 8 30 c 128,-1,125
 0 39 0 39 0 50 c 2,126,-1
 0 496 l 2,127,128
 0 524 0 524 38 526 c 0,129,130
 58 527 58 527 86 527 c 0,131,132
 278 528 278 528 344 482 c 1,101,102
EndSplineSet
Validated: 1
EndChar

StartChar: rocks
Encoding: 57365 57365 52
Width: 676
VWidth: 828
Flags: W
HStem: 4 99<136.564 535.747>
LayerCount: 2
Fore
SplineSet
508 103 m 2,0,1
 528 103 528 103 536 112.5 c 128,-1,2
 544 122 544 122 544 130.5 c 128,-1,3
 544 139 544 139 544 144 c 2,4,-1
 524 229 l 2,5,6
 520 246 520 246 506 250 c 0,7,8
 503 251 503 251 497.5 251 c 128,-1,9
 492 251 492 251 482 239 c 2,10,-1
 464 223 l 2,11,12
 454 213 454 213 447 213.5 c 128,-1,13
 440 214 440 214 436 214 c 0,14,15
 422 218 422 218 416 232 c 2,16,-1
 394 290 l 2,17,18
 388 307 388 307 378 306 c 128,-1,19
 368 305 368 305 360 291 c 2,20,-1
 324 204 l 2,21,22
 318 189 318 189 307 189.5 c 128,-1,23
 296 190 296 190 288 204 c 2,24,-1
 226 337 l 2,25,26
 218 354 218 354 210 353 c 0,27,28
 200 351 200 351 196 336 c 2,29,-1
 138 144 l 2,30,31
 136 139 136 139 136 130 c 128,-1,32
 136 121 136 121 144 113 c 0,33,34
 154 101 154 101 172 103 c 2,35,-1
 508 103 l 2,0,1
674 45 m 2,36,37
 675 41 675 41 675.5 31.5 c 128,-1,38
 676 22 676 22 667 13 c 128,-1,39
 658 4 658 4 640 4 c 2,40,-1
 36 4 l 2,41,42
 18 4 18 4 9 14 c 128,-1,43
 0 24 0 24 0 31.5 c 128,-1,44
 0 39 0 39 2 45 c 2,45,-1
 174 625 l 2,46,47
 178 642 178 642 187 643 c 128,-1,48
 196 644 196 644 204 626 c 2,49,-1
 286 454 l 2,50,51
 292 439 292 439 302 437 c 0,52,53
 314 436 314 436 320 454 c 2,54,-1
 366 554 l 2,55,56
 372 571 372 571 382 571 c 128,-1,57
 392 571 392 571 398 554 c 2,58,-1
 456 412 l 2,59,60
 464 392 464 392 478 392 c 0,61,62
 494 392 494 392 504 401 c 2,63,-1
 540 436 l 2,64,65
 550 446 550 446 556 447 c 2,66,-1
 564 447 l 1,67,68
 576 443 576 443 580 427 c 2,69,-1
 674 45 l 2,36,37
EndSplineSet
Validated: 1
EndChar

StartChar: cemetery
Encoding: 57366 57366 53
Width: 510
VWidth: 828
Flags: W
HStem: 4 168<174.002 339.998> 4 133<65.157 97.7891 419.641 451.67> 4 74<8.25049 50.718 459.22 502.78> 215 62<174.001 339.998> 318 62<158.704 354.843> 422 71<217.62 284.38> 598 45<219.956 281.993>
VStem: 292 146<498.756 582.53>
LayerCount: 2
Fore
SplineSet
364 380 m 2,0,1
 372 380 372 380 379 386 c 128,-1,2
 386 392 386 392 386 401 c 128,-1,3
 386 410 386 410 379 416 c 128,-1,4
 372 422 372 422 364 422 c 2,5,-1
 150 422 l 2,6,7
 142 422 142 422 136 416 c 128,-1,8
 130 410 130 410 130 401 c 128,-1,9
 130 392 130 392 136 386 c 128,-1,10
 142 380 142 380 150 380 c 2,11,-1
 364 380 l 2,0,1
340 277 m 2,12,13
 348 277 348 277 354 283 c 128,-1,14
 360 289 360 289 360 297.5 c 128,-1,15
 360 306 360 306 355 312 c 128,-1,16
 350 318 350 318 340 318 c 2,17,-1
 174 318 l 2,18,19
 165 318 165 318 158.5 312 c 128,-1,20
 152 306 152 306 152 297.5 c 128,-1,21
 152 289 152 289 159 283 c 128,-1,22
 166 277 166 277 174 277 c 2,23,-1
 340 277 l 2,12,13
318 172 m 2,24,25
 327 172 327 172 333.5 178.5 c 128,-1,26
 340 185 340 185 340 193.5 c 128,-1,27
 340 202 340 202 333 208.5 c 128,-1,28
 326 215 326 215 318 215 c 2,29,-1
 194 215 l 2,30,31
 186 215 186 215 180 208.5 c 128,-1,32
 174 202 174 202 174 193.5 c 128,-1,33
 174 185 174 185 181 178.5 c 128,-1,34
 188 172 188 172 194 172 c 2,35,-1
 318 172 l 2,24,25
251 598 m 128,-1,37
 234 598 234 598 222 583 c 128,-1,38
 210 568 210 568 210 546 c 128,-1,39
 210 524 210 524 222 508.5 c 128,-1,40
 234 493 234 493 251 493 c 128,-1,41
 268 493 268 493 280 508.5 c 128,-1,42
 292 524 292 524 292 546 c 128,-1,43
 292 568 292 568 280 583 c 128,-1,36
 268 598 268 598 251 598 c 128,-1,37
484 78 m 2,44,45
 496 78 496 78 503 70 c 128,-1,46
 510 62 510 62 510 51 c 2,47,-1
 510 32 l 2,48,49
 510 20 510 20 502 12 c 128,-1,50
 494 4 494 4 484 4 c 2,51,-1
 26 4 l 2,52,53
 14 4 14 4 7 12 c 0,54,55
 0 22 0 22 0 32 c 2,56,-1
 0 51 l 2,57,58
 0 63 0 63 8 71 c 128,-1,59
 16 79 16 79 26 78 c 2,60,-1
 30 78 l 2,61,62
 42 78 42 78 51 86 c 128,-1,63
 60 94 60 94 60 106 c 2,64,-1
 60 110 l 2,65,66
 60 122 60 122 65 129.5 c 128,-1,67
 70 137 70 137 78 137 c 128,-1,68
 86 137 86 137 92 145 c 128,-1,69
 98 153 98 153 98 163 c 2,70,-1
 76 568 l 2,71,72
 75 580 75 580 82.5 588 c 128,-1,73
 90 596 90 596 102 596 c 2,74,-1
 104 596 l 2,75,76
 134 596 134 596 150 609 c 0,77,78
 167 623 167 623 195.5 633 c 128,-1,79
 224 643 224 643 251 643 c 128,-1,80
 278 643 278 643 302 634.5 c 128,-1,81
 326 626 326 626 338 618 c 2,82,-1
 350 611 l 2,83,84
 372 595 372 595 400 596 c 2,85,-1
 412 596 l 2,86,87
 422 596 422 596 430 586 c 0,88,89
 438 577 438 577 438 568 c 2,90,-1
 416 163 l 2,91,92
 415 151 415 151 419.5 144 c 128,-1,93
 424 137 424 137 432 137 c 128,-1,94
 440 137 440 137 446 128.5 c 128,-1,95
 452 120 452 120 452 110 c 2,96,-1
 452 106 l 2,97,98
 452 94 452 94 459 86.5 c 128,-1,99
 466 79 466 79 478 78 c 2,100,-1
 484 78 l 2,44,45
EndSplineSet
Validated: 1
EndChar

StartChar: pub
Encoding: 57367 57367 54
Width: 570
VWidth: 828
Flags: W
HStem: 4 82<94.635 147.367 202.635 255.367 308.635 363.288> 86 72<412 497.472> 351 73<412 491.812> 423 49<94.8755 147.436 202.635 255.436 309.486 363.365> 541 57<59.5421 130.122> 547 57<328.375 383.5> 576 56<139.078 207.561> 587 57<219.97 290.5>
VStem: 0 36<410.802 443> 16 42<444.344 538.573> 44 50<86.6328 377.521> 148 54<86.6724 422.328> 256 52<86.6724 422.251> 364 48<158 351> 376 36<472 513.595> 386 44<474.438 545.316> 498 72<158.363 346.359>
LayerCount: 2
Fore
SplineSet
498 174 m 2,0,-1
 498 336 l 2,1,2
 498 342 498 342 492 346.5 c 128,-1,3
 486 351 486 351 476 351 c 2,4,-1
 412 351 l 1,5,-1
 412 158 l 1,6,-1
 476 158 l 2,7,8
 485 158 485 158 491.5 163 c 128,-1,9
 498 168 498 168 498 174 c 2,0,-1
376 482 m 2,10,11
 377 488 377 488 381.5 494.5 c 128,-1,12
 386 501 386 501 386 514 c 128,-1,13
 386 527 386 527 376 537 c 128,-1,14
 366 547 366 547 356 547 c 128,-1,15
 346 547 346 547 344 545 c 2,16,-1
 318 536 l 1,17,-1
 314 536 l 2,18,19
 302 536 302 536 300 544 c 2,20,-1
 290 568 l 2,21,22
 280 588 280 588 258 587 c 0,23,24
 246 587 246 587 238 578 c 2,25,-1
 220 565 l 2,26,27
 216 562 216 562 212 561 c 0,28,29
 208 562 208 562 204 563 c 2,30,-1
 186 572 l 2,31,32
 179 576 179 576 165.5 575.5 c 128,-1,33
 152 575 152 575 144 560 c 2,34,-1
 132 544 l 2,35,36
 128 537 128 537 123 536.5 c 128,-1,37
 118 536 118 536 116 536 c 2,38,-1
 98 540 l 2,39,40
 94 541 94 541 92 541 c 0,41,42
 75 541 75 541 66.5 530.5 c 128,-1,43
 58 520 58 520 58 512.5 c 128,-1,44
 58 505 58 505 58 501 c 0,45,46
 58 472 58 472 40 448 c 2,47,-1
 36 443 l 2,48,49
 34 438 34 438 42 424 c 128,-1,50
 50 410 50 410 57 410 c 128,-1,51
 64 410 64 410 66 412 c 0,52,53
 68 415 68 415 76 429 c 0,54,55
 82 442 82 442 94 452 c 0,56,57
 122 472 122 472 152 472 c 0,58,59
 264 472 264 472 376 472 c 1,60,-1
 376 482 l 2,10,11
364 115 m 2,61,-1
 364 395 l 2,62,63
 364 406 364 406 355 414.5 c 128,-1,64
 346 423 346 423 336 423 c 128,-1,65
 326 423 326 423 318 414.5 c 128,-1,66
 310 406 310 406 308 395 c 2,67,-1
 308 115 l 2,68,69
 308 102 308 102 317 94 c 128,-1,70
 326 86 326 86 336 86 c 128,-1,71
 346 86 346 86 355 94.5 c 128,-1,72
 364 103 364 103 364 115 c 2,61,-1
256 115 m 2,73,-1
 256 395 l 2,74,75
 256 406 256 406 248 414.5 c 128,-1,76
 240 423 240 423 230 423 c 128,-1,77
 220 423 220 423 211 414.5 c 128,-1,78
 202 406 202 406 202 395 c 2,79,-1
 202 115 l 2,80,81
 202 102 202 102 211 94 c 128,-1,82
 220 86 220 86 230 86 c 128,-1,83
 240 86 240 86 248 94.5 c 128,-1,84
 256 103 256 103 256 115 c 2,73,-1
148 115 m 2,85,-1
 148 395 l 2,86,87
 148 406 148 406 140 414.5 c 128,-1,88
 132 423 132 423 122 423 c 128,-1,89
 112 423 112 423 103 414.5 c 128,-1,90
 94 406 94 406 94 395 c 2,91,-1
 94 115 l 2,92,93
 94 102 94 102 103 94 c 128,-1,94
 112 86 112 86 122 86 c 128,-1,95
 132 86 132 86 140 94.5 c 128,-1,96
 148 103 148 103 148 115 c 2,85,-1
476 424 m 2,97,98
 514 424 514 424 542 398 c 128,-1,99
 570 372 570 372 570 336 c 2,100,-1
 570 174 l 2,101,102
 570 137 570 137 543 111.5 c 128,-1,103
 516 86 516 86 476 86 c 2,104,-1
 412 86 l 1,105,-1
 412 4 l 1,106,-1
 44 4 l 1,107,-1
 44 367 l 1,108,109
 22 372 22 372 11 390 c 128,-1,110
 0 408 0 408 0 418.5 c 128,-1,111
 0 429 0 429 2 435 c 2,112,-1
 4 448 l 1,113,114
 16 469 16 469 16 505 c 0,115,116
 16 512 16 512 15 518 c 128,-1,117
 14 524 14 524 14 527 c 0,118,119
 13 554 13 554 36.5 576 c 128,-1,120
 60 598 60 598 92 598 c 0,121,122
 102 598 102 598 108 596 c 1,123,124
 130 633 130 633 172 632 c 0,125,126
 194 632 194 632 208 623 c 1,127,128
 230 644 230 644 256 644 c 0,129,130
 308 644 308 644 328 601 c 1,131,132
 340 605 340 605 354 604 c 0,133,134
 386 604 386 604 408 581.5 c 128,-1,135
 430 559 430 559 430 529 c 128,-1,136
 430 499 430 499 412 476 c 1,137,-1
 412 424 l 1,138,-1
 476 424 l 2,97,98
EndSplineSet
Validated: 1
EndChar

StartChar: buddhism
Encoding: 57368 57368 55
Width: 443
VWidth: 828
Flags: W
VStem: 151 140<453.218 597.562> 161 119<139.156 265.085>
LayerCount: 2
Fore
SplineSet
367 107 m 1,0,1
 362 129 362 129 351 165 c 128,-1,2
 340 201 340 201 331.5 231 c 128,-1,3
 323 261 323 261 314 289 c 1,4,5
 280 229 280 229 280 190 c 0,6,7
 279 179 279 179 283 169 c 0,8,9
 294 128 294 128 367 107 c 1,0,1
76 109 m 1,10,11
 146 125 146 125 158 167 c 0,12,13
 161 177 161 177 161 188 c 0,14,15
 161 228 161 228 126 289 c 1,16,17
 122 272 122 272 111 232.5 c 128,-1,18
 100 193 100 193 91.5 165 c 128,-1,19
 83 137 83 137 76 109 c 1,10,11
190 436 m 1,20,-1
 168 452 l 1,21,22
 151 491 151 491 151 525 c 0,23,24
 151 595 151 595 222 647 c 1,25,26
 291 594 291 594 291 525 c 0,27,28
 291 489 291 489 273 450 c 0,29,30
 271 449 271 449 262.5 446 c 128,-1,31
 254 443 254 443 252 437 c 0,32,33
 248 432 248 432 260 417 c 0,34,35
 263 414 263 414 277 410 c 0,36,37
 324 401 324 401 344.5 369.5 c 128,-1,38
 365 338 365 338 370 297 c 128,-1,39
 375 256 375 256 382 223.5 c 128,-1,40
 389 191 389 191 401 149 c 128,-1,41
 413 107 413 107 416 94 c 128,-1,42
 419 81 419 81 421 78 c 0,43,44
 443 58 443 58 443.5 43 c 128,-1,45
 444 28 444 28 434 15 c 0,46,47
 424 5 424 5 401 3 c 128,-1,48
 378 1 378 1 373 0 c 128,-1,49
 368 -1 368 -1 361 1 c 0,50,51
 221 47 221 47 78 1 c 0,52,53
 68 -2 68 -2 58 -2 c 2,54,-1
 39 -2 l 2,55,56
 14 0 14 0 4 20 c 0,57,58
 -5 37 -5 37 7.5 70.5 c 128,-1,59
 20 104 20 104 69 253 c 0,60,61
 73 268 73 268 73 291 c 0,62,63
 73 390 73 390 165 411 c 0,64,65
 171 412 171 412 179 422.5 c 128,-1,66
 187 433 187 433 190 436 c 1,20,-1
EndSplineSet
Validated: 1
EndChar

StartChar: triangle
Encoding: 57369 57369 56
Width: 584
VWidth: 828
Flags: W
HStem: 2 117<134 450>
LayerCount: 2
Fore
SplineSet
134 119 m 1,0,-1
 450 119 l 1,1,-1
 292 425 l 1,2,-1
 134 119 l 1,0,-1
576 92 m 2,3,4
 584 76 584 76 584 62 c 128,-1,5
 584 48 584 48 578 32 c 0,6,7
 566 1 566 1 538 2 c 2,8,-1
 46 2 l 2,9,10
 18 2 18 2 6 32 c 0,11,12
 2 46 2 46 0 62 c 0,13,14
 0 76 0 76 8 92 c 2,15,-1
 252 563 l 2,16,17
 266 590 266 590 292 590 c 128,-1,18
 318 590 318 590 332 563 c 2,19,-1
 576 92 l 2,3,4
EndSplineSet
Validated: 1
EndChar

StartChar: police
Encoding: 57370 57370 57
Width: 598
VWidth: 828
Flags: W
HStem: 309 112<270 353.042> 487 108<189 298.311 301.655 404.518>
VStem: 40 149<111.055 335.26> 74 115<294.006 472.225> 270 98<321.305 407.59> 450 74<294.399 443.287>
LayerCount: 2
Fore
SplineSet
368 365 m 0,0,1
 366 309 366 309 294 309 c 2,2,-1
 270 309 l 1,3,-1
 270 421 l 1,4,-1
 306 421 l 2,5,6
 339 421 339 421 353.5 408 c 128,-1,7
 368 395 368 395 368 365 c 0,0,1
450 368 m 0,8,9
 450 488 450 488 308 487 c 2,10,-1
 189 487 l 1,11,-1
 189 108 l 1,12,-1
 270 108 l 1,13,-1
 270 243 l 1,14,-1
 302 243 l 2,15,16
 372 243 372 243 411 275.5 c 128,-1,17
 450 308 450 308 450 368 c 0,8,9
72 617 m 2,18,19
 123 595 123 595 184.5 594.5 c 128,-1,20
 246 594 246 594 300 616 c 1,21,22
 353 595 353 595 401.5 594.5 c 128,-1,23
 450 594 450 594 485 603.5 c 128,-1,24
 520 613 520 613 527 617.5 c 128,-1,25
 534 622 534 622 540 624 c 1,26,-1
 598 517 l 1,27,28
 593 513 593 513 579.5 503 c 128,-1,29
 566 493 566 493 560 488 c 0,30,31
 536 470 536 470 533 451 c 128,-1,32
 530 432 530 432 527 420.5 c 128,-1,33
 524 409 524 409 524 390.5 c 128,-1,34
 524 372 524 372 542 306.5 c 128,-1,35
 560 241 560 241 560 196 c 2,36,-1
 560 191 l 2,37,38
 558 145 558 145 539 114 c 128,-1,39
 520 83 520 83 493 65 c 128,-1,40
 466 47 466 47 434 31.5 c 128,-1,41
 402 16 402 16 375 4 c 128,-1,42
 348 -8 348 -8 327 -28.5 c 128,-1,43
 306 -49 306 -49 300 -77 c 1,44,45
 295 -49 295 -49 272.5 -28.5 c 128,-1,46
 250 -8 250 -8 222 4 c 128,-1,47
 194 16 194 16 162 31.5 c 128,-1,48
 130 47 130 47 104 65 c 128,-1,49
 78 83 78 83 60 115 c 128,-1,50
 42 147 42 147 40 191 c 2,51,-1
 40 198 l 2,52,53
 40 241 40 241 54 306 c 1,54,55
 72 364 72 364 74 400 c 0,56,57
 74 450 74 450 54 470 c 0,58,59
 37 488 37 488 20.5 499.5 c 128,-1,60
 4 511 4 511 0 517 c 1,61,-1
 58 624 l 1,62,-1
 72 617 l 2,18,19
EndSplineSet
Validated: 1
EndChar

StartChar: ice_ring
Encoding: 57371 57371 58
Width: 684
VWidth: 828
Flags: W
HStem: 4 97<117 179 455 499.358> 4 46<14.4375 116.772 503.534 646.391> 4 34<226.333 404.163> 113 141<503.617 634.784> 187 77<247 358.5> 428 45<266.943 298.341> 542 45<236.121 314>
VStem: 76 189<362.75 426.086> 301 24<482.28 533.787> 452 42<89 101> 648 36<54.5625 111.439>
LayerCount: 2
Fore
SplineSet
234 508.5 m 128,-1,1
 234 495 234 495 245 484 c 128,-1,2
 256 473 256 473 268.5 473 c 128,-1,3
 281 473 281 473 291 484 c 128,-1,4
 301 495 301 495 301 508.5 c 128,-1,5
 301 522 301 522 291 532 c 128,-1,6
 281 542 281 542 268.5 542 c 128,-1,7
 256 542 256 542 245 532 c 128,-1,0
 234 522 234 522 234 508.5 c 128,-1,1
298.5 428 m 128,-1,9
 285 428 285 428 275 418 c 128,-1,10
 265 408 265 408 265 394.5 c 128,-1,11
 265 381 265 381 275 370.5 c 128,-1,12
 285 360 285 360 298.5 360 c 128,-1,13
 312 360 312 360 322 370.5 c 128,-1,14
 332 381 332 381 332 394.5 c 128,-1,15
 332 408 332 408 322 418 c 128,-1,8
 312 428 312 428 298.5 428 c 128,-1,9
324 297.5 m 128,-1,17
 324 284 324 284 334 274 c 128,-1,18
 344 264 344 264 358.5 264 c 128,-1,19
 373 264 373 264 382 274 c 128,-1,20
 391 284 391 284 391 297.5 c 128,-1,21
 391 311 391 311 382 320.5 c 128,-1,22
 373 330 373 330 358.5 330 c 128,-1,23
 344 330 344 330 334 320.5 c 128,-1,16
 324 311 324 311 324 297.5 c 128,-1,17
60 115 m 2,24,25
 58 118 58 118 56 130 c 0,26,27
 52 154 52 154 52.5 195 c 128,-1,28
 53 236 53 236 56 270 c 0,29,30
 60 317 60 317 66 348 c 128,-1,31
 72 379 72 379 75 398 c 0,32,33
 78 418 78 418 76 446 c 2,34,-1
 76 466 l 2,35,36
 76 516 76 516 166 554 c 0,37,38
 243 587 243 587 301 587 c 0,39,40
 327 586 327 586 325 578 c 0,41,42
 329 420 329 420 416 336 c 0,43,44
 472 280 472 280 551 258 c 0,45,46
 567 254 567 254 578 254 c 0,47,48
 639 250 639 250 661 195 c 0,49,50
 669 174 669 174 668.5 160 c 128,-1,51
 668 146 668 146 662 134 c 0,52,53
 656 124 656 124 647 122 c 0,54,55
 568 113 568 113 510 113 c 0,56,57
 407 113 407 113 360 140 c 0,58,59
 340 153 340 153 330 162 c 0,60,61
 303 188 303 188 247 187 c 0,62,63
 239 186 239 186 234 169.5 c 128,-1,64
 229 153 229 153 229 144 c 2,65,-1
 229 113 l 1,66,-1
 60 115 l 2,24,25
638 12 m 0,67,68
 607 4 607 4 540 4 c 2,69,-1
 0 4 l 1,70,71
 7 20 7 20 21 35.5 c 128,-1,72
 35 51 35 51 49 50 c 0,73,74
 53 50 53 50 65 50 c 0,75,76
 110 50 110 50 117 58 c 0,77,78
 120 62 120 62 114 73.5 c 128,-1,79
 108 85 108 85 99 91 c 2,80,-1
 89 100 l 1,81,-1
 179 101 l 1,82,83
 179 77 179 77 218.5 58 c 128,-1,84
 258 39 258 39 346 38 c 2,85,-1
 351 38 l 1,86,-1
 440 50 l 2,87,88
 452 54 452 54 455 67 c 128,-1,89
 458 80 458 80 454 89 c 2,90,-1
 452 101 l 1,91,-1
 494 101 l 1,92,93
 493 88 493 88 501 76 c 0,94,95
 517 48 517 48 538.5 45.5 c 128,-1,96
 560 43 560 43 578 43 c 0,97,98
 632 44 632 44 645 67 c 0,99,100
 649 74 649 74 648.5 84 c 128,-1,101
 648 94 648 94 638 112 c 1,102,-1
 668 116 l 1,103,104
 684 98 684 98 684 79 c 0,105,106
 685 25 685 25 638 12 c 0,67,68
EndSplineSet
Validated: 1
EndChar

StartChar: marina
Encoding: 57372 57372 59
Width: 602
VWidth: 828
Flags: W
HStem: 382 57<436.125 453.875> 397 27<156.814 267.125 326.813 435.187> 604 45<260.156 339.563>
VStem: 208 44<515.724 595.888> 276 42<174.303 389.637> 348 44<516.732 595.079>
LayerCount: 2
Fore
SplineSet
299 508 m 128,-1,1
 318 508 318 508 333 522 c 128,-1,2
 348 536 348 536 348 555.5 c 128,-1,3
 348 575 348 575 333 589.5 c 128,-1,4
 318 604 318 604 299 604 c 128,-1,5
 280 604 280 604 266 589.5 c 128,-1,6
 252 575 252 575 252 555.5 c 128,-1,7
 252 536 252 536 266 522 c 128,-1,0
 280 508 280 508 299 508 c 128,-1,1
318 352 m 0,8,9
 320 226 320 226 352 126 c 1,10,11
 358 126 358 126 366 126 c 0,12,13
 447 126 447 126 502.5 152.5 c 128,-1,14
 558 179 558 179 562 220 c 1,15,-1
 528 217 l 1,16,-1
 602 278 l 1,17,18
 602 228 602 228 586 185 c 0,19,20
 558 105 558 105 506 81 c 0,21,22
 484 71 484 71 456 60 c 0,23,24
 408 40 408 40 374 18 c 0,25,26
 338 -4 338 -4 300 -57 c 1,27,28
 267 -6 267 -6 227.5 18 c 128,-1,29
 188 42 188 42 151 56.5 c 128,-1,30
 114 71 114 71 92 81.5 c 128,-1,31
 70 92 70 92 51 117 c 128,-1,32
 32 142 32 142 16 186.5 c 128,-1,33
 0 231 0 231 0 278 c 1,34,-1
 70 217 l 1,35,-1
 40 220 l 1,36,37
 44 180 44 180 97 153 c 128,-1,38
 150 126 150 126 230 126 c 0,39,40
 240 126 240 126 250 126 c 1,41,42
 278 207 278 207 276 320 c 0,43,44
 276 353 276 353 274 385 c 1,45,46
 247 397 247 397 214.5 397 c 128,-1,47
 182 397 182 397 156 394 c 1,48,49
 152 381 152 381 147 381.5 c 128,-1,50
 142 382 142 382 138 390 c 128,-1,51
 134 398 134 398 134 410.5 c 128,-1,52
 134 423 134 423 138 431 c 128,-1,53
 142 439 142 439 148 439 c 0,54,55
 152 440 152 440 156 428 c 1,56,57
 182 424 182 424 211 424 c 128,-1,58
 240 424 240 424 268 432 c 1,59,60
 264 462 264 462 252 476 c 1,61,62
 231 489 231 489 219.5 510.5 c 128,-1,63
 208 532 208 532 208 555 c 0,64,65
 208 593 208 593 234 621 c 128,-1,66
 260 649 260 649 300 649 c 128,-1,67
 340 649 340 649 366 621 c 128,-1,68
 392 593 392 593 392 562 c 0,69,70
 392 499 392 499 346 473 c 1,71,72
 334 461 334 461 326 433 c 1,73,74
 352 425 352 425 381 425.5 c 128,-1,75
 410 426 410 426 436 428 c 1,76,77
 440 440 440 440 444 439 c 0,78,79
 448 439 448 439 452 431 c 128,-1,80
 456 423 456 423 456 410.5 c 128,-1,81
 456 398 456 398 454 391 c 0,82,83
 450 382 450 382 444 382 c 0,84,85
 440 383 440 383 436 394 c 1,86,87
 415 396 415 396 381.5 395.5 c 128,-1,88
 348 395 348 395 318 383 c 1,89,90
 318 367 318 367 318 352 c 0,8,9
EndSplineSet
Validated: 1
EndChar

StartChar: playground
Encoding: 57373 57373 60
Width: 644
VWidth: 828
Flags: W
HStem: 4 74<523.125 637.054> 41 45<52.2512 163.749> 121 43<52.2512 171.998> 202 43<44.002 171.998> 213 109<238 297.188> 270 55<70.4703 143.014> 432 51<70.4703 143.014>
VStem: 1 54<340.986 415.499> 1 43<9.15698 35.3275 90.157 115.843 164.586 201.414> 159 52<340.986 415.499> 172 39<9.15698 40.0211 90.6415 120.11 164.99 200.932>
LayerCount: 2
Fore
SplineSet
206 537 m 2,0,1
 215 525 215 525 211.5 517.5 c 128,-1,2
 208 510 208 510 195 510 c 2,3,-1
 19 510 l 2,4,5
 5 510 5 510 1 518.5 c 128,-1,6
 -3 527 -3 527 6 537 c 2,7,-1
 85 641 l 2,8,9
 94 653 94 653 106.5 652.5 c 128,-1,10
 119 652 119 652 128 641 c 2,11,-1
 206 537 l 2,0,1
643 4 m 0,12,13
 639 4 639 4 634 4 c 0,14,15
 518 4 518 4 455.5 38.5 c 128,-1,16
 393 73 393 73 357 122 c 0,17,18
 341 144 341 144 325 165 c 0,19,20
 289 208 289 208 238 213 c 1,21,-1
 238 322 l 1,22,23
 314 320 314 320 366 271 c 0,24,25
 389 249 389 249 409 223 c 0,26,27
 465 149 465 149 494 122 c 0,28,29
 541 76 541 76 611 78 c 0,30,31
 615 78 615 78 616 78 c 0,32,33
 629 78 629 78 636 59 c 128,-1,34
 643 40 643 40 643.5 24 c 128,-1,35
 644 8 644 8 643 4 c 0,12,13
106.5 325 m 128,-1,37
 128 325 128 325 143.5 340.5 c 128,-1,38
 159 356 159 356 159 378 c 128,-1,39
 159 400 159 400 143.5 416 c 128,-1,40
 128 432 128 432 106.5 432 c 128,-1,41
 85 432 85 432 70 416 c 128,-1,42
 55 400 55 400 55 378 c 128,-1,43
 55 356 55 356 70 340.5 c 128,-1,36
 85 325 85 325 106.5 325 c 128,-1,37
182 483 m 2,44,45
 195 483 195 483 204 473 c 0,46,47
 211 464 211 464 211 452 c 2,48,-1
 211 302 l 2,49,50
 211 289 211 289 203 279.5 c 128,-1,51
 195 270 195 270 182 270 c 2,52,-1
 29 270 l 2,53,54
 16 270 16 270 8.5 280 c 128,-1,55
 1 290 1 290 1 302 c 2,56,-1
 1 452 l 2,57,58
 1 465 1 465 10 474 c 128,-1,59
 19 483 19 483 29 483 c 2,60,-1
 182 483 l 2,44,45
143 164 m 2,61,62
 156 164 156 164 164 170 c 128,-1,63
 172 176 172 176 172 183 c 128,-1,64
 172 190 172 190 163.5 196 c 128,-1,65
 155 202 155 202 143 202 c 2,66,-1
 73 202 l 2,67,68
 60 202 60 202 52 196 c 128,-1,69
 44 190 44 190 44 183 c 128,-1,70
 44 176 44 176 52 170 c 128,-1,71
 60 164 60 164 73 164 c 2,72,-1
 143 164 l 2,61,62
143 86 m 2,73,74
 156 86 156 86 164 90.5 c 128,-1,75
 172 95 172 95 172 103 c 128,-1,76
 172 111 172 111 163.5 116 c 128,-1,77
 155 121 155 121 143 121 c 2,78,-1
 73 121 l 2,79,80
 60 121 60 121 52 116 c 128,-1,81
 44 111 44 111 44 103 c 128,-1,82
 44 95 44 95 52 90 c 0,83,84
 60 86 60 86 73 86 c 2,85,-1
 143 86 l 2,73,74
182 245 m 2,86,87
 213 245 213 245 211 238 c 2,88,-1
 211 22 l 2,89,90
 211 14 211 14 205.5 9 c 128,-1,91
 200 4 200 4 192 4 c 128,-1,92
 184 4 184 4 178 9 c 128,-1,93
 172 14 172 14 172 22 c 128,-1,94
 172 30 172 30 163.5 35.5 c 128,-1,95
 155 41 155 41 143 41 c 2,96,-1
 73 41 l 2,97,98
 60 41 60 41 52 35.5 c 128,-1,99
 44 30 44 30 44 22 c 128,-1,100
 44 14 44 14 36.5 9 c 128,-1,101
 29 4 29 4 21 4 c 128,-1,102
 13 4 13 4 7 9 c 128,-1,103
 1 14 1 14 1 22 c 2,104,-1
 1 244 l 2,105,106
 1 245 1 245 29 245 c 2,107,-1
 182 245 l 2,86,87
EndSplineSet
Validated: 1
EndChar

StartChar: ruins
Encoding: 57374 57374 61
Width: 686
VWidth: 828
Flags: W
HStem: 2 93<160.282 215.749> 2 73<610.987 676.718> 2 33<538.276 565.166> 236 66<164.19 211.81> 440 90<164.16 205.126>
VStem: 0 52<534.002 600.42> 0 44<537.783 600.569> 45 106<104.282 225.124 310.767 431.063> 104 54<533.227 594.296> 210 55<531.11 594.296> 224 99<104.798 153.268 353.809 431.124> 423 54<284.127 353.61>
LayerCount: 2
Fore
SplineSet
553 35 m 0,0,1
 559 35 559 35 564.5 49.5 c 128,-1,2
 570 64 570 64 570 78 c 128,-1,3
 570 92 570 92 562 104.5 c 128,-1,4
 554 117 554 117 542 118.5 c 128,-1,5
 530 120 530 120 522 111 c 2,6,-1
 515 105 l 2,7,8
 505 97 505 97 506 86.5 c 128,-1,9
 507 76 507 76 515 70 c 0,10,11
 537 57 537 57 546 40 c 0,12,13
 549 35 549 35 553 35 c 0,0,1
224 332 m 2,14,-1
 224 373 l 2,15,16
 223 404 223 404 213 432 c 0,17,18
 208 441 208 441 188.5 440.5 c 128,-1,19
 169 440 169 440 164 432 c 0,20,21
 151 402 151 402 151 373 c 2,22,-1
 151 332 l 2,23,24
 151 319 151 319 160 310.5 c 128,-1,25
 169 302 169 302 183 302 c 2,26,-1
 195 302 l 2,27,28
 208 302 208 302 216 310.5 c 128,-1,29
 224 319 224 319 224 332 c 2,14,-1
224 127 m 2,30,-1
 224 167 l 2,31,32
 223 203 223 203 212 229 c 0,33,34
 206 236 206 236 188 236 c 2,35,-1
 187 236 l 2,36,37
 170 236 170 236 164 226 c 0,38,39
 151 198 151 198 151 167 c 2,40,-1
 151 127 l 2,41,42
 151 113 151 113 160 104 c 128,-1,43
 169 95 169 95 183 95 c 2,44,-1
 195 95 l 2,45,46
 208 95 208 95 216 104.5 c 128,-1,47
 224 114 224 114 224 127 c 2,30,-1
423 329 m 0,48,49
 423 353 423 353 434 354 c 2,50,-1
 452 354 l 2,51,52
 461 354 461 354 469 336.5 c 128,-1,53
 477 319 477 319 477 308.5 c 128,-1,54
 477 298 477 298 486 290 c 128,-1,55
 495 282 495 282 502 282 c 0,56,57
 514 282 514 282 512 271.5 c 128,-1,58
 510 261 510 261 508 229 c 2,59,-1
 507 220 l 2,60,61
 506 207 506 207 515 201 c 128,-1,62
 524 195 524 195 534 200 c 2,63,-1
 577 215 l 2,64,65
 590 219 590 219 600.5 213 c 128,-1,66
 611 207 611 207 611 194 c 128,-1,67
 611 181 611 181 598 141 c 1,68,69
 600 125 600 125 609.5 100.5 c 128,-1,70
 619 76 619 76 629 75 c 0,71,72
 638 75 638 75 648 80 c 0,73,74
 677 97 677 97 680 84 c 2,75,-1
 680 79 l 1,76,-1
 686 50 l 1,77,-1
 686 26 l 2,78,79
 686 15 686 15 677 8.5 c 128,-1,80
 668 2 668 2 655 2 c 2,81,-1
 477 2 l 1,82,83
 477 7 477 7 477 13 c 0,84,85
 477 107 477 107 453 133 c 0,86,87
 431 155 431 155 398 163 c 0,88,89
 368 170 368 170 344 154 c 1,90,91
 322 131 322 131 321 53 c 0,92,93
 321 30 321 30 323 2 c 1,94,-1
 75 2 l 2,95,96
 44 2 44 2 45 6 c 2,97,-1
 45 376 l 2,98,99
 45 389 45 389 39 405 c 0,100,101
 35 421 35 421 26 431 c 2,102,-1
 19 440 l 1,103,104
 1 470 1 470 0 497 c 2,105,-1
 0 570 l 2,106,107
 0 583 0 583 8 592 c 128,-1,108
 16 601 16 601 26 601 c 128,-1,109
 36 601 36 601 44 584.5 c 128,-1,110
 52 568 52 568 52 556.5 c 128,-1,111
 52 545 52 545 65.5 538 c 128,-1,112
 79 531 79 531 85.5 532 c 128,-1,113
 92 533 92 533 98 550.5 c 128,-1,114
 104 568 104 568 104 578 c 128,-1,115
 104 588 104 588 112 594.5 c 128,-1,116
 120 601 120 601 131 601 c 128,-1,117
 142 601 142 601 150 584 c 128,-1,118
 158 567 158 567 158 556 c 128,-1,119
 158 545 158 545 171.5 537.5 c 128,-1,120
 185 530 185 530 192 530 c 0,121,122
 198 530 198 530 204 548.5 c 128,-1,123
 210 567 210 567 210 577.5 c 128,-1,124
 210 588 210 588 218 594.5 c 128,-1,125
 226 601 226 601 236.5 601 c 128,-1,126
 247 601 247 601 256 584.5 c 128,-1,127
 265 568 265 568 265 556.5 c 128,-1,128
 265 545 265 545 268 539.5 c 128,-1,129
 271 534 271 534 272.5 533 c 128,-1,130
 274 532 274 532 274 525 c 128,-1,131
 274 518 274 518 270 505.5 c 128,-1,132
 266 493 266 493 270.5 482 c 128,-1,133
 275 471 275 471 285 467 c 128,-1,134
 295 463 295 463 304.5 454 c 128,-1,135
 314 445 314 445 321.5 429.5 c 128,-1,136
 329 414 329 414 326 410.5 c 128,-1,137
 323 407 323 407 323 380.5 c 128,-1,138
 323 354 323 354 335 354 c 128,-1,139
 347 354 347 354 358 353 c 0,140,141
 362 353 362 353 366.5 336 c 128,-1,142
 371 319 371 319 371 308.5 c 128,-1,143
 371 298 371 298 383.5 290.5 c 128,-1,144
 396 283 396 283 404.5 284 c 128,-1,145
 413 285 413 285 418 301.5 c 128,-1,146
 423 318 423 318 423 329 c 0,48,49
EndSplineSet
Validated: 1
EndChar

StartChar: internet
Encoding: 57375 57375 62
Width: 632
VWidth: 828
Flags: W
HStem: -14 77<195.721 452.326> 141 75<251.938 352.934 469.187 524.122> 418 76<272.052 381.561> 572 76<229.485 440.629>
VStem: 0 87<174.14 421.587> 146 90<231.351 380.51> 379 85<243.371 417.613> 382 90<293.384 417.466> 548 84<240.959 460.111>
LayerCount: 2
Fore
SplineSet
379 326 m 2,0,-1
 382 415 l 1,1,2
 366 418 366 418 338 418 c 0,3,4
 290 418 290 418 263 386.5 c 128,-1,5
 236 355 236 355 236 301 c 0,6,7
 236 215 236 215 302 216 c 0,8,9
 337 216 337 216 356 242 c 128,-1,10
 375 268 375 268 379 326 c 2,0,-1
143.5 122 m 128,-1,12
 200 63 200 63 302 63 c 128,-1,13
 404 63 404 63 496 100 c 1,14,-1
 496 22 l 1,15,16
 413 -15 413 -15 312 -14 c 0,17,18
 165 -14 165 -14 82.5 67 c 128,-1,19
 0 148 0 148 0 292 c 0,20,21
 0 393 0 393 42 474.5 c 128,-1,22
 84 556 84 556 163 602 c 128,-1,23
 242 648 242 648 333.5 648 c 128,-1,24
 425 648 425 648 492 611 c 128,-1,25
 559 574 559 574 596 507 c 0,26,27
 633 439 633 439 632 352 c 0,28,29
 632 293 632 293 614 244 c 128,-1,30
 596 195 596 195 563.5 168 c 128,-1,31
 531 141 531 141 496 141 c 0,32,33
 427 141 427 141 406 194 c 1,34,-1
 400 194 l 1,35,36
 360 141 360 141 293 141 c 128,-1,37
 226 141 226 141 186 185 c 128,-1,38
 146 229 146 229 146 308 c 128,-1,39
 146 387 146 387 197 440.5 c 128,-1,40
 248 494 248 494 334 494 c 0,41,42
 364 494 364 494 405 486.5 c 128,-1,43
 446 479 446 479 472 469 c 1,44,-1
 464 273 l 2,45,46
 464 217 464 217 493 216 c 0,47,48
 517 216 517 216 532.5 254.5 c 128,-1,49
 548 293 548 293 548 355.5 c 128,-1,50
 548 418 548 418 522 468 c 128,-1,51
 496 518 496 518 449.5 545 c 128,-1,52
 403 572 403 572 333.5 572 c 128,-1,53
 264 572 264 572 205.5 537 c 128,-1,54
 147 502 147 502 117 439.5 c 128,-1,55
 87 377 87 377 87 294 c 0,56,11
 87 181 87 181 143.5 122 c 128,-1,12
EndSplineSet
Validated: 1
EndChar

StartChar: airport
Encoding: 57376 57376 63
Width: 830
VWidth: 828
Flags: W
VStem: 353 120<455.629 618.23> 377 73<84.7065 255>
LayerCount: 2
Fore
SplineSet
810 282 m 0,0,1
 846 248 846 248 816 239 c 0,2,3
 809 237 809 237 800 237.5 c 128,-1,4
 791 238 791 238 776 240 c 2,5,-1
 517 302 l 2,6,7
 510 304 510 304 498.5 303 c 128,-1,8
 487 302 487 302 472 291 c 128,-1,9
 457 280 457 280 457 256 c 2,10,-1
 450 147 l 2,11,12
 449 122 449 122 462.5 97 c 128,-1,13
 476 72 476 72 497 61 c 2,14,-1
 533 43 l 2,15,16
 586 14 586 14 586 4 c 0,17,18
 586 -4 586 -4 535 8 c 1,19,-1
 532 8 l 1,20,-1
 469 22 l 2,21,22
 455 26 455 26 435 28 c 1,23,24
 425 3 425 3 413 3 c 128,-1,25
 401 3 401 3 389 28 c 1,26,27
 368 27 368 27 356 22 c 2,28,-1
 294 8 l 2,29,30
 262 1 262 1 251 1 c 0,31,32
 240 0 240 0 240 4 c 0,33,34
 240 13 240 13 294 43 c 2,35,-1
 328 61 l 2,36,37
 349 73 349 73 363 96.5 c 128,-1,38
 377 120 377 120 377 142 c 0,39,40
 377 145 377 145 377 147 c 2,41,-1
 371 255 l 2,42,43
 369 280 369 280 354 291 c 128,-1,44
 339 302 339 302 328 302 c 128,-1,45
 317 302 317 302 310 302 c 2,46,-1
 52 240 l 2,47,48
 39 237 39 237 29 238 c 0,49,50
 -3 238 -3 238 0 255 c 0,51,52
 2 267 2 267 19 282.5 c 128,-1,53
 36 298 36 298 57 308 c 2,54,-1
 306 436 l 2,55,56
 328 448 328 448 343 468.5 c 128,-1,57
 358 489 358 489 357.5 515 c 128,-1,58
 357 541 357 541 353 553 c 1,59,-1
 353 555 l 2,60,61
 353 582 353 582 371.5 613.5 c 128,-1,62
 390 645 390 645 412.5 645 c 128,-1,63
 435 645 435 645 454 613.5 c 128,-1,64
 473 582 473 582 473 555 c 2,65,-1
 473 553 l 1,66,67
 469 529 469 529 468.5 510 c 128,-1,68
 468 491 468 491 482.5 470.5 c 128,-1,69
 497 450 497 450 521 437 c 2,70,-1
 771 308 l 2,71,72
 793 298 793 298 810 282 c 0,0,1
EndSplineSet
Validated: 1
EndChar

StartChar: chapel
Encoding: 57377 57377 64
Width: 386
VWidth: 828
Flags: W
HStem: 199 74<174.094 215.75> 342 90<174.002 209.844>
VStem: 0 130<11.251 163.328> 117 152<412 424 468 585.375> 256 130<11.251 160.906>
LayerCount: 2
Fore
SplineSet
216 283 m 2,0,-1
 216 307 l 2,1,2
 216 318 216 318 210 328 c 2,3,-1
 200 338 l 2,4,5
 196 342 196 342 192 342 c 128,-1,6
 188 342 188 342 186 338 c 2,7,-1
 177 328 l 2,8,9
 171 320 171 320 171 307 c 2,10,-1
 171 283 l 2,11,12
 171 279 171 279 174 276 c 128,-1,13
 177 273 177 273 182 273 c 2,14,-1
 204 273 l 2,15,16
 208 273 208 273 212 276 c 128,-1,17
 216 279 216 279 216 283 c 2,0,-1
367 246 m 2,18,19
 388 223 388 223 386 195 c 2,20,-1
 386 31 l 2,21,22
 386 19 386 19 377 11 c 128,-1,23
 368 3 368 3 354 3 c 2,24,-1
 289 3 l 2,25,26
 276 3 276 3 266 11.5 c 128,-1,27
 256 20 256 20 256 31 c 2,28,-1
 256 40 l 1,29,-1
 255 107 l 2,30,31
 254 138 254 138 236 158 c 2,32,-1
 212 189 l 2,33,34
 205 199 205 199 193.5 199 c 128,-1,35
 182 199 182 199 174 189 c 2,36,-1
 148 158 l 2,37,38
 130 133 130 133 130 107 c 2,39,-1
 130 40 l 1,40,-1
 129 40 l 1,41,-1
 129 31 l 2,42,43
 129 19 129 19 119.5 11 c 128,-1,44
 110 3 110 3 97 3 c 2,45,-1
 31 3 l 2,46,47
 18 3 18 3 9 11.5 c 128,-1,48
 0 20 0 20 0 31 c 2,49,-1
 0 195 l 2,50,51
 0 207 0 207 6 221.5 c 128,-1,52
 12 236 12 236 20 246 c 2,53,-1
 174 423 l 2,54,55
 182 433 182 433 194 432.5 c 128,-1,56
 206 432 206 432 213 423 c 2,57,-1
 367 246 l 2,18,19
174 458 m 2,58,-1
 138 418 l 2,59,60
 130 408 130 408 123.5 409.5 c 128,-1,61
 117 411 117 411 117 424 c 2,62,-1
 117 523 l 2,63,64
 117 554 117 554 134 577 c 2,65,-1
 177 644 l 2,66,67
 184 654 184 654 193 653 c 0,68,69
 202 654 202 654 210 644 c 2,70,-1
 253 577 l 2,71,72
 269 552 269 552 269 523 c 2,73,-1
 269 424 l 2,74,75
 269 412 269 412 263 410.5 c 128,-1,76
 257 409 257 409 249 418 c 2,77,-1
 213 458 l 2,78,79
 205 468 205 468 193.5 468 c 128,-1,80
 182 468 182 468 174 458 c 2,58,-1
EndSplineSet
Validated: 1
EndChar

StartChar: museum
Encoding: 57378 57378 65
Width: 576
VWidth: 828
Flags: W
HStem: 2 71<14.2515 563.625> 112 30<25.7227 35.9375 142 148.277 226.153 238.235 346 348.708 427.723 439.814 539.938 550.277> 356 28<26.6406 33.5977 138.074 147.934 227.301 236.075 340.719 347.934 428.641 439.141 546.001 549.417> 426 197<246.688 327.094>
VStem: 24 126<112 147.969 355.488 384> 30 112<112 155.999 156.127 355.515> 42 88<156.127 355.515> 224 126<112 384> 232 114<112 384> 246 84<148.063 355.562> 426 126<112 155.967 156.127 323.594 326.312 384> 434 112<112 155.967> 446 84<156.127 355.515>
LayerCount: 2
Fore
SplineSet
0 61 m 2,0,1
 0 71 0 71 12 73 c 2,2,-1
 564 73 l 2,3,4
 568 73 568 73 572 69.5 c 128,-1,5
 576 66 576 66 576 61 c 2,6,-1
 576 35 l 2,7,8
 576 26 576 26 570 15 c 2,9,-1
 564 6 l 1,10,11
 552 2 552 2 538 2 c 2,12,-1
 36 2 l 2,13,14
 22 2 22 2 14 6 c 2,15,-1
 6 15 l 1,16,17
 2 28 2 28 0 38 c 2,18,-1
 0 61 l 2,0,1
438 384 m 2,19,-1
 538 384 l 2,20,21
 542 384 542 384 547 380.5 c 128,-1,22
 552 377 552 377 552 372 c 2,23,-1
 552 368 l 2,24,25
 552 355 552 355 549 355.5 c 128,-1,26
 546 356 546 356 546 353 c 0,27,28
 547 348 547 348 540.5 342 c 128,-1,29
 534 336 534 336 530 326 c 1,30,-1
 530 172 l 2,31,32
 530 164 530 164 536 160 c 128,-1,33
 542 156 542 156 544 152 c 128,-1,34
 546 148 546 148 546 145 c 128,-1,35
 546 142 546 142 549 142 c 128,-1,36
 552 142 552 142 552 129 c 2,37,-1
 552 125 l 2,38,39
 552 121 552 121 548 116.5 c 128,-1,40
 544 112 544 112 538 112 c 2,41,-1
 438 112 l 2,42,43
 434 112 434 112 430 116.5 c 128,-1,44
 426 121 426 121 426 125 c 2,45,-1
 426 129 l 2,46,47
 426 142 426 142 430 142 c 128,-1,48
 434 142 434 142 434 148.5 c 128,-1,49
 434 155 434 155 440 156 c 0,50,51
 444 160 444 160 446 172 c 2,52,-1
 446 326 l 2,53,54
 446 332 446 332 442 338 c 128,-1,55
 438 344 438 344 435 347 c 128,-1,56
 432 350 432 350 433 353 c 128,-1,57
 434 356 434 356 430 356 c 128,-1,58
 426 356 426 356 426 368 c 2,59,-1
 426 372 l 2,60,61
 426 376 426 376 430 380 c 128,-1,62
 434 384 434 384 438 384 c 2,19,-1
238 384 m 2,63,-1
 338 384 l 2,64,65
 342 384 342 384 346 380.5 c 128,-1,66
 350 377 350 377 350 372 c 2,67,-1
 350 368 l 2,68,69
 350 355 350 355 348 355.5 c 128,-1,70
 346 356 346 356 346 352.5 c 128,-1,71
 346 349 346 349 338 338.5 c 128,-1,72
 330 328 330 328 330 326 c 2,73,-1
 330 172 l 2,74,75
 330 168 330 168 335 162 c 128,-1,76
 340 156 340 156 341 153 c 128,-1,77
 342 150 342 150 346 148 c 1,78,-1
 346 146 l 2,79,80
 346 142 346 142 348 142 c 128,-1,81
 350 142 350 142 350 129 c 2,82,-1
 350 125 l 2,83,84
 350 121 350 121 347 116.5 c 128,-1,85
 344 112 344 112 338 112 c 2,86,-1
 238 112 l 2,87,88
 234 112 234 112 229 116.5 c 128,-1,89
 224 121 224 121 224 125 c 2,90,-1
 224 129 l 2,91,92
 224 142 224 142 228 142 c 128,-1,93
 232 142 232 142 232 144.5 c 128,-1,94
 232 147 232 147 234 151.5 c 128,-1,95
 236 156 236 156 240 158 c 128,-1,96
 244 160 244 160 246 172 c 2,97,-1
 246 326 l 2,98,99
 246 331 246 331 240 337.5 c 128,-1,100
 234 344 234 344 233 347 c 128,-1,101
 232 350 232 350 232 353 c 128,-1,102
 232 356 232 356 228 356 c 128,-1,103
 224 356 224 356 224 368 c 2,104,-1
 224 372 l 2,105,106
 224 376 224 376 229 380 c 128,-1,107
 234 384 234 384 238 384 c 2,63,-1
36 384 m 2,108,-1
 138 384 l 2,109,110
 142 384 142 384 146 380.5 c 128,-1,111
 150 377 150 377 150 372 c 2,112,-1
 150 368 l 2,113,114
 150 355 150 355 147 355.5 c 128,-1,115
 144 356 144 356 143 352.5 c 128,-1,116
 142 349 142 349 136 338.5 c 128,-1,117
 130 328 130 328 130 326 c 2,118,-1
 130 172 l 2,119,120
 130 168 130 168 135 162 c 128,-1,121
 140 156 140 156 140 153 c 128,-1,122
 140 150 140 150 142 148 c 2,123,-1
 142 146 l 2,124,125
 142 142 142 142 146 142 c 128,-1,126
 150 142 150 142 150 129 c 2,127,-1
 150 125 l 2,128,129
 150 121 150 121 146 116.5 c 128,-1,130
 142 112 142 112 138 112 c 2,131,-1
 36 112 l 2,132,133
 32 112 32 112 28 116.5 c 128,-1,134
 24 121 24 121 24 125 c 2,135,-1
 24 129 l 2,136,137
 24 142 24 142 27 142 c 128,-1,138
 30 142 30 142 30 144.5 c 128,-1,139
 30 147 30 147 32 151.5 c 128,-1,140
 34 156 34 156 36 156 c 0,141,142
 42 160 42 160 42 172 c 2,143,-1
 42 326 l 2,144,145
 42 330 42 330 37 337 c 128,-1,146
 32 344 32 344 31 347 c 128,-1,147
 30 350 30 350 30 353 c 128,-1,148
 30 356 30 356 27 356 c 128,-1,149
 24 356 24 356 24 368 c 2,150,-1
 24 372 l 2,151,152
 24 376 24 376 28 380 c 128,-1,153
 32 384 32 384 36 384 c 2,108,-1
288 623 m 128,-1,155
 294 623 294 623 298 619 c 2,156,-1
 564 457 l 2,157,158
 574 450 574 450 570 437 c 1,159,-1
 564 430 l 1,160,161
 552 426 552 426 540 426 c 2,162,-1
 36 426 l 2,163,164
 22 426 22 426 12 430 c 1,165,-1
 6 437 l 1,166,167
 2 450 2 450 8 457 c 2,168,-1
 276 619 l 2,169,154
 282 623 282 623 288 623 c 128,-1,155
EndSplineSet
Validated: 1
EndChar

StartChar: monument
Encoding: 57379 57379 66
Width: 370
VWidth: 828
Flags: W
HStem: 3 160<104.673 271.296> 278 32<142.013 268> 344 32<116 221.875> 413 33<124 231.969> 481 31<140.126 250> 579 47<142.25 249.319>
LayerCount: 2
Fore
SplineSet
160 579 m 2,0,1
 150 580 150 580 142 572 c 0,2,3
 138 565 138 565 134 554 c 2,4,-1
 124 446 l 1,5,-1
 216 446 l 2,6,7
 222 446 222 446 227 440.5 c 128,-1,8
 232 435 232 435 232 428.5 c 128,-1,9
 232 422 232 422 227 417.5 c 128,-1,10
 222 413 222 413 216 413 c 2,11,-1
 120 413 l 1,12,-1
 116 376 l 1,13,-1
 212 376 l 2,14,15
 218 376 218 376 222 371.5 c 128,-1,16
 226 367 226 367 226 359.5 c 128,-1,17
 226 352 226 352 221 348 c 128,-1,18
 216 344 216 344 212 344 c 2,19,-1
 112 344 l 1,20,-1
 100 189 l 2,21,22
 99 178 99 178 104.5 170.5 c 128,-1,23
 110 163 110 163 122 163 c 2,24,-1
 254 163 l 2,25,26
 265 163 265 163 271.5 170.5 c 128,-1,27
 278 178 278 178 276 189 c 2,28,-1
 268 278 l 1,29,-1
 160 278 l 2,30,31
 154 278 154 278 148 282.5 c 128,-1,32
 142 287 142 287 142 294.5 c 128,-1,33
 142 302 142 302 148 306 c 128,-1,34
 154 310 154 310 160 310 c 2,35,-1
 268 310 l 1,36,-1
 254 481 l 1,37,-1
 152 481 l 2,38,39
 146 481 146 481 141 485.5 c 128,-1,40
 136 490 136 490 136 496 c 128,-1,41
 136 502 136 502 140 507 c 128,-1,42
 144 512 144 512 152 512 c 2,43,-1
 250 512 l 1,44,-1
 250 554 l 2,45,46
 248 564 248 564 240 572 c 128,-1,47
 232 580 232 580 222 579 c 2,48,-1
 160 579 l 2,0,1
370 94 m 2,49,-1
 370 27 l 2,50,51
 370 16 370 16 363 9.5 c 128,-1,52
 356 3 356 3 346 3 c 2,53,-1
 24 3 l 2,54,55
 14 3 14 3 7 10 c 128,-1,56
 0 17 0 17 0 27 c 2,57,-1
 0 86 l 2,58,59
 0 89 0 89 0 93 c 2,60,-1
 0 94 l 2,61,62
 0 112 0 112 11 127.5 c 128,-1,63
 22 143 22 143 40 148 c 1,64,-1
 94 603 l 2,65,66
 96 614 96 614 103 620 c 128,-1,67
 110 626 110 626 122 626 c 2,68,-1
 258 626 l 2,69,70
 269 626 269 626 277.5 619.5 c 128,-1,71
 286 613 286 613 286 603 c 2,72,-1
 332 147 l 1,73,74
 349 143 349 143 359.5 127.5 c 128,-1,75
 370 112 370 112 370 94 c 2,49,-1
EndSplineSet
Validated: 1
EndChar

StartChar: sport_centre
Encoding: 57380 57380 67
Width: 680
VWidth: 828
Flags: W
HStem: -40 100<236.506 346> 541 100<237.655 442.346>
VStem: 0 100<302 400.781> 580 100<196.624 401.641>
LayerCount: 2
Fore
SplineSet
502 469 m 0,0,1
 436 537 436 537 342 537 c 128,-1,2
 248 537 248 537 181 469 c 0,3,4
 116 403 116 403 115 309 c 1,5,6
 117 309 117 309 117 308.5 c 128,-1,7
 117 308 117 308 121 308.5 c 128,-1,8
 125 309 125 309 131.5 310 c 128,-1,9
 138 311 138 311 146 313 c 2,10,-1
 167 318 l 2,11,12
 179 321 179 321 191.5 315.5 c 128,-1,13
 204 310 204 310 211 299 c 2,14,-1
 243 243 l 2,15,16
 249 232 249 232 248 218 c 128,-1,17
 247 204 247 204 239 194 c 2,18,-1
 208 159 l 2,19,20
 203 153 203 153 198.5 147.5 c 128,-1,21
 194 142 194 142 192 139 c 2,22,-1
 189 136 l 1,23,-1
 188 135 l 1,24,25
 254 73 254 73 345 74 c 1,26,-1
 346 76 l 2,27,28
 347 76 347 76 350 106 c 2,29,-1
 356 154 l 2,30,31
 358 166 358 166 367.5 176.5 c 128,-1,32
 377 187 377 187 389 189 c 2,33,-1
 451 201 l 2,34,35
 463 203 463 203 476 197 c 128,-1,36
 489 191 489 191 494 180 c 1,37,-1
 495 180 l 1,38,39
 499 172 499 172 502 166 c 0,40,41
 506 160 506 160 508 157 c 2,42,-1
 510 154 l 1,43,-1
 511 152 l 1,44,45
 570 220 570 220 568 312 c 128,-1,46
 566 404 566 404 502 469 c 0,0,1
567.5 74 m 128,-1,48
 506 11 506 11 423.5 -11 c 128,-1,49
 341 -33 341 -33 259 -11 c 128,-1,50
 177 11 177 11 115.5 74 c 128,-1,51
 54 137 54 137 32.5 221 c 128,-1,52
 11 305 11 305 32.5 389.5 c 128,-1,53
 54 474 54 474 115 536 c 0,54,55
 161 583 161 583 221 607.5 c 128,-1,56
 281 632 281 632 341.5 632 c 128,-1,57
 402 632 402 632 462 607.5 c 128,-1,58
 522 583 522 583 567 536 c 0,59,60
 628 473 628 473 650 389 c 128,-1,61
 672 305 672 305 650.5 221 c 128,-1,47
 629 137 629 137 567.5 74 c 128,-1,48
473 411 m 2,62,-1
 464 327 l 2,63,64
 463 315 463 315 453.5 304 c 128,-1,65
 444 293 444 293 432 291 c 2,66,-1
 351 273 l 2,67,68
 339 270 339 270 326 276.5 c 128,-1,69
 313 283 313 283 307 293 c 2,70,-1
 266 367 l 2,71,72
 260 378 260 378 261.5 392 c 128,-1,73
 263 406 263 406 271 416 c 2,74,-1
 327 479 l 2,75,76
 335 488 335 488 349 491 c 128,-1,77
 363 494 363 494 374 489 c 2,78,-1
 450 454 l 2,79,80
 461 449 461 449 467.5 436 c 128,-1,81
 474 423 474 423 473 411 c 2,62,-1
EndSplineSet
Validated: 1
EndChar

StartChar: information
Encoding: 57381 57381 68
Width: 287
VWidth: 828
Flags: W
HStem: 3 45<6.06641 65.5874 224.442 281.843> 399 40<8.03625 48.3763> 527 128<64.7373 176.158>
VStem: 45 157<547.25 637.805> 76 137<79.2622 391.923>
LayerCount: 2
Fore
SplineSet
224 66 m 0,0,1
 238 49 238 49 270 48 c 0,2,3
 277 48 277 48 282 45.5 c 128,-1,4
 287 43 287 43 287 23 c 0,5,6
 287 14 287 14 272.5 8.5 c 128,-1,7
 258 3 258 3 238 3 c 2,8,-1
 49 3 l 2,9,10
 28 3 28 3 14 8.5 c 128,-1,11
 0 14 0 14 0 23 c 0,12,13
 0 43 0 43 6 46 c 0,14,15
 8 48 8 48 26 48 c 0,16,17
 42 48 42 48 58 61 c 0,18,19
 62 65 62 65 72 79 c 0,20,21
 76 87 76 87 76 145 c 2,22,-1
 76 306 l 2,23,24
 76 351 76 351 75 362.5 c 128,-1,25
 74 374 74 374 63 384 c 0,26,27
 52 397 52 397 30.5 399 c 128,-1,28
 9 401 9 401 8 404 c 0,29,30
 1 408 1 408 0 424 c 0,31,32
 0 433 0 433 14.5 439.5 c 128,-1,33
 29 446 29 446 49 446 c 2,34,-1
 162 446 l 2,35,36
 183 446 183 446 198 432 c 128,-1,37
 213 418 213 418 213 400 c 2,38,-1
 213 145 l 2,39,40
 213 101 213 101 214 90 c 128,-1,41
 215 79 215 79 224 66 c 0,0,1
134 527 m 0,42,43
 76 527 76 527 53 563 c 0,44,45
 46 576 46 576 45 592 c 0,46,47
 45 638 45 638 98 652 c 0,48,49
 112 656 112 656 131 655 c 128,-1,50
 150 654 150 654 177 642 c 1,51,52
 202 625 202 625 202 592.5 c 128,-1,53
 202 560 202 560 179 543.5 c 128,-1,54
 156 527 156 527 134 527 c 0,42,43
EndSplineSet
Validated: 1
EndChar

StartChar: hospital
Encoding: 57382 57382 69
Width: 688
VWidth: 828
Flags: W
HStem: -23 74<234.955 452.715> 271 107<158.313 280.718 405.736 527.233> 590 73<235.973 452.715>
VStem: 0 74<212.963 427.567> 290 108<139.282 262.233 379.403 509.234> 614 74<212.963 427.567>
CounterMasks: 1 1c
LayerCount: 2
Fore
SplineSet
344 590 m 128,-1,1
 270 590 270 590 208 554 c 128,-1,2
 146 518 146 518 110 455.5 c 128,-1,3
 74 393 74 393 74 320.5 c 128,-1,4
 74 248 74 248 110 185 c 128,-1,5
 146 122 146 122 208 86.5 c 128,-1,6
 270 51 270 51 344 51 c 128,-1,7
 418 51 418 51 480 86.5 c 128,-1,8
 542 122 542 122 578 185 c 128,-1,9
 614 248 614 248 614 320.5 c 128,-1,10
 614 393 614 393 578 455.5 c 128,-1,11
 542 518 542 518 480 554 c 128,-1,0
 418 590 418 590 344 590 c 128,-1,1
344 -23 m 128,-1,13
 274 -23 274 -23 210 4.5 c 128,-1,14
 146 32 146 32 100 77 c 128,-1,15
 54 122 54 122 27 186.5 c 128,-1,16
 0 251 0 251 0 320.5 c 128,-1,17
 0 390 0 390 27 453.5 c 128,-1,18
 54 517 54 517 100 563 c 128,-1,19
 146 609 146 609 210 636 c 128,-1,20
 274 663 274 663 344 663 c 128,-1,21
 414 663 414 663 477 636 c 128,-1,22
 540 609 540 609 586 563 c 128,-1,23
 632 517 632 517 660 453.5 c 128,-1,24
 688 390 688 390 688 320.5 c 128,-1,25
 688 251 688 251 660 186.5 c 128,-1,26
 632 122 632 122 586 77 c 128,-1,27
 540 32 540 32 477 4.5 c 128,-1,12
 414 -23 414 -23 344 -23 c 128,-1,13
536 348 m 2,28,-1
 536 302 l 2,29,30
 536 289 536 289 528 280 c 128,-1,31
 520 271 520 271 506 271 c 2,32,-1
 426 271 l 2,33,34
 413 271 413 271 405.5 262.5 c 128,-1,35
 398 254 398 254 398 241 c 2,36,-1
 398 161 l 2,37,38
 398 148 398 148 389 139 c 128,-1,39
 380 130 380 130 366 130 c 2,40,-1
 320 130 l 2,41,42
 307 130 307 130 298.5 139 c 128,-1,43
 290 148 290 148 290 161 c 2,44,-1
 290 241 l 2,45,46
 290 254 290 254 281 262.5 c 128,-1,47
 272 271 272 271 258 271 c 2,48,-1
 180 271 l 2,49,50
 168 271 168 271 158 280 c 0,51,52
 148 290 148 290 148 302 c 2,53,-1
 148 348 l 2,54,55
 148 361 148 361 157 369.5 c 128,-1,56
 166 378 166 378 180 378 c 2,57,-1
 258 378 l 2,58,59
 271 378 271 378 280.5 387 c 128,-1,60
 290 396 290 396 290 408 c 2,61,-1
 290 489 l 2,62,63
 290 502 290 502 298 510 c 128,-1,64
 306 518 306 518 320 518 c 2,65,-1
 366 518 l 2,66,67
 379 518 379 518 388.5 509.5 c 128,-1,68
 398 501 398 501 398 489 c 2,69,-1
 398 408 l 2,70,71
 398 395 398 395 407 386.5 c 128,-1,72
 416 378 416 378 426 378 c 2,73,-1
 506 378 l 2,74,75
 519 378 519 378 527.5 369.5 c 128,-1,76
 536 361 536 361 536 348 c 2,28,-1
EndSplineSet
Validated: 1
EndChar

StartChar: golf
Encoding: 57383 57383 70
Width: 424
VWidth: 828
Flags: W
HStem: -10 60<72.4375 131.438>
VStem: 0 72<50.5449 124.488> 86 31<70 616.908> 128 75<54.156 123.544>
LayerCount: 2
Fore
SplineSet
72 69 m 1,0,-1
 72 54 l 1,1,2
 86 50 86 50 100 50 c 128,-1,3
 114 50 114 50 132 54 c 1,4,5
 130 59 130 59 128 63 c 2,6,-1
 128 153 l 1,7,8
 158 147 158 147 182 122 c 0,9,10
 204 100 204 100 203 70 c 128,-1,11
 202 40 202 40 174 14 c 0,12,13
 144 -10 144 -10 102 -10 c 128,-1,14
 60 -10 60 -10 30 14 c 128,-1,15
 0 38 0 38 0 69.5 c 128,-1,16
 0 101 0 101 20 122.5 c 128,-1,17
 40 144 40 144 72 153 c 1,18,-1
 72 69 l 1,0,-1
142 600 m 1,19,20
 198 574 198 574 288 566 c 0,21,22
 318 562 318 562 354 547 c 0,23,24
 394 533 394 533 424 501 c 1,25,26
 416 502 416 502 400 502 c 0,27,28
 384 501 384 501 350 488 c 0,29,30
 318 474 318 474 288 449 c 0,31,32
 202 380 202 380 142 371 c 1,33,-1
 142 600 l 1,19,20
86 636 m 1,34,35
 101 623 101 623 117 612 c 1,36,-1
 117 70 l 1,37,38
 110 66 110 66 102 67 c 2,39,-1
 86 70 l 1,40,-1
 86 636 l 1,34,35
EndSplineSet
Validated: 1
EndChar

StartChar: picnic_site
Encoding: 57384 57384 71
Width: 711
VWidth: 828
Flags: W
HStem: -21 133<111 122 148.5 206.344 501.812 561.5 586 600> 49 63<10.751 148.42 230.719 479.062 561.55 699.218> 157 129<138.062 270.794> 157 41<337 514.906> 265 37<453.224 524.375> 357 264<163.01 238.375>
VStem: 113 24<290.801 364> 150 101<444.842 621> 162 77<459.686 599.597> 271 17<291.359 364> 337 110<305.358 352>
LayerCount: 2
Fore
SplineSet
700 102 m 0,0,1
 712 98 712 98 711 80 c 128,-1,2
 710 62 710 62 700 58 c 0,3,4
 675 48 675 48 648 49 c 2,5,-1
 576 49 l 2,6,7
 563 49 563 49 561.5 43 c 128,-1,8
 560 37 560 37 566 30 c 2,9,-1
 597 -1 l 2,10,11
 604 -8 604 -8 602 -14.5 c 128,-1,12
 600 -21 600 -21 586 -21 c 2,13,-1
 552 -21 l 2,14,15
 541 -20 541 -20 526.5 -14 c 128,-1,16
 512 -8 512 -8 504 -1 c 2,17,-1
 476 30 l 2,18,19
 469 37 469 37 455 43 c 128,-1,20
 441 49 441 49 430 49 c 2,21,-1
 280 49 l 2,22,23
 256 50 256 50 234 30 c 2,24,-1
 204 -1 l 2,25,26
 184 -21 184 -21 157 -21 c 2,27,-1
 122 -21 l 2,28,29
 111 -21 111 -21 108.5 -15.5 c 128,-1,30
 106 -10 106 -10 113 -2 c 2,31,-1
 144 30 l 2,32,33
 151 37 151 37 148.5 43 c 128,-1,34
 146 49 146 49 135 49 c 2,35,-1
 62 49 l 2,36,37
 34 48 34 48 10 58 c 0,38,39
 0 62 0 62 0 78.5 c 128,-1,40
 0 95 0 95 8 100 c 2,41,-1
 10 102 l 1,42,43
 34 112 34 112 62 112 c 2,44,-1
 648 112 l 2,45,46
 675 112 675 112 700 102 c 0,0,1
626 352 m 2,47,48
 643 352 643 352 649.5 341.5 c 128,-1,49
 656 331 656 331 648 318 c 2,50,-1
 579 194 l 2,51,52
 572 179 572 179 553 168 c 128,-1,53
 534 157 534 157 519 157 c 2,54,-1
 332 157 l 1,55,56
 336 164 336 164 337 175 c 2,57,-1
 337 198 l 1,58,-1
 485 198 l 2,59,60
 500 198 500 198 511 212 c 2,61,-1
 536 250 l 2,62,63
 540 256 540 256 537 260.5 c 128,-1,64
 534 265 534 265 528 265 c 2,65,-1
 337 265 l 1,66,-1
 337 352 l 1,67,-1
 447 352 l 1,68,69
 443 338 443 338 449 328 c 0,70,71
 460 302 460 302 486 302 c 128,-1,72
 512 302 512 302 524 320 c 2,73,-1
 548 352 l 1,74,-1
 626 352 l 2,47,48
271 293 m 1,75,-1
 271 364 l 1,76,77
 239 357 239 357 204.5 357 c 128,-1,78
 170 357 170 357 137 364 c 1,79,-1
 137 293 l 1,80,81
 171 286 171 286 205 286 c 128,-1,82
 239 286 239 286 271 293 c 1,75,-1
229 621 m 2,83,84
 250 621 250 621 251 600 c 0,85,86
 251 587 251 587 245 587.5 c 128,-1,87
 239 588 239 588 239 572 c 2,88,-1
 239 499 l 2,89,90
 239 482 239 482 247.5 473.5 c 128,-1,91
 256 465 256 465 262.5 458.5 c 128,-1,92
 269 452 269 452 278.5 433 c 128,-1,93
 288 414 288 414 288 397 c 2,94,-1
 288 175 l 2,95,96
 288 169 288 169 282 163 c 128,-1,97
 276 157 276 157 267 157 c 2,98,-1
 134 157 l 2,99,100
 125 157 125 157 119 162 c 128,-1,101
 113 167 113 167 113 175 c 2,102,-1
 113 397 l 2,103,104
 113 414 113 414 121 432 c 128,-1,105
 129 450 129 450 140 460 c 2,106,-1
 149 468 l 2,107,108
 163 481 163 481 162 499 c 2,109,-1
 162 572 l 2,110,111
 162 589 162 589 156 588.5 c 128,-1,112
 150 588 150 588 150 600 c 0,113,114
 150 621 150 621 172 621 c 2,115,-1
 229 621 l 2,83,84
513 345 m 2,116,117
 508 335 508 335 499.5 335.5 c 128,-1,118
 491 336 491 336 486 339 c 0,119,120
 479 343 479 343 476.5 351.5 c 128,-1,121
 474 360 474 360 479 367 c 2,122,-1
 586 512 l 2,123,124
 590 519 590 519 600 521.5 c 128,-1,125
 610 524 610 524 617 518.5 c 128,-1,126
 624 513 624 513 625.5 506 c 128,-1,127
 627 499 627 499 622 492 c 2,128,-1
 513 345 l 2,116,117
EndSplineSet
Validated: 1
EndChar

StartChar: drag_lift
Encoding: 57385 57385 72
Width: 617
VWidth: 828
Flags: W
HStem: -9 61<101.61 269 320 488.39>
VStem: 172 36<414.646 499.383> 244 101<287.157 368.539 399 430.327> 269 51<52 281>
LayerCount: 2
Fore
SplineSet
15 622 m 0,0,1
 18 622 18 622 19 620 c 2,2,-1
 200 563 l 1,3,4
 208 569 208 569 214 570 c 2,5,-1
 221 570 l 2,6,7
 242 570 242 570 250 547 c 1,8,-1
 605 434 l 2,9,10
 622 431 622 431 615 411 c 0,11,12
 611 400 611 400 601 400 c 0,13,14
 599 400 599 400 595 401 c 2,15,-1
 245 512 l 1,16,17
 235 499 235 499 224 500 c 1,18,19
 210 483 210 483 208 461 c 0,20,21
 208 423 208 423 244 399 c 1,22,-1
 244 416 l 2,23,24
 244 424 244 424 250 430 c 128,-1,25
 256 436 256 436 263 436 c 2,26,-1
 325 436 l 2,27,28
 333 436 333 436 339 430.5 c 128,-1,29
 345 425 345 425 345 416 c 2,30,-1
 345 302 l 2,31,32
 345 292 345 292 338.5 286.5 c 128,-1,33
 332 281 332 281 325 281 c 2,34,-1
 320 281 l 1,35,-1
 320 52 l 1,36,37
 439 54 439 54 490 72 c 1,38,39
 493 86 493 86 502.5 95 c 128,-1,40
 512 104 512 104 526.5 104 c 128,-1,41
 541 104 541 104 552 92.5 c 128,-1,42
 563 81 563 81 563 65.5 c 128,-1,43
 563 50 563 50 553.5 39 c 128,-1,44
 544 28 544 28 533 26 c 1,45,46
 484 -9 484 -9 298.5 -9 c 128,-1,47
 113 -9 113 -9 56 26 c 1,48,49
 43 28 43 28 34.5 39 c 128,-1,50
 26 50 26 50 26 65.5 c 128,-1,51
 26 81 26 81 37 92.5 c 128,-1,52
 48 104 48 104 62.5 104 c 128,-1,53
 77 104 77 104 86.5 95 c 128,-1,54
 96 86 96 86 100 72 c 1,55,56
 151 55 151 55 269 52 c 1,57,-1
 269 281 l 1,58,-1
 263 281 l 2,59,60
 255 281 255 281 249 287 c 0,61,62
 244 292 244 292 244 302 c 2,63,-1
 244 356 l 1,64,65
 212 370 212 370 192 398.5 c 128,-1,66
 172 427 172 427 172 459 c 0,67,68
 172 492 172 492 190 518 c 1,69,70
 186 525 186 525 187 532 c 1,71,-1
 11 588 l 2,72,73
 5 590 5 590 2 596 c 128,-1,74
 -1 602 -1 602 0 608 c 0,75,76
 3 622 3 622 15 622 c 0,0,1
EndSplineSet
Validated: 1
EndChar

StartChar: construction
Encoding: 57386 57386 73
Width: 616
VWidth: 828
Flags: W
VStem: 329 192<390.07 453.978>
LayerCount: 2
Fore
SplineSet
275 336 m 1,0,1
 317 290 317 290 362 247 c 1,2,3
 342 226 342 226 108 -12 c 0,4,5
 88 -32 88 -32 78 -31.5 c 128,-1,6
 68 -31 68 -31 47.5 -10 c 128,-1,7
 27 11 27 11 13.5 25 c 128,-1,8
 0 39 0 39 0 48 c 0,9,10
 0 58 0 58 9 68 c 0,11,12
 55 114 55 114 275 336 c 1,0,1
540 374 m 128,-1,14
 548 374 548 374 554 369 c 2,15,-1
 610 311 l 2,16,17
 615 306 615 306 615.5 299 c 128,-1,18
 616 292 616 292 610 285 c 2,19,-1
 535 209 l 2,20,21
 530 205 530 205 521.5 204 c 128,-1,22
 513 203 513 203 508 209 c 2,23,-1
 452 265 l 2,24,25
 448 270 448 270 448.5 278 c 128,-1,26
 449 286 449 286 452 294 c 2,27,-1
 529 369 l 2,28,13
 532 374 532 374 540 374 c 128,-1,14
142 608 m 1,29,30
 328 580 328 580 358 577 c 0,31,32
 378 573 378 573 401 551.5 c 128,-1,33
 424 530 424 530 458 496 c 0,34,35
 490 461 490 461 501 452 c 0,36,37
 521 435 521 435 521 423 c 128,-1,38
 521 411 521 411 508 399 c 2,39,-1
 401 292 l 1,40,-1
 311 378 l 1,41,-1
 319 394 l 2,42,43
 329 414 329 414 329 436 c 128,-1,44
 329 458 329 458 315 481 c 0,45,46
 299 504 299 504 252 533.5 c 128,-1,47
 205 563 205 563 182 574.5 c 128,-1,48
 159 586 159 586 145 593 c 1,49,-1
 142 608 l 1,29,30
EndSplineSet
Validated: 1
EndChar

StartChar: islamism
Encoding: 57387 57387 74
Width: 598
VWidth: 828
Flags: W
HStem: -14 113<272.219 416.215>
LayerCount: 2
Fore
SplineSet
496 582 m 1,0,-1
 514 512 l 1,1,-1
 584 494 l 1,2,-1
 534 443 l 1,3,-1
 550 376 l 1,4,-1
 485 394 l 1,5,-1
 433 343 l 1,6,-1
 417 413 l 1,7,-1
 348 432 l 1,8,-1
 399 483 l 1,9,-1
 381 548 l 1,10,-1
 445 531 l 1,11,-1
 496 582 l 1,0,-1
257 594 m 1,12,13
 246 587 246 587 237 578 c 0,14,15
 214 564 214 564 196 544 c 0,16,17
 120 468 120 468 119.5 360.5 c 128,-1,18
 119 253 119 253 194.5 176 c 128,-1,19
 270 99 270 99 377 99 c 0,20,21
 483 100 483 100 559 176 c 0,22,23
 580 196 580 196 589 207 c 2,24,-1
 598 224 l 1,25,26
 578 138 578 138 518 76 c 0,27,28
 475 32 475 32 418.5 9 c 128,-1,29
 362 -14 362 -14 304.5 -14 c 128,-1,30
 247 -14 247 -14 190.5 8.5 c 128,-1,31
 134 31 134 31 91 76 c 0,32,33
 33 135 33 135 10 214 c 0,34,35
 -11 290 -11 290 11 370 c 128,-1,36
 33 450 33 450 91 508 c 0,37,38
 159 578 159 578 257 594 c 1,12,13
EndSplineSet
Validated: 1
EndChar

StartChar: vineyard
Encoding: 57388 57388 75
Width: 593
VWidth: 828
Flags: W
HStem: -41 154<274.174 380.795> 101 155<150.721 258.279> 129 155<351.314 455.25> 241 137<44.9982 137.31> 275 115<232.505 287> 417 151<85.968 170 218 255.437> 492 77<237.312 485.5>
VStem: 6 154<264.207 373.408> 127 155<124.721 232.795> 165 36<599.809 625.52> 210 154<297.721 389.436> 252 152<-17.7946 89.7946> 329 156<151.996 252.343> 422 165<325.518 417.467>
LayerCount: 2
Fore
SplineSet
44 385 m 1,0,1
 76 378 76 378 100.5 378 c 128,-1,2
 125 378 125 378 134 378 c 1,3,4
 162 354 162 354 160.5 319.5 c 128,-1,5
 159 285 159 285 137.5 263 c 128,-1,6
 116 241 116 241 83 241 c 128,-1,7
 50 241 50 241 28 263.5 c 128,-1,8
 6 286 6 286 6.5 324.5 c 128,-1,9
 7 363 7 363 44 385 c 1,0,1
320 421 m 1,10,11
 361 401 361 401 364 352 c 0,12,13
 363 320 363 320 342 297 c 0,14,15
 320 274 320 274 288 274 c 1,16,-1
 287 275 l 1,17,18
 255 275 255 275 232.5 297.5 c 128,-1,19
 210 320 210 320 210 346 c 128,-1,20
 210 372 210 372 219 390 c 1,21,22
 267 400 267 400 320 421 c 1,10,11
578 418 m 1,23,24
 587 401 587 401 587 377 c 128,-1,25
 587 353 587 353 567.5 328.5 c 128,-1,26
 548 304 548 304 517 300 c 0,27,28
 511 299 511 299 503 298 c 0,29,30
 478 298 478 298 453 317 c 128,-1,31
 428 336 428 336 423 366 c 0,32,33
 422 373 422 373 422 387 c 0,34,35
 421 400 421 400 433 422 c 128,-1,36
 445 444 445 444 468 455 c 1,37,38
 495 453 495 453 526 442 c 128,-1,39
 557 431 557 431 578 418 c 1,23,24
218 568 m 1,40,41
 238 569 238 569 256 569 c 0,42,43
 456 569 456 569 593 446 c 1,44,45
 523 492 523 492 448 492 c 0,46,47
 433 492 433 492 423 490.5 c 128,-1,48
 413 489 413 489 392 485.5 c 128,-1,49
 371 482 371 482 303 454 c 0,50,51
 238 426 238 426 179 420 c 0,52,53
 142 416 142 416 131 417 c 0,54,55
 110 417 110 417 82 422 c 128,-1,56
 54 427 54 427 30 435 c 0,57,58
 6 444 6 444 0 445 c 1,59,60
 20 548 20 548 157 562 c 0,61,62
 165 563 165 563 170 564 c 1,63,64
 169 614 169 614 165 634 c 1,65,66
 182 630 182 630 201 623 c 1,67,-1
 218 568 l 1,40,41
327 113 m 128,-1,69
 359 113 359 113 381.5 90.5 c 128,-1,70
 404 68 404 68 404 36 c 128,-1,71
 404 4 404 4 381.5 -18.5 c 128,-1,72
 359 -41 359 -41 327 -41 c 128,-1,73
 295 -41 295 -41 273.5 -18.5 c 128,-1,74
 252 4 252 4 252 36 c 128,-1,75
 252 68 252 68 273.5 90.5 c 128,-1,68
 295 113 295 113 327 113 c 128,-1,69
344 253 m 0,76,77
 366 284 366 284 406 284 c 0,78,79
 432 284 432 284 456 266 c 0,80,81
 485 244 485 244 485 203 c 0,82,83
 485 179 485 179 467 157 c 0,84,85
 446 129 446 129 405 129 c 0,86,87
 380 128 380 128 357 146 c 0,88,89
 328 168 328 168 329 207 c 0,90,91
 329 232 329 232 344 253 c 0,76,77
204.5 101 m 128,-1,93
 173 101 173 101 150 124 c 128,-1,94
 127 147 127 147 127 179 c 128,-1,95
 127 211 127 211 150 233.5 c 128,-1,96
 173 256 173 256 204.5 256 c 128,-1,97
 236 256 236 256 259 233.5 c 128,-1,98
 282 211 282 211 282 179 c 128,-1,99
 282 147 282 147 259 124 c 128,-1,92
 236 101 236 101 204.5 101 c 128,-1,93
EndSplineSet
Validated: 1
EndChar

StartChar: lighthouse
Encoding: 57389 57389 76
Width: 670
VWidth: 828
Flags: W
HStem: 1 78<251.342 367.836> 112 71<240.228 308 348.16 434.582> 206 71<239.493 365> 305 77<314 434.328> 374 31<21.0642 56.4777> 420 107<304.25 382.069> 489 34<185.219 235.498 437.579 448 448 481.173> 527 35<0.0065918 10.9417 658.851 669.125> 556 82<289.398 393.943>
VStem: 234 139<14.0946 75.359> 234 131<218.305 277> 234 74<129.188 182.811> 234 49<317.611 391.333> 291 105<429.281 514.137> 314 126<317.718 382> 343 97<129.25 173.874> 396 44<217.672 288.753> 407 33<15.641 90.9365>
LayerCount: 2
Fore
SplineSet
477 575 m 0,0,1
 487 571 487 571 486 567 c 0,2,3
 486 562 486 562 474 562 c 0,4,5
 407 556 407 556 341 556 c 0,6,7
 275 554 275 554 208 562 c 0,8,9
 186 566 186 566 206 575 c 0,10,11
 250 593 250 593 318 633 c 0,12,13
 328 638 328 638 342.5 638 c 128,-1,14
 357 638 357 638 365 633 c 0,15,16
 434 593 434 593 477 575 c 0,0,1
395 457 m 2,17,18
 396 453 396 453 396 445.5 c 128,-1,19
 396 438 396 438 389 429 c 0,20,21
 381 420 381 420 364 420 c 2,22,-1
 321 420 l 2,23,24
 305 420 305 420 298 428.5 c 128,-1,25
 291 437 291 437 291 445 c 128,-1,26
 291 453 291 453 291 457 c 2,27,-1
 298 490 l 2,28,29
 302 506 302 506 315 516.5 c 128,-1,30
 328 527 328 527 343 527 c 128,-1,31
 358 527 358 527 371.5 516 c 128,-1,32
 385 505 385 505 389 490 c 2,33,-1
 395 457 l 2,17,18
423 91 m 1,34,-1
 423 92 l 1,35,36
 438 96 438 96 440 82 c 2,37,-1
 440 37 l 2,38,39
 440 31 440 31 435 23.5 c 128,-1,40
 430 16 430 16 423 14 c 0,41,42
 418 11 418 11 412.5 15.5 c 128,-1,43
 407 20 407 20 407 26 c 2,44,-1
 407 71 l 2,45,46
 407 77 407 77 412 83 c 128,-1,47
 417 89 417 89 423 91 c 1,34,-1
373 65 m 2,48,-1
 373 21 l 2,49,50
 373 15 373 15 368 8 c 128,-1,51
 363 1 363 1 328 1 c 128,-1,52
 293 1 293 1 250 14 c 0,53,54
 244 17 244 17 239 23.5 c 128,-1,55
 234 30 234 30 234 37 c 2,56,-1
 234 82 l 2,57,58
 234 96 234 96 250 92 c 0,59,60
 290 79 290 79 317.5 79 c 128,-1,61
 345 79 345 79 354 79.5 c 128,-1,62
 363 80 363 80 368 75.5 c 128,-1,63
 373 71 373 71 373 65 c 2,48,-1
348 174 m 0,64,65
 353 179 353 179 372.5 180.5 c 128,-1,66
 392 182 392 182 411 188 c 128,-1,67
 430 194 430 194 435 190 c 128,-1,68
 440 186 440 186 440 180 c 2,69,-1
 440 144 l 2,70,71
 440 137 440 137 435 129 c 0,72,73
 422 113 422 113 360 110 c 0,74,75
 354 109 354 109 348.5 113.5 c 128,-1,76
 343 118 343 118 343 123 c 2,77,-1
 343 162 l 2,78,79
 343 170 343 170 348 174 c 0,64,65
308 163 m 2,80,-1
 308 125 l 2,81,82
 308 111 308 111 292 112 c 0,83,84
 247 117 247 117 240 129 c 0,85,86
 236 135 236 135 234 144 c 2,87,-1
 234 180 l 2,88,89
 234 196 234 196 252.5 190.5 c 128,-1,90
 271 185 271 185 285 183 c 0,91,92
 308 177 308 177 308 163 c 2,80,-1
396 266 m 2,93,94
 396 281 396 281 423 291 c 0,95,96
 429 294 429 294 434.5 289.5 c 128,-1,97
 440 285 440 285 440 278 c 2,98,-1
 440 241 l 2,99,100
 440 228 440 228 424.5 220 c 128,-1,101
 409 212 409 212 402.5 217.5 c 128,-1,102
 396 223 396 223 396 229 c 2,103,-1
 396 266 l 2,93,94
365 262 m 2,104,-1
 365 225 l 2,105,106
 365 219 365 219 361 213 c 128,-1,107
 357 207 357 207 350 206.5 c 128,-1,108
 343 206 343 206 337 206 c 0,109,110
 293 206 293 206 250 220 c 0,111,112
 244 223 244 223 239 229 c 128,-1,113
 234 235 234 235 234 241 c 2,114,-1
 234 278 l 2,115,116
 234 284 234 284 238 288.5 c 128,-1,117
 242 293 242 293 250 291 c 0,118,119
 296 278 296 278 341 277 c 2,120,-1
 350 277 l 2,121,122
 356 277 356 277 360.5 272.5 c 128,-1,123
 365 268 365 268 365 262 c 2,104,-1
319 377.5 m 128,-1,125
 324 382 324 382 328 382 c 2,126,-1
 335 382 l 2,127,128
 381 382 381 382 423 394 c 0,129,130
 429 397 429 397 434.5 394 c 128,-1,131
 440 391 440 391 440 384 c 2,132,-1
 440 340 l 2,133,134
 440 334 440 334 435 327 c 128,-1,135
 430 320 430 320 423 319 c 0,136,137
 377 305 377 305 330 305 c 0,138,139
 324 306 324 306 319 311.5 c 128,-1,140
 314 317 314 317 314 323 c 2,141,-1
 314 366 l 2,142,124
 314 373 314 373 319 377.5 c 128,-1,125
283 370 m 2,143,-1
 283 328 l 2,144,145
 282 321 282 321 278 316 c 0,146,147
 273 312 273 312 253.5 318.5 c 128,-1,148
 234 325 234 325 234 340 c 2,149,-1
 234 384 l 2,150,151
 234 390 234 390 238 393.5 c 128,-1,152
 242 397 242 397 250 394.5 c 128,-1,153
 258 392 258 392 265.5 390 c 128,-1,154
 273 388 273 388 278 382 c 128,-1,155
 283 376 283 376 283 370 c 2,143,-1
447 495 m 0,156,157
 440 495 440 495 437.5 506 c 128,-1,158
 435 517 435 517 437.5 522.5 c 128,-1,159
 440 528 440 528 446 528 c 2,160,-1
 657 566 l 2,161,162
 661 567 661 567 665 561.5 c 128,-1,163
 669 556 669 556 669.5 550 c 128,-1,164
 670 544 670 544 667 539.5 c 128,-1,165
 664 535 664 535 660 534 c 2,166,-1
 448 496 l 2,167,168
 448 495 448 495 447 495 c 0,156,157
652 388 m 2,169,-1
 470 435 l 2,170,171
 466 436 466 436 463.5 442 c 128,-1,172
 461 448 461 448 462 454.5 c 128,-1,173
 463 461 463 461 466 464.5 c 128,-1,174
 469 468 469 468 473 467 c 2,175,-1
 656 418 l 2,176,177
 666 415 666 415 664 401 c 128,-1,178
 662 387 662 387 654 387 c 0,179,180
 653 387 653 387 652 388 c 2,169,-1
224 489 m 2,181,-1
 223 489 l 1,182,-1
 10 527 l 2,183,184
 6 528 6 528 3 533 c 128,-1,185
 0 538 0 538 0 545 c 128,-1,186
 0 552 0 552 4 557 c 128,-1,187
 8 562 8 562 13 562 c 2,188,-1
 224 523 l 2,189,190
 228 522 228 522 233 514 c 128,-1,191
 238 506 238 506 233 497.5 c 128,-1,192
 228 489 228 489 224 489 c 2,181,-1
32 374 m 2,193,194
 23 374 23 374 21 387 c 128,-1,195
 19 400 19 400 30 405 c 2,196,-1
 211 454 l 2,197,198
 215 455 215 455 219 451 c 128,-1,199
 223 447 223 447 223.5 440.5 c 128,-1,200
 224 434 224 434 221 429 c 0,201,202
 219 424 219 424 216 423 c 2,203,-1
 33 374 l 1,204,-1
 32 374 l 2,193,194
EndSplineSet
Validated: 1
EndChar

StartChar: tower
Encoding: 57390 57390 77
Width: 361
VWidth: 828
Flags: W
VStem: 0 51<514 582> 43 83<-2.3125 106> 103 52<514.069 582> 205 54<514.069 582> 234 84<-0.967773 106> 312 49<514 582>
LayerCount: 2
Fore
SplineSet
195 301 m 2,0,1
 206 303 206 303 207 313 c 2,2,-1
 207 355 l 2,3,4
 207 356 207 356 186 397 c 0,5,6
 183 401 183 401 181 401 c 128,-1,7
 179 401 179 401 177 397 c 2,8,-1
 155 367 l 1,9,10
 153 354 153 354 153 343 c 2,11,-1
 153 313 l 2,12,13
 153 301 153 301 166 301 c 2,14,-1
 195 301 l 2,0,1
195 512 m 2,15,16
 205 514 205 514 205 526 c 2,17,-1
 205 571 l 2,18,19
 205 575 205 575 210 578.5 c 128,-1,20
 215 582 215 582 218 582 c 2,21,-1
 251 582 l 2,22,23
 255 582 255 582 257 578.5 c 128,-1,24
 259 575 259 575 259 571 c 2,25,-1
 259 527 l 2,26,27
 259 522 259 522 263 518 c 128,-1,28
 267 514 267 514 272 514 c 2,29,-1
 301 514 l 2,30,31
 305 514 305 514 308.5 518.5 c 128,-1,32
 312 523 312 523 312 527 c 2,33,-1
 312 571 l 2,34,35
 312 575 312 575 315.5 578.5 c 128,-1,36
 319 582 319 582 324 582 c 2,37,-1
 351 582 l 2,38,39
 355 582 355 582 358.5 578.5 c 128,-1,40
 362 575 362 575 361 571 c 2,41,-1
 361 461 l 2,42,43
 362 448 362 448 355 438 c 2,44,-1
 326 400 l 2,45,46
 320 389 320 389 318 378 c 2,47,-1
 318 14 l 2,48,49
 318 10 318 10 314 5 c 128,-1,50
 310 0 310 0 306 -1 c 2,51,-1
 247 -8 l 2,52,53
 234 -8 234 -8 234 3 c 2,54,-1
 234 106 l 1,55,-1
 186 192 l 2,56,57
 184 196 184 196 181.5 195.5 c 128,-1,58
 179 195 179 195 177 192 c 2,59,-1
 126 106 l 1,60,61
 125 94 125 94 126 84 c 2,62,-1
 126 3 l 2,63,64
 125 -8 125 -8 115 -8 c 2,65,-1
 54 -1 l 2,66,67
 50 0 50 0 47 4 c 0,68,69
 43 10 43 10 43 14 c 2,70,-1
 43 378 l 2,71,72
 43 391 43 391 36 400 c 2,73,-1
 7 438 l 2,74,75
 0 449 0 449 0 461 c 2,76,-1
 0 571 l 2,77,78
 0 575 0 575 3.5 578.5 c 128,-1,79
 7 582 7 582 11 582 c 2,80,-1
 40 582 l 2,81,82
 44 582 44 582 47.5 578.5 c 128,-1,83
 51 575 51 575 51 571 c 2,84,-1
 51 527 l 2,85,86
 51 522 51 522 55 518 c 0,87,88
 57 514 57 514 61 514 c 2,89,-1
 90 514 l 2,90,91
 94 514 94 514 98.5 518.5 c 128,-1,92
 103 523 103 523 103 527 c 2,93,-1
 103 571 l 2,94,95
 103 575 103 575 106.5 578.5 c 128,-1,96
 110 582 110 582 114 582 c 2,97,-1
 144 582 l 2,98,99
 148 582 148 582 151.5 578.5 c 128,-1,100
 155 575 155 575 155 571 c 2,101,-1
 155 526 l 2,102,103
 155 514 155 514 166 512 c 2,104,-1
 195 512 l 2,15,16
EndSplineSet
Validated: 1
EndChar

StartChar: wayside_cross
Encoding: 57391 57391 78
Width: 448
VWidth: 828
Flags: W
HStem: 1 21G<89.5 366> 406 83<8.25098 181.749 274.251 439.749>
VStem: 190 76<157 397.234 496.736 643.749>
LayerCount: 2
Fore
SplineSet
420 489 m 2,0,1
 432 489 432 489 440 480.5 c 128,-1,2
 448 472 448 472 448 460 c 2,3,-1
 448 433 l 2,4,5
 448 421 448 421 439 413.5 c 128,-1,6
 430 406 430 406 420 406 c 2,7,-1
 294 406 l 2,8,9
 282 406 282 406 273 397.5 c 128,-1,10
 264 389 264 389 266 378 c 2,11,-1
 266 157 l 1,12,-1
 378 26 l 2,13,14
 382 16 382 16 377 8.5 c 128,-1,15
 372 1 372 1 360 1 c 2,16,-1
 96 1 l 2,17,18
 83 1 83 1 78.5 8 c 128,-1,19
 74 15 74 15 80 26 c 2,20,-1
 190 157 l 1,21,-1
 190 378 l 2,22,23
 190 391 190 391 182 398 c 128,-1,24
 174 405 174 405 162 406 c 2,25,-1
 28 406 l 2,26,27
 16 406 16 406 8 414 c 128,-1,28
 0 422 0 422 0 433 c 2,29,-1
 0 460 l 2,30,31
 0 473 0 473 9 481 c 128,-1,32
 18 489 18 489 28 489 c 2,33,-1
 162 489 l 2,34,35
 174 489 174 489 182 496.5 c 128,-1,36
 190 504 190 504 190 517 c 2,37,-1
 190 624 l 2,38,39
 190 636 190 636 198 644 c 128,-1,40
 206 652 206 652 220 652 c 2,41,-1
 238 652 l 2,42,43
 250 652 250 652 257 643.5 c 128,-1,44
 264 635 264 635 266 624 c 2,45,-1
 266 517 l 2,46,47
 266 504 266 504 274 496.5 c 128,-1,48
 282 489 282 489 294 489 c 2,49,-1
 420 489 l 2,0,1
EndSplineSet
Validated: 1
EndChar

StartChar: theatre
Encoding: 57392 57392 79
Width: 689
VWidth: 828
Flags: W
HStem: -21 89<391.375 506.924> 125 117<379.467 509.414> 195 114<156.046 231> 295 99<513.344 608.586> 498 83<80.7645 177.859>
VStem: 0 62<418 480.199>
LayerCount: 2
Fore
SplineSet
340 176 m 1,0,-1
 350 152 l 2,1,2
 360 128 360 128 382 100.5 c 128,-1,3
 404 73 404 73 426 70 c 0,4,5
 434 68 434 68 445 68 c 128,-1,6
 456 68 456 68 471.5 73 c 128,-1,7
 487 78 487 78 501 86.5 c 128,-1,8
 515 95 515 95 529.5 108 c 128,-1,9
 544 121 544 121 548.5 125.5 c 128,-1,10
 553 130 553 130 556 133 c 2,11,-1
 540 130 l 2,12,13
 519 126 519 126 495 125 c 0,14,15
 399 126 399 126 340 176 c 1,0,-1
559 295 m 0,16,17
 558 295 558 295 557 295 c 0,18,19
 542 294 542 294 522.5 280 c 128,-1,20
 503 266 503 266 493 250 c 1,21,-1
 502 238 l 2,22,23
 511 226 511 226 527 218 c 0,24,25
 542 209 542 209 551 208 c 2,26,-1
 561 209 l 2,27,28
 578 209 578 209 597.5 224.5 c 128,-1,29
 617 240 617 240 626 255 c 1,30,-1
 617 264 l 2,31,32
 607 276 607 276 590.5 285.5 c 128,-1,33
 574 295 574 295 559 295 c 0,16,17
425 302 m 0,34,35
 408 331 408 331 380.5 330.5 c 128,-1,36
 353 330 353 330 321 313 c 1,37,-1
 323 299 l 2,38,39
 327 286 327 286 337.5 269.5 c 128,-1,40
 348 253 348 253 361 247.5 c 128,-1,41
 374 242 374 242 385 242 c 0,42,43
 396 243 396 243 405 245 c 0,44,45
 419 249 419 249 442 259 c 1,46,-1
 438 273 l 2,47,48
 436 285 436 285 425 302 c 0,34,35
347 487 m 0,49,50
 349 486 349 486 356.5 485 c 128,-1,51
 364 484 364 484 384 464.5 c 128,-1,52
 404 445 404 445 415 435 c 0,53,54
 427 426 427 426 449 415 c 0,55,56
 484 398 484 398 528 394 c 1,57,-1
 537 394 l 2,58,59
 567 391 567 391 622 418 c 0,60,61
 643 428 643 428 651 428 c 2,62,-1
 660 428 l 1,63,64
 690 421 690 421 689 348 c 0,65,66
 689 309 689 309 679 258 c 0,67,68
 659 163 659 163 616.5 97.5 c 128,-1,69
 574 32 574 32 520 2 c 0,70,71
 478 -22 478 -22 438 -22 c 0,72,73
 426 -22 426 -22 417 -21 c 2,74,-1
 416 -21 l 1,75,76
 365 -9 365 -9 328 38 c 0,77,78
 266 117 266 117 266 248 c 0,79,80
 266 289 266 289 272 336 c 0,81,82
 286 431 286 431 322 473 c 0,83,84
 334 487 334 487 347 487 c 0,49,50
150 494 m 2,85,86
 137 498 137 498 123.5 498 c 128,-1,87
 110 498 110 498 97 490 c 0,88,89
 83 484 83 484 72 461 c 128,-1,90
 61 438 61 438 62 418 c 1,91,-1
 75 413 l 2,92,93
 92 408 92 408 109 408 c 128,-1,94
 126 408 126 408 140.5 415.5 c 128,-1,95
 155 423 155 423 164 442.5 c 128,-1,96
 173 462 173 462 174.5 471.5 c 128,-1,97
 176 481 176 481 178 487 c 1,98,-1
 169 490 l 1,99,-1
 150 494 l 2,85,86
0 551 m 0,100,101
 0 621 0 621 23 621 c 0,102,103
 28 621 28 621 50.5 611 c 128,-1,104
 73 601 73 601 99 591 c 0,105,106
 123 581 123 581 145 581 c 0,107,108
 204 581 204 581 237.5 598 c 128,-1,109
 271 615 271 615 285 629.5 c 128,-1,110
 299 644 299 644 312 654 c 128,-1,111
 325 664 325 664 331.5 664.5 c 128,-1,112
 338 665 338 665 342 657 c 0,113,114
 379 608 379 608 387 500 c 1,115,116
 357 530 357 530 340 531 c 0,117,118
 335 532 335 532 330 532 c 0,119,120
 310 532 310 532 295 517 c 1,121,122
 282 523 282 523 256 512.5 c 128,-1,123
 230 502 230 502 219 493 c 1,124,-1
 222 483 l 1,125,126
 236 454 236 454 256 440 c 1,127,128
 244 407 244 407 238 368 c 1,129,130
 229 370 229 370 214.5 369.5 c 128,-1,131
 200 369 200 369 182.5 355.5 c 128,-1,132
 165 342 165 342 155 329.5 c 128,-1,133
 145 317 145 317 134.5 300.5 c 128,-1,134
 124 284 124 284 121 276.5 c 128,-1,135
 118 269 118 269 116 266 c 2,136,-1
 130 275 l 2,137,138
 143 283 143 283 175 295.5 c 128,-1,139
 207 308 207 308 231 309 c 1,140,141
 229 288 229 288 229 259 c 128,-1,142
 229 230 229 230 235 195 c 1,143,144
 231 195 231 195 229 195 c 0,145,146
 189 195 189 195 145 224 c 128,-1,147
 101 253 101 253 62 317 c 0,148,149
 25 380 25 380 8 472 c 0,150,151
 1 516 1 516 0 551 c 0,100,101
EndSplineSet
Validated: 1
EndChar

StartChar: train
Encoding: 57393 57393 80
Width: 483
VWidth: 828
Flags: W
HStem: -2 139<69.0625 141.874 342.126 412.219> 158 36<76.9324 140.068 342.932 407.259> 270 41<82.3448 134.655 348.345 409.257> 452 55<157.031 206.687 275.313 325.989> 562 40<160.551 322.348>
VStem: 14 57<197.246 258.655> 14 38<324.312 438.595> 219 45<324.312 438.595> 414 55<198.492 265.703> 432 37<317.109 446.875>
LayerCount: 2
Fore
SplineSet
93 137 m 2,0,-1
 150 137 l 2,1,2
 160 137 160 137 159 125 c 2,3,-1
 142 10 l 2,4,5
 138 -2 138 -2 128 -2 c 2,6,-1
 7 -2 l 2,7,8
 -3 -2 -3 -2 2 8 c 2,9,-1
 76 127 l 2,10,11
 83 137 83 137 93 137 c 2,0,-1
324 125 m 2,12,13
 324 136 324 136 333 137 c 2,14,-1
 389 137 l 2,15,16
 399 137 399 137 405 127 c 2,17,-1
 482 8 l 2,18,19
 486 -2 486 -2 476 -2 c 2,20,-1
 355 -2 l 2,21,22
 346 -2 346 -2 342 10 c 2,23,-1
 324 125 l 2,12,13
374 270 m 128,-1,25
 359 270 359 270 348 259 c 128,-1,26
 337 248 337 248 337 232.5 c 128,-1,27
 337 217 337 217 348 205.5 c 128,-1,28
 359 194 359 194 374 194 c 128,-1,29
 389 194 389 194 401.5 205.5 c 128,-1,30
 414 217 414 217 414 232.5 c 128,-1,31
 414 248 414 248 401.5 259 c 128,-1,24
 389 270 389 270 374 270 c 128,-1,25
108.5 270 m 128,-1,33
 93 270 93 270 82 259 c 128,-1,34
 71 248 71 248 71 232.5 c 128,-1,35
 71 217 71 217 82 205.5 c 128,-1,36
 93 194 93 194 108.5 194 c 128,-1,37
 124 194 124 194 135 205.5 c 128,-1,38
 146 217 146 217 146 232.5 c 128,-1,39
 146 248 146 248 135 259 c 128,-1,32
 124 270 124 270 108.5 270 c 128,-1,33
297 452 m 2,40,41
 285 452 285 452 275 447 c 1,42,-1
 269 439 l 1,43,44
 265 426 265 426 264 418 c 2,45,-1
 264 344 l 2,46,47
 264 333 264 333 269 324 c 2,48,-1
 275 317 l 1,49,50
 286 312 286 312 297 311 c 2,51,-1
 399 311 l 2,52,53
 412 312 412 312 421 317 c 1,54,-1
 426 324 l 2,55,56
 432 334 432 334 432 344 c 2,57,-1
 432 418 l 2,58,59
 432 430 432 430 426 439 c 2,60,-1
 421 447 l 1,61,62
 410 451 410 451 399 452 c 2,63,-1
 297 452 l 2,40,41
83 452 m 2,64,65
 73 452 73 452 63 447 c 1,66,-1
 57 439 l 1,67,68
 53 426 53 426 52 418 c 2,69,-1
 52 344 l 2,70,71
 52 334 52 334 57 324 c 2,72,-1
 63 317 l 1,73,74
 74 312 74 312 83 311 c 2,75,-1
 186 311 l 2,76,77
 198 312 198 312 207 317 c 2,78,-1
 215 324 l 1,79,80
 219 334 219 334 219 344 c 2,81,-1
 219 418 l 2,82,83
 219 430 219 430 215 439 c 2,84,-1
 207 447 l 1,85,86
 197 451 197 451 186 452 c 2,87,-1
 83 452 l 2,64,65
242 562 m 128,-1,89
 206 562 206 562 181 553 c 128,-1,90
 156 544 156 544 156 533.5 c 128,-1,91
 156 523 156 523 181 515 c 128,-1,92
 206 507 206 507 242 507 c 128,-1,93
 278 507 278 507 302.5 515 c 128,-1,94
 327 523 327 523 327 533.5 c 128,-1,95
 327 544 327 544 302.5 553 c 128,-1,88
 278 562 278 562 242 562 c 128,-1,89
24 158 m 2,96,97
 14 158 14 158 14 169 c 2,98,-1
 14 464 l 2,99,100
 14 476 14 476 20 482 c 2,101,-1
 41 504 l 2,102,103
 62 527 62 527 93 554 c 128,-1,104
 124 581 124 581 144 588 c 0,105,106
 179 602 179 602 242 602 c 128,-1,107
 305 602 305 602 340 588 c 0,108,109
 358 582 358 582 395 548 c 128,-1,110
 432 514 432 514 463 482 c 0,111,112
 469 476 469 476 469 464 c 2,113,-1
 469 169 l 2,114,115
 469 165 469 165 466 161.5 c 128,-1,116
 463 158 463 158 459 158 c 2,117,-1
 24 158 l 2,96,97
EndSplineSet
Validated: 1
EndChar

StartChar: viewpoint
Encoding: 57394 57394 81
Width: 585
VWidth: 828
Flags: W
HStem: 499 77<104 229 356 480>
VStem: 0 176<-0.383301 198.812> 104 125<499 576> 263 63<262 462> 356 124<499 576> 407 178<-0.820312 197.404>
LayerCount: 2
Fore
SplineSet
356 462 m 1,0,-1
 506 462 l 1,1,-1
 585 171 l 1,2,-1
 585 14 l 2,3,4
 585 5 585 5 559 -2 c 128,-1,5
 533 -9 533 -9 497 -9 c 128,-1,6
 461 -9 461 -9 434.5 -2.5 c 128,-1,7
 408 4 408 4 408 14 c 1,8,-1
 407 14 l 1,9,-1
 407 238 l 1,10,-1
 356 238 l 1,11,-1
 356 462 l 1,0,-1
263 462 m 1,12,-1
 326 462 l 1,13,-1
 326 262 l 1,14,-1
 263 262 l 1,15,-1
 263 462 l 1,12,-1
75 462 m 1,16,-1
 229 462 l 1,17,-1
 229 238 l 1,18,-1
 176 238 l 1,19,-1
 176 14 l 2,20,21
 173 5 173 5 148.5 -2 c 128,-1,22
 124 -9 124 -9 88 -9 c 128,-1,23
 52 -9 52 -9 27 -2.5 c 128,-1,24
 2 4 2 4 0 14 c 2,25,-1
 0 171 l 1,26,-1
 75 462 l 1,16,-1
356 576 m 1,27,-1
 480 576 l 1,28,-1
 480 499 l 1,29,-1
 356 499 l 1,30,-1
 356 576 l 1,27,-1
104 576 m 1,31,-1
 229 576 l 1,32,-1
 229 499 l 1,33,-1
 104 499 l 1,34,-1
 104 576 l 1,31,-1
EndSplineSet
Validated: 1
EndChar

StartChar: tram
Encoding: 57395 57395 82
Width: 305
VWidth: 828
Flags: W
HStem: -4 77<56 90 216 248> 97 42<123.407 182.655> 225 46<123.407 182.655> 467 40<102.689 205.187> 538 35<13.6722 42 82 224 262 292.328>
VStem: 0 110<151.892 212.108> 0 36<271 406.492> 194 111<151.892 212.108> 266 39<271 418.179>
LayerCount: 2
Fore
SplineSet
204 73 m 1,0,-1
 248 73 l 1,1,-1
 298 -4 l 1,2,-1
 216 -4 l 1,3,-1
 204 73 l 1,0,-1
56 73 m 1,4,-1
 102 73 l 1,5,-1
 90 -4 l 1,6,-1
 6 -4 l 1,7,-1
 56 73 l 1,4,-1
154 225 m 128,-1,9
 136 225 136 225 123 212.5 c 128,-1,10
 110 200 110 200 110 182 c 128,-1,11
 110 164 110 164 123 151.5 c 128,-1,12
 136 139 136 139 154 139 c 128,-1,13
 172 139 172 139 183 151.5 c 128,-1,14
 194 164 194 164 194 182 c 128,-1,15
 194 200 194 200 183 212.5 c 128,-1,8
 172 225 172 225 154 225 c 128,-1,9
152 467 m 128,-1,17
 128 467 128 467 109 459.5 c 128,-1,18
 90 452 90 452 77 440 c 128,-1,19
 64 428 64 428 58 415 c 0,20,21
 36 379 36 379 36 342 c 2,22,-1
 36 271 l 1,23,-1
 266 271 l 1,24,-1
 266 341 l 2,25,26
 266 355 266 355 261 377.5 c 128,-1,27
 256 400 256 400 249 414.5 c 128,-1,28
 242 429 242 429 229 440.5 c 128,-1,29
 216 452 216 452 196 459.5 c 128,-1,16
 176 467 176 467 152 467 c 128,-1,17
82 538 m 1,30,-1
 102 501 l 1,31,32
 124 507 124 507 152 507.5 c 128,-1,33
 180 508 180 508 206 501 c 1,34,-1
 224 538 l 1,35,-1
 82 538 l 1,30,-1
26 573 m 2,36,-1
 280 573 l 2,37,38
 287 573 287 573 292.5 568 c 128,-1,39
 298 563 298 563 298 555.5 c 128,-1,40
 298 548 298 548 293 543 c 128,-1,41
 288 538 288 538 280 538 c 2,42,-1
 262 538 l 1,43,-1
 236 486 l 1,44,45
 278 459 278 459 291 414 c 128,-1,46
 304 369 304 369 303 345 c 1,47,-1
 305 333 l 1,48,-1
 305 97 l 1,49,-1
 0 97 l 1,50,-1
 0 345 l 2,51,52
 0 367 0 367 10 399 c 0,53,54
 28 460 28 460 70 487 c 1,55,-1
 42 538 l 1,56,-1
 26 538 l 2,57,58
 19 538 19 538 13.5 543 c 128,-1,59
 8 548 8 548 8 555.5 c 128,-1,60
 8 563 8 563 13.5 568 c 128,-1,61
 19 573 19 573 26 573 c 2,36,-1
EndSplineSet
Validated: 1
EndChar

StartChar: tree_cinofer
Encoding: 57396 57396 83
Width: 536
VWidth: 828
Flags: W
HStem: -23 44<234.47 313.251> 87 143<333.938 431.875> 312 128<227.065 317.432> 312 108<236.589 313.75>
LayerCount: 2
Fore
SplineSet
276 420 m 2,0,1
 288 420 288 420 297 430 c 128,-1,2
 306 440 306 440 314 440 c 128,-1,3
 322 440 322 440 341 425 c 128,-1,4
 360 410 360 410 380 380.5 c 128,-1,5
 400 351 400 351 417 325.5 c 128,-1,6
 434 300 434 300 442 293 c 1,7,8
 415 263 415 263 383.5 262.5 c 128,-1,9
 352 262 352 262 321 287 c 128,-1,10
 290 312 290 312 268 312 c 0,11,12
 236 312 236 312 216 274 c 0,13,14
 204 252 204 252 182 252 c 0,15,16
 159 252 159 252 138.5 267 c 128,-1,17
 118 282 118 282 96 282 c 0,18,19
 94 282 94 282 92 282 c 1,20,21
 102 293 102 293 133 336.5 c 128,-1,22
 164 380 164 380 190 401.5 c 128,-1,23
 216 423 216 423 221 435 c 128,-1,24
 226 447 226 447 228 449 c 2,25,-1
 228 448 l 2,26,27
 231 448 231 448 245.5 434 c 128,-1,28
 260 420 260 420 274 420 c 2,29,-1
 276 420 l 2,0,1
234 25 m 1,30,31
 249 21 249 21 269.5 21 c 128,-1,32
 290 21 290 21 314 32 c 1,33,-1
 326 -24 l 1,34,-1
 226 -23 l 1,35,36
 230 -2 230 -2 234 25 c 1,30,31
432 74 m 0,37,38
 414 88 414 88 390 87 c 128,-1,39
 366 86 366 86 334 65 c 0,40,41
 266 19 266 19 188 65 c 0,42,43
 122 102 122 102 34 78 c 2,44,-1
 0 70 l 1,45,-1
 126 243 l 1,46,-1
 138 236 l 1,47,48
 160 218 160 218 182 220 c 0,49,50
 215 220 215 220 232.5 250.5 c 128,-1,51
 250 281 250 281 270 281 c 128,-1,52
 290 281 290 281 318 259 c 0,53,54
 352 231 352 231 386 230 c 0,55,56
 406 230 406 230 424 238 c 1,57,-1
 432 244 l 1,58,-1
 536 68 l 1,59,-1
 522 62 l 2,60,61
 502 54 502 54 479 53.5 c 128,-1,62
 456 53 456 53 432 74 c 0,37,38
258 460 m 0,63,64
 244 473 244 473 238 474 c 128,-1,65
 232 475 232 475 226 475 c 128,-1,66
 220 475 220 475 214 467.5 c 128,-1,67
 208 460 208 460 204 449 c 0,68,69
 192 422 192 422 166 418 c 0,70,71
 164 416 164 416 162 418 c 0,72,73
 154 418 154 418 134 443 c 1,74,75
 162 457 162 457 216 553 c 0,76,77
 238 594 238 594 258 651 c 1,78,79
 292 562 292 562 356 490 c 0,80,81
 370 476 370 476 378 466 c 2,82,-1
 384 461 l 1,83,84
 378 449 378 449 360 448 c 0,85,86
 338 448 338 448 306 471 c 0,87,88
 303 473 303 473 300.5 472.5 c 128,-1,89
 298 472 298 472 293 459.5 c 128,-1,90
 288 447 288 447 282 446 c 2,91,-1
 274 446 l 2,92,93
 270 447 270 447 258 460 c 0,63,64
EndSplineSet
Validated: 1
EndChar

StartChar: university
Encoding: 57397 57397 84
Width: 730
VWidth: 828
Flags: W
VStem: 5 58<-6.48364 274> 16 37<64.3188 277.78>
LayerCount: 2
Fore
SplineSet
63 64 m 1,0,-1
 63 51 l 2,1,2
 60 47 60 47 60.5 41.5 c 128,-1,3
 61 36 61 36 63 30 c 128,-1,4
 65 24 65 24 65 23 c 0,5,6
 65 15 65 15 50 1 c 128,-1,7
 35 -13 35 -13 24 -13 c 0,8,9
 8 -14 8 -14 2 4 c 0,10,11
 -2 18 -2 18 4.5 32 c 128,-1,12
 11 46 11 46 5 52 c 1,13,-1
 5 64 l 1,14,15
 16 74 16 74 16 110 c 2,16,-1
 16 257 l 2,17,18
 16 271 16 271 21 278 c 128,-1,19
 26 285 26 285 33.5 280.5 c 128,-1,20
 41 276 41 276 47 263.5 c 128,-1,21
 53 251 53 251 53 236 c 2,22,-1
 53 110 l 2,23,24
 53 74 53 74 63 64 c 1,0,-1
424 110 m 2,25,-1
 576 197 l 2,26,27
 583 201 583 201 593 181.5 c 128,-1,28
 603 162 603 162 610.5 137.5 c 128,-1,29
 618 113 618 113 617.5 101.5 c 128,-1,30
 617 90 617 90 609.5 75 c 128,-1,31
 602 60 602 60 592 53 c 2,32,-1
 401 -30 l 2,33,34
 388 -36 388 -36 369 -36 c 0,35,36
 348 -37 348 -37 338 -30 c 2,37,-1
 147 52 l 2,38,39
 137 60 137 60 129.5 74 c 128,-1,40
 122 88 122 88 122 95 c 2,41,-1
 122 105 l 1,42,-1
 128 181 l 2,43,44
 130 195 130 195 140 199 c 128,-1,45
 150 203 150 203 162 197 c 2,46,-1
 313 110 l 2,47,48
 350 88 350 88 360 82 c 128,-1,49
 370 76 370 76 383 85 c 128,-1,50
 396 94 396 94 424 110 c 2,25,-1
26 340 m 2,51,52
 13 347 13 347 14.5 356 c 128,-1,53
 16 365 16 365 28 369 c 2,54,-1
 347 476 l 2,55,56
 360 480 360 480 370 482 c 2,57,-1
 382 482 l 2,58,59
 399 482 399 482 412 476 c 2,60,-1
 716 369 l 2,61,62
 730 365 730 365 730 355.5 c 128,-1,63
 730 346 730 346 719 339 c 2,64,-1
 403 155 l 2,65,66
 391 148 391 148 382 148 c 2,67,-1
 372 148 l 2,68,69
 355 148 355 148 341 155 c 2,70,-1
 26 340 l 2,51,52
EndSplineSet
Validated: 1
EndChar

StartChar: tram_stop
Encoding: 57398 57398 85
Width: 420
VWidth: 828
Flags: W
HStem: 1 30<2.05444 108 175 286.843> 153 50<245 301> 454 62<175.063 374.34>
VStem: 74 133<551.207 641.434> 108 137<203 410> 108 67<31 153 410 454 515 560.206> 301 119<203.035 410> 375 45<410 453.346>
LayerCount: 2
Fore
SplineSet
375 410 m 1,0,-1
 375 454 l 1,1,-1
 175 454 l 1,2,-1
 175 410 l 1,3,-1
 245 410 l 1,4,-1
 245 203 l 1,5,-1
 301 203 l 1,6,-1
 301 410 l 1,7,-1
 375 410 l 1,0,-1
349 516 m 2,8,9
 379 516 379 516 400 496.5 c 128,-1,10
 421 477 421 477 420 450 c 2,11,-1
 420 220 l 2,12,13
 420 193 420 193 400 173 c 128,-1,14
 380 153 380 153 349 153 c 2,15,-1
 175 153 l 1,16,-1
 175 31 l 1,17,-1
 274 31 l 2,18,19
 282 31 282 31 287 26.5 c 128,-1,20
 292 22 292 22 292 16 c 128,-1,21
 292 10 292 10 286.5 5.5 c 128,-1,22
 281 1 281 1 274 1 c 2,23,-1
 16 1 l 2,24,25
 11 1 11 1 5.5 5.5 c 128,-1,26
 0 10 0 10 0 16 c 0,27,28
 -1 22 -1 22 5 26 c 0,29,30
 10 30 10 30 16 31 c 2,31,-1
 108 31 l 1,32,-1
 108 544 l 1,33,34
 74 561 74 561 74 592.5 c 128,-1,35
 74 624 74 624 93.5 642 c 128,-1,36
 113 660 113 660 140 660 c 128,-1,37
 167 660 167 660 187 642 c 0,38,39
 207 626 207 626 207 593 c 0,40,41
 207 562 207 562 175 544 c 1,42,-1
 175 515 l 2,43,44
 177 516 177 516 180 516 c 2,45,-1
 349 516 l 2,8,9
EndSplineSet
Validated: 1
EndChar

StartChar: underground
Encoding: 57399 57399 86
Width: 664
VWidth: 828
Flags: W
HStem: -4 118<194 242 428 478> 137 47<181.282 227.687 447.282 499.741> 250 53<181.282 227.687 439.485 499.895> 491 41<239.498 434.23> 580 78<201.195 465.819>
VStem: 0 80<45 470.137> 118 53<193.282 238.202 303 432.505> 500 52<187.485 248.432 303 432.25> 586 78<45 472.648>
LayerCount: 2
Fore
SplineSet
410 114 m 1,0,-1
 478 114 l 1,1,-1
 552 -4 l 1,2,-1
 428 -4 l 1,3,-1
 410 114 l 1,0,-1
194 114 m 1,4,-1
 260 114 l 1,5,-1
 242 -4 l 1,6,-1
 118 -4 l 1,7,-1
 194 114 l 1,4,-1
204 248 m 128,-1,9
 190 248 190 248 181 238.5 c 128,-1,10
 172 229 172 229 172 215.5 c 128,-1,11
 172 202 172 202 181 193 c 128,-1,12
 190 184 190 184 204 184 c 128,-1,13
 218 184 218 184 228 193 c 128,-1,14
 238 202 238 202 238 215.5 c 128,-1,15
 238 229 238 229 228 238.5 c 128,-1,8
 218 248 218 248 204 248 c 128,-1,9
468 250 m 128,-1,17
 456 250 456 250 447 240.5 c 128,-1,18
 438 231 438 231 438 217.5 c 128,-1,19
 438 204 438 204 447 195 c 128,-1,20
 456 186 456 186 468 186 c 128,-1,21
 480 186 480 186 491 195 c 128,-1,22
 502 204 502 204 502 217.5 c 128,-1,23
 502 231 502 231 491 240.5 c 128,-1,16
 480 250 480 250 468 250 c 128,-1,17
336 491 m 0,24,25
 257 491 257 491 213.5 454.5 c 128,-1,26
 170 418 170 418 171 363 c 2,27,-1
 171 303 l 1,28,-1
 500 303 l 1,29,-1
 500 377 l 1,30,31
 496 410 496 410 468 446 c 0,32,33
 454 464 454 464 418.5 477.5 c 128,-1,34
 383 491 383 491 336 491 c 0,24,25
334 532 m 0,35,36
 380 532 380 532 417 521 c 128,-1,37
 454 510 454 510 475 497.5 c 128,-1,38
 496 485 496 485 514 465 c 0,39,40
 540 434 540 434 548 396 c 0,41,42
 552 379 552 379 552 373 c 2,43,-1
 552 137 l 1,44,-1
 118 137 l 1,45,-1
 118 373 l 1,46,47
 130 435 130 435 156 465 c 0,48,49
 212 532 212 532 334 532 c 0,35,36
336 658 m 128,-1,51
 508 658 508 658 594 566 c 0,52,53
 652 508 652 508 662 410 c 0,54,55
 664 395 664 395 664 385 c 2,56,-1
 664 45 l 1,57,-1
 586 45 l 1,58,-1
 586 388 l 2,59,60
 587 392 587 392 586.5 404.5 c 128,-1,61
 586 417 586 417 576 447 c 0,62,63
 528 579 528 579 338 580 c 2,64,-1
 336 580 l 2,65,66
 146 580 146 580 94 455 c 0,67,68
 80 423 80 423 80 408.5 c 128,-1,69
 80 394 80 394 80 387 c 2,70,-1
 80 45 l 1,71,-1
 0 45 l 1,72,-1
 0 386 l 2,73,74
 0 444 0 444 32 508 c 0,75,76
 48 540 48 540 74 566 c 0,77,50
 164 658 164 658 336 658 c 128,-1,51
EndSplineSet
Validated: 1
EndChar

StartChar: adit
Encoding: 57400 57400 87
Width: 697
VWidth: 828
Flags: W
HStem: 176 150<319.625 384.625>
LayerCount: 2
Fore
SplineSet
500 334 m 2,0,-1
 437 270 l 2,1,2
 429 262 429 262 428.5 249.5 c 128,-1,3
 428 237 428 237 437 229 c 2,4,-1
 606 60 l 2,5,6
 615 51 615 51 615 39 c 128,-1,7
 615 27 615 27 606 17 c 2,8,-1
 586 -3 l 2,9,10
 578 -11 578 -11 566 -11.5 c 128,-1,11
 554 -12 554 -12 544 -3 c 2,12,-1
 374 166 l 2,13,14
 366 175 366 175 353 175.5 c 128,-1,15
 340 176 340 176 332 166 c 2,16,-1
 173 6 l 2,17,18
 165 -3 165 -3 152.5 -3 c 128,-1,19
 140 -3 140 -3 130 6 c 2,20,-1
 110 27 l 2,21,22
 101 36 101 36 100.5 48 c 128,-1,23
 100 60 100 60 110 70 c 2,24,-1
 269 229 l 2,25,26
 277 237 277 237 277.5 249.5 c 128,-1,27
 278 262 278 262 269 270 c 2,28,-1
 202 338 l 2,29,30
 193 346 193 346 181 346.5 c 128,-1,31
 169 347 169 347 160 338 c 2,32,-1
 140 318 l 2,33,34
 132 310 132 310 117 303 c 128,-1,35
 102 296 102 296 89 296 c 2,36,-1
 28 296 l 2,37,38
 15 296 15 296 7.5 304.5 c 128,-1,39
 0 313 0 313 0 326 c 2,40,-1
 2 391 l 2,41,42
 3 404 3 404 9.5 418 c 128,-1,43
 16 432 16 432 24 440 c 0,44,45
 103 519 103 519 183 600 c 0,46,47
 192 609 192 609 204 608.5 c 128,-1,48
 216 608 216 608 224 600 c 2,49,-1
 302 523 l 2,50,51
 311 514 311 514 311 502 c 0,52,53
 312 490 312 490 302 481 c 2,54,-1
 266 444 l 2,55,56
 257 435 257 435 256.5 422.5 c 128,-1,57
 256 410 256 410 266 400 c 2,58,-1
 332 334 l 2,59,60
 340 326 340 326 353 326 c 0,61,62
 367 326 367 326 374 334 c 2,63,-1
 437 397 l 2,64,65
 445 405 445 405 445.5 417.5 c 128,-1,66
 446 430 446 430 437 437 c 2,67,-1
 395 481 l 2,68,69
 386 490 386 490 386 501 c 128,-1,70
 386 512 386 512 395 523 c 2,71,-1
 472 600 l 2,72,73
 481 609 481 609 493 608.5 c 128,-1,74
 505 608 505 608 515 600 c 2,75,-1
 552 564 l 2,76,77
 556 560 556 560 562.5 552 c 128,-1,78
 569 544 569 544 597 518 c 2,79,-1
 673 440 l 2,80,81
 680 431 680 431 688 417 c 128,-1,82
 696 403 696 403 697 391 c 2,83,-1
 697 326 l 2,84,85
 698 313 698 313 689.5 304.5 c 128,-1,86
 681 296 681 296 670 296 c 2,87,-1
 608 296 l 2,88,89
 595 296 595 296 580.5 303 c 128,-1,90
 566 310 566 310 559 318 c 2,91,-1
 541 334 l 2,92,93
 533 342 533 342 520.5 342 c 128,-1,94
 508 342 508 342 500 334 c 2,0,-1
EndSplineSet
Validated: 1
EndChar

StartChar: post_office
Encoding: 57401 57401 88
Width: 724
VWidth: 828
Flags: W
HStem: 2 197<212.656 290.781 434.562 505.062> 2 120<326.52 399.48>
VStem: 531 193<214.188 282.938>
LayerCount: 2
Fore
SplineSet
699 412 m 2,0,1
 709 421 709 421 716.5 417.5 c 128,-1,2
 724 414 724 414 724 399 c 2,3,-1
 724 74 l 2,4,5
 724 61 724 61 717 57 c 128,-1,6
 710 53 710 53 701 63 c 2,7,-1
 540 227 l 2,8,9
 531 237 531 237 531 249.5 c 128,-1,10
 531 262 531 262 540 272 c 2,11,-1
 699 412 l 2,0,1
182 273 m 2,12,13
 192 265 192 265 191.5 251.5 c 128,-1,14
 191 238 191 238 182 229 c 2,15,-1
 26 67 l 2,16,17
 16 57 16 57 8 60 c 128,-1,18
 0 63 0 63 0 78 c 2,19,-1
 0 399 l 2,20,21
 0 413 0 413 9 418 c 0,22,23
 16 422 16 422 26 412 c 2,24,-1
 182 273 l 2,12,13
76 453 m 2,25,26
 66 462 66 462 67.5 468 c 128,-1,27
 69 474 69 474 83 474 c 2,28,-1
 643 474 l 2,29,30
 656 474 656 474 657.5 468.5 c 128,-1,31
 659 463 659 463 648 453 c 2,32,-1
 386 219 l 2,33,34
 376 210 376 210 362 209.5 c 128,-1,35
 348 209 348 209 339 219 c 2,36,-1
 76 453 l 2,25,26
357 122 m 1,37,-1
 369 122 l 1,38,39
 382 129 382 129 407 151 c 2,40,-1
 449 190 l 2,41,42
 459 198 459 198 472.5 197.5 c 128,-1,43
 486 197 486 197 495 188 c 2,44,-1
 656 25 l 2,45,46
 665 15 665 15 663 8.5 c 128,-1,47
 661 2 661 2 647 2 c 2,48,-1
 74 2 l 2,49,50
 61 2 61 2 58.5 8.5 c 128,-1,51
 56 15 56 15 67 25 c 2,52,-1
 225 190 l 2,53,54
 236 199 236 199 250.5 199 c 128,-1,55
 265 199 265 199 276 190 c 2,56,-1
 319 151 l 2,57,58
 344 128 344 128 357 122 c 1,37,-1
EndSplineSet
Validated: 1
EndChar

StartChar: spring
Encoding: 57402 57402 89
Width: 445
VWidth: 828
Flags: W
HStem: -58 96<162.884 293.704> 84 73<123.313 197.953> 167 73<248.667 323.61>
LayerCount: 2
Fore
SplineSet
123 87 m 1,0,1
 180 42 180 42 223 38 c 1,2,3
 269 38 269 38 304 68 c 128,-1,4
 339 98 339 98 345 144 c 1,5,6
 324 168 324 168 304 167 c 0,7,8
 270 167 270 167 223.5 125.5 c 128,-1,9
 177 84 177 84 144 84 c 0,10,11
 133 83 133 83 123 87 c 1,0,1
324 236 m 1,12,13
 284 287 284 287 223 286 c 0,14,15
 177 286 177 286 142.5 256 c 128,-1,16
 108 226 108 226 100 181 c 1,17,18
 122 158 122 158 146 157 c 0,19,20
 173 157 173 157 216 193 c 0,21,22
 266 233 266 233 279.5 236.5 c 128,-1,23
 293 240 293 240 303 240 c 128,-1,24
 313 240 313 240 324 236 c 1,12,13
223 660 m 1,25,26
 282 509 282 509 351 391 c 0,27,28
 377 347 377 347 400 307 c 0,29,30
 446 225 446 225 445 164 c 0,31,32
 445 71 445 71 380 6.5 c 128,-1,33
 315 -58 315 -58 223.5 -58 c 128,-1,34
 132 -58 132 -58 66 6.5 c 128,-1,35
 0 71 0 71 0 164 c 0,36,37
 1 220 1 220 53 308 c 0,38,39
 77 348 77 348 103 392 c 0,40,41
 178 519 178 519 223 660 c 1,25,26
EndSplineSet
Validated: 1
EndChar

StartChar: stadium
Encoding: 57403 57403 90
Width: 744
VWidth: 828
Flags: W
HStem: -30 83<298.704 424.812> 104 70<265.672 457.96> 194 31<169.742 554.141> 314 79<138.251 338 360 584.422> 455 22<706.291 724.907>
VStem: 18 20<337 409.906> 292 139<-23.2963 46.8118> 336 24<393 521.611> 626 22<361 412.166>
LayerCount: 2
Fore
SplineSet
720 237 m 1026,0,-1
2 237 m 2,1,2
 14 212 14 212 114 193 c 128,-1,3
 214 174 214 174 362 174 c 128,-1,4
 510 174 510 174 609 193 c 128,-1,5
 708 212 708 212 720 237 c 2,6,-1
 654 61 l 1,7,-1
 652 61 l 1,8,9
 652 39 652 39 599 21.5 c 128,-1,10
 546 4 546 4 462 -4 c 1,11,-1
 462 86 l 2,12,13
 462 92 462 92 457 98 c 128,-1,14
 452 104 452 104 446 104 c 2,15,-1
 278 104 l 2,16,17
 271 104 271 104 265.5 99 c 128,-1,18
 260 94 260 94 260 86 c 2,19,-1
 260 -4 l 1,20,21
 175 3 175 3 122.5 20.5 c 128,-1,22
 70 38 70 38 70 61 c 1,23,-1
 68 61 l 1,24,-1
 2 237 l 2,1,2
431 32 m 2,25,-1
 431 -8 l 2,26,27
 431 -17 431 -17 424.5 -23.5 c 128,-1,28
 418 -30 418 -30 410 -30 c 2,29,-1
 314 -30 l 2,30,31
 305 -30 305 -30 298.5 -23.5 c 128,-1,32
 292 -17 292 -17 292 -8 c 2,33,-1
 292 32 l 2,34,35
 292 41 292 41 299 47 c 128,-1,36
 306 53 306 53 314 53 c 2,37,-1
 410 53 l 2,38,39
 419 53 419 53 425 47 c 128,-1,40
 431 41 431 41 431 32 c 2,25,-1
360 393 m 1,41,-1
 362 393 l 2,42,43
 520 394 520 394 626 361 c 1,44,-1
 626 498 l 1,45,-1
 630 497 l 1,46,-1
 630 498 l 1,47,48
 645 491 645 491 666.5 487.5 c 128,-1,49
 688 484 688 484 709 477 c 128,-1,50
 730 470 730 470 744 455 c 1,51,52
 724 459 724 459 680 427 c 0,53,54
 660 413 660 413 648 405 c 1,55,-1
 648 353 l 1,56,57
 722 326 722 326 720 294 c 2,58,-1
 720 291 l 2,59,60
 720 254 720 254 629 226 c 128,-1,61
 538 198 538 198 400 194 c 1,62,-1
 324 194 l 1,63,64
 187 198 187 198 93.5 226 c 128,-1,65
 0 254 0 254 0 291 c 2,66,-1
 0 294 l 2,67,68
 0 308 0 308 18 321 c 1,69,-1
 18 497 l 1,70,-1
 18 498 l 1,71,72
 35 491 35 491 59.5 487.5 c 128,-1,73
 84 484 84 484 105 478 c 128,-1,74
 126 472 126 472 144 455 c 1,75,76
 142 456 142 456 138 456 c 0,77,78
 114 456 114 456 72 426 c 0,79,80
 52 411 52 411 38 405 c 1,81,-1
 38 337 l 1,82,83
 80 360 80 360 160 376 c 128,-1,84
 240 392 240 392 338 393 c 1,85,-1
 336 503 l 1,86,-1
 336 518 l 1,87,-1
 334 603 l 2,88,89
 335 603 335 603 343.5 599.5 c 128,-1,90
 352 596 352 596 376 592.5 c 128,-1,91
 400 589 400 589 421 583 c 128,-1,92
 442 577 442 577 458 561 c 1,93,94
 456 562 456 562 454 562 c 0,95,96
 432 563 432 563 390 534 c 0,97,98
 368 520 368 520 360 511 c 1,99,-1
 360 393 l 1,41,-1
616 270 m 128,-1,101
 616 289 616 289 542 301.5 c 128,-1,102
 468 314 468 314 362 314 c 128,-1,103
 256 314 256 314 181 301.5 c 128,-1,104
 106 289 106 289 106 270 c 128,-1,105
 106 251 106 251 181 238 c 128,-1,106
 256 225 256 225 362 225 c 128,-1,107
 468 225 468 225 542 238 c 128,-1,100
 616 251 616 251 616 270 c 128,-1,101
EndSplineSet
Validated: 1
EndChar

StartChar: swimming_pool
Encoding: 57404 57404 91
Width: 612
VWidth: 828
Flags: W
HStem: -13 60<92.3013 282.21> -8 25<399.392 546.5> 59 28<391.426 530.352> 133 34<394.232 528.5> 488 81<306.957 391.719> 576 78<130.437 202.814>
VStem: 34 72<188.377 259 328.065 413 489.132 565.808> 220 72<92.924 220.165 282 374.221 436.745 469.437>
LayerCount: 2
Fore
SplineSet
348 117 m 1,0,1
 401 167 401 167 462.5 166.5 c 128,-1,2
 524 166 524 166 572 119 c 0,3,4
 580 113 580 113 588 100 c 1,5,6
 530 134 530 134 466 133 c 0,7,8
 430 131 430 131 395.5 125 c 128,-1,9
 361 119 361 119 348 117 c 1,0,1
598 -26 m 1,10,11
 538 -9 538 -9 492 -8 c 2,12,-1
 474 -8 l 1,13,14
 430 -12 430 -12 389 -21 c 128,-1,15
 348 -30 348 -30 338 -32 c 1,16,17
 372 -2 372 -2 410 8 c 0,18,19
 464 23 464 23 496 17 c 0,20,21
 556 8 556 8 590 -17 c 1,22,-1
 598 -26 l 1,10,11
584 37 m 0,23,24
 538 59 538 59 486 59 c 2,25,-1
 472 59 l 2,26,27
 414 56 414 56 340 29.5 c 128,-1,28
 266 3 266 3 240 -5 c 128,-1,29
 214 -13 214 -13 182 -13 c 0,30,31
 124 -13 124 -13 70 22 c 0,32,33
 28 52 28 52 0 100 c 1,34,35
 86 48 86 48 198 47 c 0,36,37
 276 47 276 47 366 73 c 0,38,39
 422 87 422 87 463 86.5 c 128,-1,40
 504 86 504 86 545 67 c 128,-1,41
 586 48 586 48 610 24 c 1,42,-1
 612 21 l 1,43,44
 584 35 584 35 584 37 c 0,23,24
220 282 m 1,45,-1
 220 355 l 2,46,47
 220 365 220 365 210 369 c 0,48,49
 170 387 170 387 106 413 c 1,50,51
 106 351 106 351 106 341 c 0,52,53
 106 330 106 330 110 328 c 0,54,55
 134 318 134 318 220 282 c 1,45,-1
222 128 m 2,56,-1
 220 202 l 2,57,58
 220 211 220 211 216 212 c 0,59,60
 192 223 192 223 108 259 c 1,61,62
 108 218 108 218 108 215 c 0,63,64
 107 197 107 197 95.5 186 c 128,-1,65
 84 175 84 175 72 175 c 2,66,-1
 70 175 l 2,67,68
 55 176 55 176 44.5 188 c 128,-1,69
 34 200 34 200 34 219 c 0,70,71
 31 456 31 456 31.5 515 c 128,-1,72
 32 574 32 574 65 612.5 c 128,-1,73
 98 651 98 651 148 654 c 2,74,-1
 158 654 l 2,75,76
 216 654 216 654 260 602 c 1,77,-1
 262 599 l 2,78,79
 269 589 269 589 269.5 575 c 128,-1,80
 270 561 270 561 259 550 c 128,-1,81
 248 539 248 539 232 539 c 128,-1,82
 216 539 216 539 204 553 c 0,83,84
 187 566 187 566 177.5 571 c 128,-1,85
 168 576 168 576 156 576 c 128,-1,86
 144 576 144 576 130 568 c 0,87,88
 108 554 108 554 106 524 c 0,89,90
 103 493 103 493 108 489 c 0,91,92
 112 484 112 484 130 475 c 128,-1,93
 148 466 148 466 175 455.5 c 128,-1,94
 202 445 202 445 210 440 c 2,95,-1
 218 436 l 1,96,97
 222 460 222 460 222 464 c 0,98,99
 232 513 232 513 268 541 c 128,-1,100
 304 569 304 569 340 569 c 2,101,-1
 346 569 l 1,102,103
 418 563 418 563 458 501 c 0,104,105
 469 489 469 489 468.5 475 c 128,-1,106
 468 461 468 461 457 448.5 c 128,-1,107
 446 436 446 436 430 437 c 0,108,109
 406 437 406 437 396 462 c 1,110,111
 378 488 378 488 350 488 c 0,112,113
 321 488 321 488 306.5 470 c 128,-1,114
 292 452 292 452 292 430 c 2,115,-1
 296 128 l 2,116,117
 296 97 296 97 272 87 c 0,118,119
 254 79 254 79 238.5 92.5 c 128,-1,120
 223 106 223 106 222 128 c 2,56,-1
EndSplineSet
Validated: 1
EndChar

StartChar: cityhall
Encoding: 57405 57405 92
Width: 617
VWidth: 828
Flags: W
HStem: 0 57<38 88 133 182 443 494 530 580> 130 42<38 88 133 182 443 494 530 580> 142 82<260.627 356.342> 190 62<47.6875 200 416 568.312> 282 21<318 350.906> 362 61<260.627 358.923>
VStem: 0 38<57 130> 88 45<57 130> 182 76<57 129.781> 200 40<252.486 340.857> 294 28<529 578> 358 85<57 129.663> 378 38<252.486 338.904> 494 36<57 130> 580 37<57 130>
LayerCount: 2
Fore
SplineSet
580 130 m 1,0,-1
 530 130 l 1,1,-1
 530 57 l 1,2,-1
 580 57 l 1,3,-1
 580 130 l 1,0,-1
494 130 m 1,4,-1
 443 130 l 1,5,-1
 443 57 l 1,6,-1
 494 57 l 1,7,-1
 494 130 l 1,4,-1
378 292 m 128,-1,9
 378 321 378 321 357 341.5 c 128,-1,10
 336 362 336 362 308 362 c 128,-1,11
 280 362 280 362 260 341.5 c 128,-1,12
 240 321 240 321 240 292 c 128,-1,13
 240 263 240 263 260 243.5 c 128,-1,14
 280 224 280 224 308 224 c 128,-1,15
 336 224 336 224 357 243.5 c 128,-1,8
 378 263 378 263 378 292 c 128,-1,9
182 130 m 1,16,-1
 133 130 l 1,17,-1
 133 57 l 1,18,-1
 182 57 l 1,19,-1
 182 130 l 1,16,-1
88 130 m 1,20,-1
 38 130 l 1,21,-1
 38 57 l 1,22,-1
 88 57 l 1,23,-1
 88 130 l 1,20,-1
617 162 m 2,24,-1
 617 12 l 2,25,26
 617 8 617 8 613.5 4 c 128,-1,27
 610 0 610 0 606 0 c 2,28,-1
 358 0 l 1,29,-1
 358 121 l 1,30,31
 337 142 337 142 308.5 141.5 c 128,-1,32
 280 141 280 141 258 121 c 1,33,-1
 258 0 l 1,34,-1
 10 0 l 2,35,36
 6 0 6 0 3 3 c 128,-1,37
 0 6 0 6 0 12 c 2,38,-1
 0 162 l 2,39,40
 0 166 0 166 2 169 c 128,-1,41
 4 172 4 172 10 172 c 2,42,-1
 200 172 l 1,43,-1
 200 190 l 1,44,-1
 10 190 l 2,45,46
 6 190 6 190 4 192 c 128,-1,47
 2 194 2 194 6 195 c 2,48,-1
 64 244 l 2,49,50
 72 251 72 251 82 252 c 2,51,-1
 200 252 l 1,52,-1
 200 412 l 2,53,54
 200 416 200 416 204 419.5 c 128,-1,55
 208 423 208 423 212 423 c 2,56,-1
 406 423 l 2,57,58
 410 423 410 423 413 420 c 128,-1,59
 416 417 416 417 416 412 c 2,60,-1
 416 252 l 1,61,-1
 534 252 l 2,62,63
 544 252 544 252 552 244 c 2,64,-1
 610 195 l 2,65,66
 616 189 616 189 606 190 c 2,67,-1
 416 190 l 1,68,-1
 416 172 l 1,69,-1
 606 172 l 2,70,71
 610 172 610 172 613.5 169 c 128,-1,72
 617 166 617 166 617 162 c 2,24,-1
354 294 m 0,73,74
 354 282 354 282 344 282 c 2,75,-1
 312 282 l 2,76,77
 308 282 308 282 306 284 c 2,78,-1
 266 320 l 2,79,80
 258 327 258 327 264 336 c 0,81,82
 270 343 270 343 280 336 c 2,83,-1
 318 303 l 1,84,-1
 344 303 l 2,85,86
 348 303 348 303 351 300.5 c 128,-1,87
 354 298 354 298 354 294 c 0,73,74
296 626 m 1,88,89
 308 642 308 642 318 644 c 0,90,91
 330 644 330 644 340 635 c 128,-1,92
 350 626 350 626 361 618.5 c 128,-1,93
 372 611 372 611 385 612 c 128,-1,94
 398 613 398 613 408 626 c 1,95,-1
 408 564 l 1,96,97
 398 550 398 550 386 548 c 128,-1,98
 374 546 374 546 366 553 c 0,99,100
 338 574 338 574 322 578 c 1,101,-1
 322 529 l 1,102,-1
 430 438 l 1,103,-1
 186 438 l 1,104,-1
 294 529 l 1,105,-1
 294 626 l 1,106,-1
 296 626 l 1,88,89
EndSplineSet
Validated: 1
EndChar

StartChar: bus
Encoding: 57406 57406 93
Width: 530
VWidth: 828
Flags: W
HStem: -17 157<61.4644 123.871 407.84 478.16> 85 189<146 262 304 390> 220 54<71.704 127.77> 308 43<308.591 405.174> 399 167<65 195.957> 489 77<196 463.812>
VStem: 0 65<280.188 399> 0 54<151.861 207.624> 38 108<-2.56128 85> 390 106<-2.56128 85> 470 60<275.033 482.297> 482 48<144.054 215.77>
LayerCount: 2
Fore
SplineSet
54 179.5 m 128,-1,1
 54 163 54 163 65 151.5 c 128,-1,2
 76 140 76 140 92 140 c 128,-1,3
 108 140 108 140 120 151.5 c 128,-1,4
 132 163 132 163 132 179.5 c 128,-1,5
 132 196 132 196 120 208 c 128,-1,6
 108 220 108 220 92 220 c 128,-1,7
 76 220 76 220 65 208 c 128,-1,0
 54 196 54 196 54 179.5 c 128,-1,1
470 468 m 2,8,9
 470 476 470 476 464 482.5 c 128,-1,10
 458 489 458 489 448 489 c 2,11,-1
 196 489 l 1,12,-1
 196 423 l 2,13,14
 196 413 196 413 189 406 c 128,-1,15
 182 399 182 399 174 399 c 2,16,-1
 65 399 l 1,17,-1
 65 296 l 2,18,19
 65 286 65 286 71.5 280 c 128,-1,20
 78 274 78 274 88 274 c 2,21,-1
 262 274 l 1,22,23
 263 306 263 306 290.5 328.5 c 128,-1,24
 318 351 318 351 357 351 c 128,-1,25
 396 351 396 351 423 329 c 128,-1,26
 450 307 450 307 452 275 c 1,27,28
 459 276 459 276 464.5 283 c 128,-1,29
 470 290 470 290 470 296 c 2,30,-1
 470 468 l 2,8,9
482 179.5 m 128,-1,32
 482 196 482 196 470 208 c 128,-1,33
 458 220 458 220 443 220 c 128,-1,34
 428 220 428 220 416 208 c 128,-1,35
 404 196 404 196 404 179.5 c 128,-1,36
 404 163 404 163 416 151.5 c 128,-1,37
 428 140 428 140 443 140 c 128,-1,38
 458 140 458 140 470 151.5 c 128,-1,31
 482 163 482 163 482 179.5 c 128,-1,32
304 274 m 1,39,-1
 410 274 l 1,40,41
 409 288 409 288 392.5 298 c 128,-1,42
 376 308 376 308 356 308 c 128,-1,43
 336 308 336 308 320.5 298 c 128,-1,44
 305 288 305 288 304 274 c 1,39,-1
506 566 m 2,45,46
 516 566 516 566 523 558 c 128,-1,47
 530 550 530 550 530 540 c 2,48,-1
 530 108 l 2,49,50
 530 98 530 98 523 91.5 c 128,-1,51
 516 85 516 85 506 85 c 2,52,-1
 496 85 l 1,53,-1
 496 30 l 2,54,55
 496 10 496 10 481 -3.5 c 128,-1,56
 466 -17 466 -17 443 -17 c 128,-1,57
 420 -17 420 -17 405 -3 c 128,-1,58
 390 11 390 11 390 30 c 2,59,-1
 390 85 l 1,60,-1
 146 85 l 1,61,-1
 146 30 l 2,62,63
 146 10 146 10 131 -3.5 c 128,-1,64
 116 -17 116 -17 93 -17 c 128,-1,65
 70 -17 70 -17 54 -3 c 128,-1,66
 38 11 38 11 38 30 c 2,67,-1
 38 85 l 1,68,-1
 24 85 l 2,69,70
 14 85 14 85 7 91.5 c 128,-1,71
 0 98 0 98 0 108 c 2,72,-1
 0 540 l 2,73,74
 0 550 0 550 8 558 c 128,-1,75
 16 566 16 566 24 566 c 2,76,-1
 506 566 l 2,45,46
EndSplineSet
Validated: 1
EndChar

StartChar: volcano
Encoding: 57407 57407 94
Width: 603
VWidth: 828
Flags: W
HStem: 346 30<202.399 377.587> 399 25<274.469 322.996> 455 32<337 370.621> 577 39<208.183 313.842> 592 47<303.423 384.792>
VStem: 149 56<522.796 571.147> 178 36<467.305 527.744> 323 14<443.375 454.68>
LayerCount: 2
Fore
SplineSet
490 43 m 2,0,1
 501 29 501 29 503.5 31 c 128,-1,2
 506 33 506 33 498 49 c 2,3,-1
 397 307 l 2,4,5
 391 322 391 322 374 334 c 0,6,7
 358 346 358 346 342 346 c 2,8,-1
 229 344 l 2,9,10
 213 344 213 344 202 331 c 128,-1,11
 191 318 191 318 192 300 c 2,12,-1
 194 271 l 2,13,14
 195 253 195 253 202 251.5 c 128,-1,15
 209 250 209 250 217 264.5 c 128,-1,16
 225 279 225 279 236.5 278 c 128,-1,17
 248 277 248 277 253 260 c 2,18,-1
 275 202 l 2,19,20
 280 185 280 185 292 185 c 0,21,22
 302 185 302 185 311 199 c 2,23,-1
 320 214 l 2,24,25
 328 228 328 228 342 229 c 0,26,27
 355 229 355 229 366 217 c 2,28,-1
 490 43 l 2,0,1
603 21 m 0,29,30
 603 1 603 1 578 2 c 2,31,-1
 25 2 l 2,32,33
 8 2 8 2 3 13 c 0,34,35
 0 17 0 17 0 23.5 c 128,-1,36
 0 30 0 30 5 39 c 2,37,-1
 180 340 l 2,38,39
 188 355 188 355 205 365.5 c 128,-1,40
 222 376 222 376 231 376 c 2,41,-1
 361 376 l 2,42,43
 378 376 378 376 397 365.5 c 128,-1,44
 416 355 416 355 425 340 c 2,45,-1
 599 39 l 2,46,47
 603 29 603 29 603 21 c 0,29,30
274 428 m 0,48,49
 289 424 289 424 306 424 c 128,-1,50
 323 424 323 424 323 434 c 0,51,52
 323 441 323 441 317.5 452 c 128,-1,53
 312 463 312 463 312 469.5 c 128,-1,54
 312 476 312 476 317 482 c 128,-1,55
 322 488 322 488 328 487 c 2,56,-1
 332 487 l 2,57,58
 359 488 359 488 371 500 c 2,59,-1
 404 540 l 2,60,61
 412 548 412 548 408 552 c 2,62,-1
 403 561 l 1,63,64
 382 568 382 568 368 585 c 0,65,66
 361 592 361 592 343 592 c 0,67,68
 323 592 323 592 314 585 c 0,69,70
 309 578 309 578 298.5 575.5 c 128,-1,71
 288 573 288 573 282 575 c 128,-1,72
 276 577 276 577 256 577 c 128,-1,73
 236 577 236 577 220.5 568.5 c 128,-1,74
 205 560 205 560 205 546 c 2,75,-1
 205 537 l 1,76,77
 212 532 212 532 214 522.5 c 128,-1,78
 216 513 216 513 210.5 505.5 c 128,-1,79
 205 498 205 498 213.5 487.5 c 128,-1,80
 222 477 222 477 246 453 c 128,-1,81
 270 429 270 429 274 428 c 0,48,49
323 400 m 2,82,-1
 316 401 l 1,83,-1
 282 399 l 1,84,-1
 278 399 l 2,85,86
 275 398 275 398 270 400 c 0,87,88
 264 404 264 404 233 428 c 0,89,90
 183 468 183 468 178 490 c 1,91,-1
 178 493 l 1,92,93
 174 515 174 515 155 533 c 0,94,95
 149 540 149 540 149 555 c 0,96,97
 149 581 149 581 176.5 598.5 c 128,-1,98
 204 616 204 616 244 616 c 2,99,-1
 263 616 l 2,100,101
 273 613 273 613 286 615 c 128,-1,102
 299 617 299 617 313 628 c 128,-1,103
 327 639 327 639 352.5 639 c 128,-1,104
 378 639 378 639 399 621 c 2,105,-1
 406 616 l 2,106,107
 423 600 423 600 436 593 c 0,108,109
 464 579 464 579 464 555 c 0,110,111
 464 545 464 545 461 537.5 c 128,-1,112
 458 530 458 530 455 528 c 2,113,-1
 453 526 l 2,114,115
 436 510 436 510 426.5 499.5 c 128,-1,116
 417 489 417 489 410.5 482 c 128,-1,117
 404 475 404 475 382 465 c 128,-1,118
 360 455 360 455 350 455 c 2,119,-1
 337 455 l 2,120,121
 337 454 337 454 349 435 c 0,122,123
 353 427 353 427 346.5 413.5 c 128,-1,124
 340 400 340 400 323 400 c 2,82,-1
EndSplineSet
Validated: 1
EndChar

StartChar: architecture
Encoding: 57408 57408 95
Width: 664
VWidth: 828
Flags: W
HStem: 295 112<236.314 286.717 372.08 429.686> 332 75<109.533 150 516 556.467> 433 37<55.094 611.937> 498 103<0 660.39>
VStem: 150 77<4 284.171> 296 73<4 284.171> 440 76<4 284.171>
LayerCount: 2
Fore
SplineSet
0 587 m 2,0,1
 0 599 0 599 14 601 c 2,2,-1
 652 601 l 2,3,4
 657 601 657 601 660.5 597 c 128,-1,5
 664 593 664 593 664 587 c 2,6,-1
 664 510 l 2,7,8
 664 505 664 505 660 501.5 c 128,-1,9
 656 498 656 498 652 498 c 2,10,-1
 14 498 l 2,11,12
 9 498 9 498 4.5 501.5 c 128,-1,13
 0 505 0 505 0 510 c 2,14,-1
 0 587 l 2,0,1
614 441 m 2,15,16
 614 433 614 433 606 433 c 2,17,-1
 62 433 l 2,18,19
 58 433 58 433 55 435 c 128,-1,20
 52 437 52 437 52 441 c 2,21,-1
 52 463 l 2,22,23
 52 467 52 467 55 468.5 c 128,-1,24
 58 470 58 470 62 470 c 2,25,-1
 606 470 l 2,26,27
 610 470 610 470 612 468 c 128,-1,28
 614 466 614 466 614 463 c 2,29,-1
 614 441 l 2,15,16
92 407 m 1,30,-1
 574 407 l 1,31,-1
 574 383 l 2,32,33
 574 361 574 361 557 346.5 c 128,-1,34
 540 332 540 332 516 332 c 1,35,-1
 516 4 l 1,36,-1
 440 4 l 1,37,-1
 440 260 l 2,38,39
 440 274 440 274 430 284.5 c 128,-1,40
 420 295 420 295 405 295 c 128,-1,41
 390 295 390 295 380 284.5 c 128,-1,42
 370 274 370 274 369 260 c 2,43,-1
 369 4 l 1,44,-1
 296 4 l 1,45,-1
 296 260 l 2,46,47
 296 274 296 274 287 284.5 c 128,-1,48
 278 295 278 295 262 295 c 128,-1,49
 246 295 246 295 236 284.5 c 128,-1,50
 226 274 226 274 227 260 c 2,51,-1
 227 4 l 1,52,-1
 150 4 l 1,53,-1
 150 332 l 1,54,55
 126 332 126 332 109 347 c 128,-1,56
 92 362 92 362 92 383 c 2,57,-1
 92 407 l 1,30,-1
EndSplineSet
Validated: 1
EndChar

StartChar: arrow_up
Encoding: 57409 57409 96
Width: 543
VWidth: 828
Flags: W
VStem: 203 137<1.84473 296.326> 203 124<-13.625 295.573>
LayerCount: 2
Fore
SplineSet
528 234 m 2,0,-1
 371 297 l 2,1,2
 358 301 358 301 349 296.5 c 128,-1,3
 340 292 340 292 340 278 c 2,4,-1
 340 59 l 2,5,6
 340 28 340 28 327 1 c 0,7,8
 327 0 327 0 325 -4 c 0,9,10
 321 -13 321 -13 305 -24.5 c 128,-1,11
 289 -36 289 -36 272 -36.5 c 128,-1,12
 255 -37 255 -37 241 -27 c 128,-1,13
 227 -17 227 -17 222 -9 c 2,14,-1
 217 1 l 2,15,16
 204 29 204 29 203 59 c 2,17,-1
 203 278 l 2,18,19
 203 291 203 291 194.5 296.5 c 128,-1,20
 186 302 186 302 173 298 c 2,21,-1
 16 234 l 2,22,23
 4 229 4 229 1 232.5 c 128,-1,24
 -2 236 -2 236 5 246 c 2,25,-1
 255 644 l 2,26,27
 262 655 262 655 271.5 654.5 c 128,-1,28
 281 654 281 654 289 644 c 2,29,-1
 539 246 l 2,30,31
 545 236 545 236 542.5 232.5 c 128,-1,32
 540 229 540 229 528 234 c 2,0,-1
EndSplineSet
Validated: 1
EndChar

StartChar: archaeological
Encoding: 57410 57410 97
Width: 534
VWidth: 828
Flags: W
HStem: -2 74<341 390.079> 509 88<109.925 163.373>
VStem: 0 47<388.715 487.971> 47 344<214.363 319.422> 425 63<214.022 311.558> 488 46<387.204 488.341>
LayerCount: 2
Fore
SplineSet
461 383 m 1,0,1
 488 405 488 405 488 436 c 0,2,3
 488 468 488 468 467 489 c 128,-1,4
 446 510 446 510 418.5 509 c 128,-1,5
 391 508 391 508 371 491 c 0,6,7
 362 479 362 479 361 471.5 c 128,-1,8
 360 464 360 464 371 460 c 0,9,10
 430 428 430 428 461 383 c 1,0,1
375 159 m 0,11,12
 425 216 425 216 425 266 c 0,13,14
 425 294 425 294 405 310 c 0,15,16
 392 320 392 320 386 320 c 1,17,-1
 389 309 l 2,18,19
 391 301 391 301 391 292 c 0,20,21
 391 282 391 282 391 264 c 0,22,23
 391 247 391 247 380 224 c 0,24,25
 349 146 349 146 306 97 c 1,26,-1
 328 112 l 2,27,28
 348 126 348 126 375 159 c 0,11,12
166 460 m 0,29,30
 173 464 173 464 175 471 c 0,31,32
 175 479 175 479 164 491 c 0,33,34
 144 508 144 508 116.5 508 c 128,-1,35
 89 508 89 508 68 488 c 128,-1,36
 47 468 47 468 47 436.5 c 128,-1,37
 47 405 47 405 76 383 c 1,38,39
 103 428 103 428 166 460 c 0,29,30
290 597 m 2,40,41
 366 597 366 597 443 605 c 1,42,43
 445 583 445 583 427 556 c 1,44,45
 473 552 473 552 504 518.5 c 128,-1,46
 535 485 535 485 534 438 c 0,47,48
 534 407 534 407 520 381.5 c 128,-1,49
 506 356 506 356 483 340 c 1,50,51
 488 319 488 319 488 297 c 0,52,53
 488 252 488 252 461 205 c 0,54,55
 423 135 423 135 341 72 c 1,56,57
 374 62 374 62 393.5 47.5 c 128,-1,58
 413 33 413 33 413 17 c 0,59,60
 413 4 413 4 370.5 -2 c 128,-1,61
 328 -8 328 -8 268.5 -8 c 128,-1,62
 209 -8 209 -8 165 -2 c 128,-1,63
 121 4 121 4 121 17 c 0,64,65
 121 34 121 34 141 48.5 c 128,-1,66
 161 63 161 63 195 72 c 1,67,68
 112 135 112 135 74 205 c 0,69,70
 49 253 49 253 47 297 c 0,71,72
 47 319 47 319 54 340 c 1,73,74
 30 355 30 355 15 382 c 128,-1,75
 0 409 0 409 0 438 c 0,76,77
 0 484 0 484 31.5 518.5 c 128,-1,78
 63 553 63 553 108 556 c 1,79,80
 95 578 95 578 96 600 c 2,81,-1
 96 605 l 1,82,83
 172 595 172 595 211 596 c 0,84,85
 252 596 252 596 267 597 c 2,86,-1
 290 597 l 2,40,41
EndSplineSet
Validated: 1
EndChar

StartChar: arrow_up_double
Encoding: 57411 57411 98
Width: 652
VWidth: 828
Flags: W
HStem: 78 150<262.562 389.438> 394 151<262.562 389.438>
LayerCount: 2
Fore
SplineSet
652 -37 m 2,0,1
 652 -67 652 -67 626 -70 c 0,2,3
 617 -70 617 -70 607 -64 c 2,4,-1
 371 68 l 2,5,6
 353 79 353 79 326 78.5 c 128,-1,7
 299 78 299 78 281 68 c 2,8,-1
 45 -64 l 2,9,10
 34 -70 34 -70 25 -70 c 0,11,12
 0 -66 0 -66 0 -37 c 2,13,-1
 0 -6 l 2,14,15
 0 16 0 16 12.5 38.5 c 128,-1,16
 25 61 25 61 43 72 c 2,17,-1
 281 218 l 2,18,19
 299 231 299 231 326 228 c 2,20,-1
 328 228 l 2,21,22
 353 228 353 228 371 218 c 2,23,-1
 607 72 l 2,24,25
 625 60 625 60 638.5 37 c 128,-1,26
 652 14 652 14 652 -6 c 2,27,-1
 652 -37 l 2,0,1
45 253 m 2,28,29
 34 248 34 248 27 246 c 0,30,31
 0 246 0 246 0 278 c 2,32,-1
 0 310 l 2,33,34
 0 332 0 332 12.5 355 c 128,-1,35
 25 378 25 378 43 388 c 2,36,-1
 281 534 l 2,37,38
 299 546 299 546 325 545 c 128,-1,39
 351 544 351 544 371 534 c 2,40,-1
 607 388 l 2,41,42
 625 377 625 377 638.5 354 c 128,-1,43
 652 331 652 331 652 310 c 2,44,-1
 652 278 l 2,45,46
 652 256 652 256 637 250 c 0,47,48
 632 246 632 246 624.5 246 c 128,-1,49
 617 246 617 246 607 253 c 2,50,-1
 371 384 l 2,51,52
 353 394 353 394 326 394 c 128,-1,53
 299 394 299 394 281 384 c 2,54,-1
 45 253 l 2,28,29
EndSplineSet
Validated: 1
EndChar

StartChar: building
Encoding: 57412 57412 99
Width: 353
VWidth: 828
Flags: W
HStem: -1 84<56.6415 142.328> 166 41<52 148 207 297.359> 295 41<52 148 207.023 302> 426 55<52.0322 148 207 302> 508 43<61.0449 292.953> 577 75<153 201>
VStem: 0 52<87.641 169 207 295 336 426> 148 59<86.6105 165.938 207 295 336 426 578.027 651.179> 302 51<3.23047 161.359 207 295 336 426>
LayerCount: 2
Fore
SplineSet
176.5 577 m 128,-1,1
 167 577 167 577 160 581 c 128,-1,2
 153 585 153 585 153 591 c 2,3,-1
 153 640 l 2,4,5
 153 644 153 644 160 648 c 128,-1,6
 167 652 167 652 176.5 652 c 128,-1,7
 186 652 186 652 193.5 648 c 128,-1,8
 201 644 201 644 201 640 c 2,9,-1
 201 591 l 2,10,11
 201 587 201 587 193.5 582 c 128,-1,0
 186 577 186 577 176.5 577 c 128,-1,1
302 411 m 2,12,13
 302 415 302 415 297.5 420.5 c 128,-1,14
 293 426 293 426 286 426 c 2,15,-1
 223 426 l 2,16,17
 218 426 218 426 212 420 c 0,18,19
 207 416 207 416 207 411 c 2,20,-1
 207 353 l 2,21,22
 206 348 206 348 212 342 c 0,23,24
 217 336 217 336 223 336 c 2,25,-1
 286 336 l 2,26,27
 292 336 292 336 297 341 c 128,-1,28
 302 346 302 346 302 353 c 2,29,-1
 302 411 l 2,12,13
302 280 m 2,30,31
 302 294 302 294 286 295 c 2,32,-1
 223 295 l 2,33,34
 218 295 218 295 212.5 291 c 128,-1,35
 207 287 207 287 207 280 c 2,36,-1
 207 223 l 2,37,38
 207 218 207 218 212 212.5 c 128,-1,39
 217 207 217 207 223 207 c 2,40,-1
 286 207 l 2,41,42
 292 207 292 207 297 212.5 c 128,-1,43
 302 218 302 218 302 223 c 2,44,-1
 302 280 l 2,30,31
148 411 m 2,45,46
 148 415 148 415 142.5 420.5 c 128,-1,47
 137 426 137 426 131 426 c 2,48,-1
 69 426 l 2,49,50
 64 426 64 426 58 420 c 0,51,52
 53 416 53 416 52 411 c 2,53,-1
 52 353 l 2,54,55
 52 348 52 348 57 342 c 0,56,57
 61 336 61 336 69 336 c 2,58,-1
 131 336 l 2,59,60
 137 336 137 336 142.5 341 c 128,-1,61
 148 346 148 346 148 353 c 2,62,-1
 148 411 l 2,45,46
148 280 m 2,63,64
 148 294 148 294 131 295 c 2,65,-1
 69 295 l 2,66,67
 64 295 64 295 58 291 c 128,-1,68
 52 287 52 287 52 280 c 2,69,-1
 52 223 l 2,70,71
 52 218 52 218 56.5 212.5 c 128,-1,72
 61 207 61 207 69 207 c 2,73,-1
 131 207 l 2,74,75
 137 207 137 207 142.5 212.5 c 128,-1,76
 148 218 148 218 148 223 c 2,77,-1
 148 280 l 2,63,64
148 156 m 2,78,79
 148 161 148 161 142.5 165 c 128,-1,80
 137 169 137 169 131 169 c 2,81,-1
 69 169 l 2,82,83
 64 169 64 169 58 165 c 128,-1,84
 52 161 52 161 52 156 c 2,85,-1
 52 98 l 2,86,87
 52 92 52 92 56.5 87.5 c 128,-1,88
 61 83 61 83 69 83 c 2,89,-1
 131 83 l 2,90,91
 137 83 137 83 142.5 86.5 c 128,-1,92
 148 90 148 90 148 98 c 2,93,-1
 148 156 l 2,78,79
353 445 m 2,94,-1
 353 37 l 2,95,96
 353 23 353 23 341 11 c 128,-1,97
 329 -1 329 -1 313 -1 c 2,98,-1
 302 -1 l 1,99,-1
 302 151 l 2,100,101
 302 157 302 157 297.5 161.5 c 128,-1,102
 293 166 293 166 286 166 c 2,103,-1
 223 166 l 2,104,105
 218 166 218 166 212.5 162 c 128,-1,106
 207 158 207 158 207 151 c 2,107,-1
 207 -1 l 1,108,-1
 40 -1 l 2,109,110
 23 -1 23 -1 11.5 10 c 128,-1,111
 0 21 0 21 0 37 c 2,112,-1
 0 445 l 2,113,114
 0 461 0 461 12 470 c 128,-1,115
 24 479 24 479 40 481 c 2,116,-1
 313 481 l 2,117,118
 330 481 330 481 341.5 471 c 128,-1,119
 353 461 353 461 353 445 c 2,94,-1
61 530.5 m 128,-1,121
 61 540 61 540 72.5 545.5 c 128,-1,122
 84 551 84 551 100 551 c 2,123,-1
 252 551 l 2,124,125
 269 551 269 551 281 545.5 c 128,-1,126
 293 540 293 540 293 530.5 c 128,-1,127
 293 521 293 521 281 514.5 c 128,-1,128
 269 508 269 508 252 508 c 2,129,-1
 100 508 l 2,130,131
 83 508 83 508 72 514.5 c 128,-1,120
 61 521 61 521 61 530.5 c 128,-1,121
EndSplineSet
Validated: 1
EndChar

StartChar: toilet
Encoding: 57413 57413 100
Width: 622
VWidth: 828
Flags: W
HStem: 295 151<414 516> 470 150<81.9858 187.311 414.627 513.373>
VStem: 0 256<173.892 444.695> 62 148<490.721 600.279> 66 130<7.95471 161> 394 140<493.205 597.826> 414 102<295 335.32>
LayerCount: 2
Fore
SplineSet
214 457 m 2,0,1
 231 457 231 457 243.5 443 c 128,-1,2
 256 429 256 429 256 412 c 2,3,-1
 256 204 l 2,4,5
 256 186 256 186 243 173.5 c 128,-1,6
 230 161 230 161 212 161 c 2,7,-1
 196 161 l 1,8,-1
 196 43 l 2,9,10
 196 22 196 22 181 7.5 c 128,-1,11
 166 -7 166 -7 144 -7 c 2,12,-1
 114 -7 l 2,13,14
 93 -7 93 -7 79.5 7.5 c 128,-1,15
 66 22 66 22 66 43 c 2,16,-1
 66 161 l 1,17,-1
 46 161 l 2,18,19
 28 161 28 161 14 173.5 c 128,-1,20
 0 186 0 186 0 204 c 2,21,-1
 0 412 l 2,22,23
 0 430 0 430 14 443.5 c 128,-1,24
 28 457 28 457 46 457 c 2,25,-1
 86 457 l 1,26,27
 102 446 102 446 122 445 c 2,28,-1
 144 445 l 2,29,30
 166 448 166 448 182 457 c 1,31,-1
 214 457 l 2,0,1
339 199.5 m 128,-1,33
 330 202 330 202 326 209 c 128,-1,34
 322 216 322 216 322 225 c 2,35,-1
 368 454 l 2,36,37
 370 461 370 461 375 466 c 128,-1,38
 380 471 380 471 384 471 c 2,39,-1
 394 471 l 2,40,41
 398 469 398 469 402 466 c 0,42,43
 430 446 430 446 462 446 c 2,44,-1
 464 446 l 2,45,46
 496 445 496 445 526 466 c 1,47,48
 540 482 540 482 556 471 c 0,49,50
 564 467 564 467 564 457 c 2,51,-1
 610 227 l 2,52,53
 612 219 612 219 606 210.5 c 128,-1,54
 600 202 600 202 590 202 c 0,55,56
 570 202 570 202 566 219 c 2,57,-1
 532 393 l 1,58,-1
 516 295 l 1,59,-1
 414 295 l 1,60,-1
 398 385 l 1,61,-1
 364 217 l 2,62,63
 361 208 361 208 354.5 202.5 c 128,-1,32
 348 197 348 197 339 199.5 c 128,-1,33
514 278 m 1,64,-1
 622 4 l 1,65,-1
 512 4 l 1,66,67
 498 -10 498 -10 478 -11 c 2,68,-1
 444 -11 l 2,69,70
 422 -11 422 -11 406 4 c 1,71,-1
 304 4 l 1,72,-1
 416 278 l 1,73,-1
 514 278 l 1,64,-1
464 470 m 128,-1,75
 434 470 434 470 414 492.5 c 128,-1,76
 394 515 394 515 394 546 c 128,-1,77
 394 577 394 577 414 598.5 c 128,-1,78
 434 620 434 620 464 620 c 128,-1,79
 494 620 494 620 514 598.5 c 128,-1,80
 534 577 534 577 534 546 c 128,-1,81
 534 515 534 515 514 492.5 c 128,-1,74
 494 470 494 470 464 470 c 128,-1,75
62 545 m 0,82,83
 63 577 63 577 84.5 600.5 c 128,-1,84
 106 624 106 624 136 624 c 128,-1,85
 166 624 166 624 188 601 c 128,-1,86
 210 578 210 578 210 545.5 c 128,-1,87
 210 513 210 513 188 490 c 128,-1,88
 166 467 166 467 136 467 c 128,-1,89
 106 467 106 467 84 490 c 128,-1,90
 62 513 62 513 62 545 c 0,82,83
EndSplineSet
Validated: 1
EndChar

StartChar: watermill
Encoding: 57414 57414 101
Width: 686
VWidth: 828
Flags: W
HStem: -37 60<195.99 374.582> 34 28<473.014 610.067> 85 42<245.767 257.876> 113 40<476.633 615.03> 221 58<318.063 348.5> 239 32<91.8809 110> 351 77<192.063 194 315.938 334 334 347.906> 523 92<250.125 325.75>
VStem: 90 60<239.127 270.999> 254 34<68.4033 84.9377 423 443.967> 408 80<551 615.265>
LayerCount: 2
Fore
SplineSet
258 514 m 0,0,1
 148 428 148 428 92 379 c 2,2,-1
 56 349 l 2,3,4
 46 342 46 342 32 342 c 1,5,-1
 30 341 l 1,6,7
 16 342 16 342 8 356 c 0,8,9
 0 366 0 366 0 373 c 2,10,-1
 0 382 l 2,11,12
 2 397 2 397 12 407 c 2,13,-1
 266 608 l 2,14,15
 276 615 276 615 288 615 c 0,16,17
 300 616 300 616 310 608 c 2,18,-1
 562 407 l 2,19,20
 576 396 576 396 575 380 c 128,-1,21
 574 364 574 364 566 353 c 0,22,23
 558 341 558 341 542 341 c 0,24,25
 528 341 528 341 520 349 c 0,26,27
 380 467 380 467 316 514 c 0,28,29
 303 523 303 523 287 523 c 128,-1,30
 271 523 271 523 258 514 c 0,0,1
488 596 m 2,31,-1
 488 488 l 1,32,-1
 408 551 l 1,33,-1
 408 596 l 2,34,35
 408 608 408 608 416 615.5 c 128,-1,36
 424 623 424 623 434 623 c 2,37,-1
 460 623 l 2,38,39
 471 623 471 623 479.5 615.5 c 128,-1,40
 488 608 488 608 488 596 c 2,31,-1
150 244 m 1,41,-1
 154 220 l 2,42,43
 155 216 155 216 156.5 216.5 c 128,-1,44
 158 217 158 217 160 219 c 2,45,-1
 188 246 l 2,46,47
 194 251 194 251 188 258 c 2,48,-1
 160 285 l 2,49,50
 158 287 158 287 156 287 c 0,51,52
 154 288 154 288 154 284 c 2,53,-1
 150 259 l 1,54,-1
 150 244 l 1,41,-1
178 320 m 2,55,-1
 212 284 l 2,56,57
 215 281 215 281 218.5 281.5 c 128,-1,58
 222 282 222 282 224 284 c 2,59,-1
 240 301 l 2,60,61
 246 306 246 306 240 312 c 2,62,-1
 206 348 l 2,63,64
 203 351 203 351 198.5 351 c 128,-1,65
 194 351 194 351 192 349 c 2,66,-1
 178 331 l 2,67,68
 172 325 172 325 178 320 c 2,55,-1
238 365 m 2,69,-1
 264 338 l 2,70,71
 267 335 267 335 270.5 335.5 c 128,-1,72
 274 336 274 336 276 338 c 2,73,-1
 302 365 l 2,74,75
 306 370 306 370 300 374 c 0,76,77
 284 378 284 378 270 378 c 2,78,-1
 242 374 l 2,79,80
 234 370 234 370 238 365 c 2,69,-1
300 312 m 2,81,82
 294 307 294 307 300 301 c 2,83,-1
 318 282 l 2,84,85
 321 279 321 279 324.5 279 c 128,-1,86
 328 279 328 279 330 282 c 2,87,-1
 364 317 l 2,88,89
 370 322 370 322 364 328 c 2,90,-1
 348 349 l 2,91,92
 345 351 345 351 341.5 351 c 128,-1,93
 338 351 338 351 334 348 c 2,94,-1
 300 312 l 2,81,82
354 256 m 2,95,96
 350 251 350 251 354 244 c 2,97,-1
 380 220 l 2,98,99
 383 217 383 217 385 217 c 0,100,101
 388 216 388 216 388 220 c 2,102,-1
 390 244 l 2,103,104
 392 250 392 250 390 259 c 2,105,-1
 388 280 l 2,106,107
 387 284 387 284 385.5 284 c 128,-1,108
 384 284 384 284 380 282 c 2,109,-1
 354 256 l 2,95,96
362 185 m 2,110,-1
 330 219 l 2,111,112
 327 222 327 222 323.5 221 c 128,-1,113
 320 220 320 220 318 219 c 2,114,-1
 304 202 l 2,115,116
 298 197 298 197 304 190 c 2,117,-1
 336 156 l 2,118,119
 339 153 339 153 342.5 153.5 c 128,-1,120
 346 154 346 154 348 156 c 2,121,-1
 362 172 l 2,122,123
 368 180 368 180 362 185 c 2,110,-1
250 246 m 2,124,-1
 266 228 l 2,125,126
 272 222 272 222 278 228 c 2,127,-1
 296 244 l 2,128,129
 302 249 302 249 296 256 c 2,130,-1
 276 275 l 2,131,132
 273 278 273 278 269.5 278 c 128,-1,133
 266 278 266 278 264 275 c 2,134,-1
 250 258 l 2,135,136
 244 251 244 251 250 246 c 2,124,-1
304 139 m 2,137,-1
 278 164 l 2,138,139
 275 167 275 167 272.5 166.5 c 128,-1,140
 270 166 270 166 266 164 c 2,141,-1
 242 137 l 2,142,143
 237 132 237 132 245.5 129.5 c 128,-1,144
 254 127 254 127 268 127 c 128,-1,145
 282 127 282 127 300 130 c 0,146,147
 308 134 308 134 304 139 c 2,137,-1
244 190 m 2,148,149
 250 195 250 195 244 202 c 2,150,-1
 224 220 l 2,151,152
 216 226 216 226 212 220 c 2,153,-1
 178 185 l 2,154,155
 172 180 172 180 178 172 c 2,156,-1
 194 153 l 2,157,158
 197 151 197 151 200.5 151.5 c 128,-1,159
 204 152 204 152 208 154 c 2,160,-1
 244 190 l 2,148,149
114 218 m 1,161,-1
 110 236 l 1,162,-1
 98 239 l 2,163,164
 91 243 91 243 90.5 253.5 c 128,-1,165
 90 264 90 264 99 267.5 c 128,-1,166
 108 271 108 271 110 271 c 2,167,-1
 112 282 l 2,168,169
 116 295 116 295 114 297.5 c 128,-1,170
 112 300 112 300 108 304 c 2,171,-1
 102 311 l 2,172,173
 97 316 97 316 98.5 319 c 128,-1,174
 100 322 100 322 100 325 c 128,-1,175
 100 328 100 328 102 329 c 2,176,-1
 104 335 l 2,177,178
 108 336 108 336 112 336 c 2,179,-1
 120 336 l 2,180,181
 124 336 124 336 136 343 c 1,182,183
 146 357 146 357 144 361 c 2,184,-1
 136 374 l 2,185,186
 133 381 133 381 137.5 385 c 128,-1,187
 142 389 142 389 144 392 c 2,188,-1
 148 395 l 1,189,-1
 166 386 l 1,190,-1
 178 391 l 2,191,192
 190 398 190 398 190 400 c 128,-1,193
 190 402 190 402 190 410 c 2,194,-1
 190 418 l 2,195,196
 190 428 190 428 194 428 c 2,197,-1
 208 433 l 1,198,199
 215 426 215 426 219.5 422 c 128,-1,200
 224 418 224 418 230 418 c 2,201,-1
 236 418 l 2,202,203
 254 420 254 420 254 423 c 2,204,-1
 258 436 l 2,205,206
 262 443 262 443 271 444 c 128,-1,207
 280 445 280 445 284 435.5 c 128,-1,208
 288 426 288 426 288 423 c 2,209,-1
 298 418 l 2,210,211
 311 415 311 415 313.5 415.5 c 128,-1,212
 316 416 316 416 323 422.5 c 128,-1,213
 330 429 330 429 332 429 c 0,214,215
 334 430 334 430 334 428 c 1,216,217
 336 428 336 428 350 423 c 1,218,-1
 350 407 l 2,219,220
 350 403 350 403 358 394 c 0,221,222
 368 385 368 385 370 385 c 2,223,-1
 390 392 l 2,224,225
 394 392 394 392 400 383 c 1,226,-1
 406 380 l 1,227,-1
 398 365 l 2,228,229
 397 363 397 363 396.5 358 c 128,-1,230
 396 353 396 353 404 343.5 c 128,-1,231
 412 334 412 334 414 333 c 2,232,-1
 426 333 l 2,233,234
 432 332 432 332 434 328 c 0,235,236
 434 327 434 327 436 325 c 2,237,-1
 442 316 l 1,238,239
 435 308 435 308 429.5 304.5 c 128,-1,240
 424 301 424 301 426 294 c 2,241,-1
 426 289 l 2,242,243
 428 272 428 272 430 271 c 2,244,-1
 442 266 l 2,245,246
 449 263 449 263 449.5 253 c 128,-1,247
 450 243 450 243 441 239.5 c 128,-1,248
 432 236 432 236 430 236 c 2,249,-1
 428 222 l 2,250,251
 424 205 424 205 426 203.5 c 128,-1,252
 428 202 428 202 431 200 c 128,-1,253
 434 198 434 198 436 196 c 2,254,-1
 438 194 l 2,255,256
 448 186 448 186 436 171 c 0,257,258
 430 167 430 167 424 167 c 0,259,260
 422 168 422 168 420 169 c 2,261,-1
 418 169 l 2,262,263
 416 169 416 169 406 162 c 0,264,265
 392 148 392 148 396 145 c 2,266,-1
 404 130 l 2,267,268
 408 123 408 123 402 117.5 c 128,-1,269
 396 112 396 112 388 112 c 2,270,-1
 386 112 l 2,271,272
 382 115 382 115 378 117 c 0,273,274
 376 118 376 118 372 118 c 2,275,-1
 360 115 l 2,276,277
 348 109 348 109 349 106 c 0,278,279
 350 102 350 102 352 94 c 2,280,-1
 352 86 l 2,281,282
 352 78 352 78 346 76 c 0,283,284
 342 74 342 74 336 73 c 2,285,-1
 328 73 l 1,286,287
 324 78 324 78 320 82.5 c 128,-1,288
 316 87 316 87 312 87 c 2,289,-1
 304 88 l 2,290,291
 288 86 288 86 288 82 c 2,292,-1
 284 68 l 2,293,294
 280 61 280 61 271 60.5 c 128,-1,295
 262 60 262 60 258 68 c 0,296,297
 254 81 254 81 254 82 c 128,-1,298
 254 83 254 83 250 85 c 0,299,300
 248 85 248 85 244 86 c 2,301,-1
 242 87 l 2,302,303
 234 89 234 89 226 91 c 0,304,305
 225 91 225 91 219.5 85 c 128,-1,306
 214 79 214 79 208 79 c 2,307,-1
 206 79 l 2,308,309
 202 80 202 80 196 82 c 128,-1,310
 190 84 190 84 190 93 c 2,311,-1
 190 105 l 1,312,-1
 172 120 l 2,313,314
 166 120 166 120 158 115 c 1,315,-1
 154 115 l 1,316,-1
 150 116 l 1,317,-1
 136 128 l 1,318,319
 140 138 140 138 142 142 c 128,-1,320
 144 146 144 146 138 158 c 0,321,322
 131 170 131 170 129.5 170.5 c 128,-1,323
 128 171 128 171 126 171 c 2,324,-1
 118 169 l 2,325,326
 106 169 106 169 100 190 c 1,327,-1
 112 201 l 2,328,329
 116 205 116 205 114 212 c 2,330,-1
 114 218 l 1,161,-1
424 95 m 1,331,332
 478 148 478 148 550 153 c 0,333,334
 594 153 594 153 634 120 c 0,335,336
 654 104 654 104 660 89 c 2,337,-1
 668 78 l 1,338,339
 612 114 612 114 558 113 c 0,340,341
 554 113 554 113 531 113 c 128,-1,342
 508 113 508 113 472 105 c 128,-1,343
 436 97 436 97 424 95 c 1,331,332
686 -4 m 1,344,345
 658 10 658 10 658 13 c 0,346,347
 615 35 615 35 558.5 34.5 c 128,-1,348
 502 34 502 34 429 6 c 128,-1,349
 356 -22 356 -22 333 -29.5 c 128,-1,350
 310 -37 310 -37 280 -37 c 0,351,352
 224 -37 224 -37 180 -5 c 128,-1,353
 136 27 136 27 110 74 c 1,354,355
 190 24 190 24 296 23 c 0,356,357
 368 23 368 23 432 41 c 0,358,359
 509 62 509 62 547.5 62 c 128,-1,360
 586 62 586 62 623.5 41.5 c 128,-1,361
 661 21 661 21 686 -4 c 1,344,345
EndSplineSet
Validated: 1
EndChar

StartChar: pharmacy
Encoding: 57415 57415 102
Width: 601
VWidth: 828
Flags: W
HStem: -33 76<237.053 294.219> 509 66<291.704 325.265>
VStem: 125 42<265.191 294.391> 213 72<464.159 502.296> 213 22<50.5625 67.8411> 333 60<14.4707 51 465.128 502.296> 430 48<180 266>
LayerCount: 2
Fore
SplineSet
282 46 m 0,0,1
 362 84 362 84 396 116 c 128,-1,2
 430 148 430 148 430 180 c 128,-1,3
 430 212 430 212 406.5 232.5 c 128,-1,4
 383 253 383 253 342 268 c 1,5,-1
 349 190 l 1,6,7
 360 185 360 185 364 180 c 1,8,9
 357 168 357 168 333 153 c 1,10,-1
 333 339 l 1,11,-1
 285 329 l 1,12,-1
 285 290 l 1,13,14
 250 304 250 304 236 311 c 1,15,16
 249 324 249 324 285 343 c 1,17,-1
 285 342 l 1,18,-1
 333 364 l 1,19,-1
 333 365 l 1,20,21
 355 376 355 376 375 382 c 0,22,23
 403 393 403 393 402 417 c 0,24,25
 402 439 402 439 383 449 c 0,26,27
 372 454 372 454 358.5 449 c 128,-1,28
 345 444 345 444 333 438 c 1,29,-1
 333 485 l 2,30,31
 333 496 333 496 325.5 502.5 c 128,-1,32
 318 509 318 509 308 509 c 128,-1,33
 298 509 298 509 291.5 502.5 c 128,-1,34
 285 496 285 496 285 485 c 2,35,-1
 285 418 l 1,36,37
 222 388 222 388 194.5 363 c 128,-1,38
 167 338 167 338 167 310 c 0,39,40
 167 270 167 270 218 245 c 0,41,42
 235 237 235 237 249 231 c 2,43,-1
 282 219 l 1,44,-1
 285 218 l 1,45,-1
 285 122 l 1,46,-1
 254 109 l 1,47,48
 236 96 236 96 235 76 c 0,49,50
 235 68 235 68 240 59 c 0,51,52
 247 43 247 43 268 43 c 0,53,54
 277 42 277 42 282 46 c 0,0,1
333 40 m 2,55,-1
 333 51 l 1,56,-1
 285 36 l 1,57,58
 287 27 287 27 294 21 c 128,-1,59
 301 15 301 15 309.5 14.5 c 128,-1,60
 318 14 318 14 325.5 21.5 c 128,-1,61
 333 29 333 29 333 40 c 2,55,-1
586 176 m 2,62,63
 601 163 601 163 601 146 c 128,-1,64
 601 129 601 129 597 120 c 2,65,-1
 538 30 l 2,66,67
 525 13 525 13 508.5 13 c 128,-1,68
 492 13 492 13 484 20 c 2,69,-1
 424 63 l 2,70,71
 411 74 411 74 401.5 68.5 c 128,-1,72
 392 63 392 63 393 47 c 2,73,-1
 393 6 l 2,74,75
 393 -10 393 -10 382 -21.5 c 128,-1,76
 371 -33 371 -33 354 -33 c 2,77,-1
 250 -33 l 2,78,79
 234 -33 234 -33 223.5 -21.5 c 128,-1,80
 213 -10 213 -10 213 6 c 2,81,-1
 213 47 l 2,82,83
 213 63 213 63 203 68 c 128,-1,84
 193 73 193 73 181 63 c 2,85,-1
 119 20 l 2,86,87
 109 14 109 14 102.5 13.5 c 128,-1,88
 96 13 96 13 85.5 15 c 128,-1,89
 75 17 75 17 67 30 c 2,90,-1
 7 120 l 2,91,92
 0 130 0 130 0.5 138 c 128,-1,93
 1 146 1 146 3 156 c 128,-1,94
 5 166 5 166 17 176 c 2,95,-1
 112 244 l 2,96,97
 125 253 125 253 125 266 c 128,-1,98
 125 279 125 279 112 289 c 2,99,-1
 17 358 l 2,100,101
 4 368 4 368 3 378 c 0,102,103
 -1 399 -1 399 7 413 c 2,104,-1
 67 502 l 2,105,106
 80 519 80 519 95 520 c 128,-1,107
 110 521 110 521 119 513 c 2,108,-1
 181 469 l 2,109,110
 194 459 194 459 203.5 464 c 128,-1,111
 213 469 213 469 213 486 c 2,112,-1
 213 536 l 2,113,114
 213 552 213 552 223.5 563.5 c 128,-1,115
 234 575 234 575 250 575 c 2,116,-1
 354 575 l 2,117,118
 368 575 368 575 380 563.5 c 128,-1,119
 392 552 392 552 393 536 c 2,120,-1
 393 486 l 2,121,122
 393 469 393 469 402.5 465 c 128,-1,123
 412 461 412 461 424 469 c 2,124,-1
 484 513 l 2,125,126
 494 521 494 521 502 522 c 0,127,128
 526 522 526 522 538 502 c 2,129,-1
 597 413 l 2,130,131
 601 402 601 402 600.5 394.5 c 128,-1,132
 600 387 600 387 599 376.5 c 128,-1,133
 598 366 598 366 586 358 c 2,134,-1
 491 289 l 2,135,136
 478 280 478 280 478 266 c 0,137,138
 478 253 478 253 491 244 c 2,139,-1
 586 176 l 2,62,63
EndSplineSet
Validated: 1
EndChar

StartChar: waterpark
Encoding: 57416 57416 103
Width: 706
VWidth: 828
Flags: W
HStem: 2 64<101.27 297.712> 7 30<427.821 576.951> 78 30<411.996 558.93> 178 60<116.087 232.273>
VStem: 26 60<268.124 352>
LayerCount: 2
Fore
SplineSet
356 -20 m 1,0,1
 393 11 393 11 433.5 24 c 128,-1,2
 474 37 474 37 494 36.5 c 128,-1,3
 514 36 514 36 537 33 c 128,-1,4
 560 30 560 30 586 18 c 128,-1,5
 612 6 612 6 622 -3 c 2,6,-1
 632 -13 l 1,7,8
 570 7 570 7 522 7 c 0,9,10
 468 7 468 7 418.5 -5 c 128,-1,11
 369 -17 369 -17 356 -20 c 1,0,1
648 37 m 1,12,13
 618 53 618 53 616 53 c 0,14,15
 566 76 566 76 510 78 c 2,16,-1
 498 78 l 2,17,18
 436 75 436 75 358 46 c 128,-1,19
 280 17 280 17 253 9.5 c 128,-1,20
 226 2 226 2 192 2 c 0,21,22
 130 2 130 2 76 39 c 0,23,24
 30 69 30 69 0 120 c 1,25,26
 90 67 90 67 210 66 c 0,27,28
 293 66 293 66 365.5 85.5 c 128,-1,29
 438 105 438 105 484 108 c 2,30,-1
 492 108 l 2,31,32
 534 108 534 108 574 86 c 0,33,34
 632 58 632 58 648 37 c 1,12,13
706 544 m 1,35,36
 702 531 702 531 697 505 c 128,-1,37
 692 479 692 479 690 468 c 0,38,39
 676 415 676 415 630 380 c 1,40,-1
 472 302 l 2,41,42
 468 300 468 300 464 301 c 2,43,-1
 248 196 l 2,44,45
 216 176 216 176 178 178 c 0,46,47
 176 178 176 178 174 178 c 0,48,49
 113 178 113 178 69.5 221.5 c 128,-1,50
 26 265 26 265 26 326 c 2,51,-1
 26 371 l 2,52,53
 26 391 26 391 44 398 c 2,54,-1
 444 597 l 2,55,56
 455 602 455 602 466.5 597.5 c 128,-1,57
 478 593 478 593 485 582 c 128,-1,58
 492 571 492 571 487 559 c 128,-1,59
 482 547 482 547 472 541 c 2,60,-1
 86 352 l 1,61,-1
 86 326 l 2,62,63
 86 290 86 290 112 264 c 128,-1,64
 138 238 138 238 168 238 c 128,-1,65
 198 238 198 238 218 250 c 0,66,67
 260 274 260 274 260 324 c 0,68,69
 260 344 260 344 278 352 c 2,70,-1
 676 547 l 2,71,72
 682 550 682 550 689.5 550 c 128,-1,73
 697 550 697 550 706 544 c 1,35,36
EndSplineSet
Validated: 1
EndChar

StartChar: viewtower
Encoding: 57417 57417 104
Width: 340
VWidth: 828
Flags: W
HStem: -23 76<76.1255 203.844> -9 77<76.1255 154.637 243 259.813> 84 71<180 270.582> 95 69<72.0444 144.506> 184 69<74.7432 197.359> 280 77<149 270.844>
VStem: 0 63<515.875 584.887> 72 73<95.1597 156.34> 72 47<292.125 367.154> 137 69<513.641 562.812> 149 128<293.444 357> 180 97<105.25 148.843> 232 45<193.756 264.125> 243 34<-8.87451 67.3895> 280 60<521.765 585.225>
LayerCount: 2
Fore
SplineSet
280 565 m 2,0,1
 279 580 279 580 298 584 c 0,2,3
 310 588 310 588 322 591 c 0,4,5
 343 598 343 598 340 582 c 2,6,-1
 340 498 l 2,7,8
 337 494 337 494 334.5 490.5 c 128,-1,9
 332 487 332 487 318.5 473 c 128,-1,10
 305 459 305 459 286 441.5 c 128,-1,11
 267 424 267 424 266 423 c 2,12,-1
 266 400 l 2,13,14
 266 395 266 395 239 391 c 0,15,16
 166 379 166 379 90 393 c 0,17,18
 76 397 76 397 75 401 c 2,19,-1
 75 417 l 2,20,21
 75 423 75 423 56 440 c 0,22,23
 35 457 35 457 13 484 c 0,24,25
 10 488 10 488 7 491 c 128,-1,26
 4 494 4 494 3 497 c 2,27,-1
 0 498 l 1,28,-1
 0 590 l 2,29,30
 0 598 0 598 16 593 c 128,-1,31
 32 588 32 588 43 584 c 0,32,33
 63 579 63 579 63 563 c 2,34,-1
 63 536 l 2,35,36
 63 530 63 530 67.5 524 c 128,-1,37
 72 518 72 518 79 517 c 0,38,39
 101 513 101 513 121 509 c 0,40,41
 127 509 127 509 132 513.5 c 128,-1,42
 137 518 137 518 137 526 c 2,43,-1
 137 551 l 2,44,45
 137 557 137 557 141.5 563 c 128,-1,46
 146 569 146 569 154 568.5 c 128,-1,47
 162 568 162 568 171 568 c 2,48,-1
 190 569 l 2,49,50
 196 569 196 569 201 564.5 c 128,-1,51
 206 560 206 560 206 553 c 2,52,-1
 206 526 l 2,53,54
 206 520 206 520 211 514.5 c 128,-1,55
 216 509 216 509 222 509 c 0,56,57
 268 513 268 513 274 521.5 c 128,-1,58
 280 530 280 530 280 536 c 2,59,-1
 280 565 l 2,0,1
259 68 m 2,60,-1
 260 68 l 2,61,62
 266 71 266 71 271 67.5 c 128,-1,63
 276 64 276 64 277 56 c 2,64,-1
 277 12 l 2,65,66
 277 7 277 7 271.5 -1 c 128,-1,67
 266 -9 266 -9 260 -11 c 128,-1,68
 254 -13 254 -13 248.5 -9 c 128,-1,69
 243 -5 243 -5 243 1 c 2,70,-1
 243 46 l 2,71,72
 243 52 243 52 248 59 c 128,-1,73
 253 66 253 66 259 68 c 2,60,-1
209 40 m 2,74,-1
 209 -4 l 2,75,76
 209 -10 209 -10 204 -16 c 128,-1,77
 199 -22 199 -22 191 -22.5 c 128,-1,78
 183 -23 183 -23 155.5 -23 c 128,-1,79
 128 -23 128 -23 86 -11 c 0,80,81
 80 -9 80 -9 76 -2 c 128,-1,82
 72 5 72 5 72 12 c 2,83,-1
 72 56 l 2,84,85
 72 62 72 62 76 66 c 128,-1,86
 80 70 80 70 86 68 c 0,87,88
 133 54 133 54 183 53 c 2,89,-1
 193 53 l 2,90,91
 199 55 199 55 204 50.5 c 128,-1,92
 209 46 209 46 209 40 c 2,74,-1
184.5 149 m 128,-1,94
 189 154 189 154 208.5 155 c 128,-1,95
 228 156 228 156 247 162 c 128,-1,96
 266 168 266 168 271 165 c 128,-1,97
 276 162 276 162 277 155 c 2,98,-1
 277 119 l 2,99,100
 276 113 276 113 271 105 c 0,101,102
 258 90 258 90 196 84 c 0,103,104
 190 84 190 84 185 89 c 128,-1,105
 180 94 180 94 180 99 c 2,106,-1
 180 137 l 2,107,93
 180 144 180 144 184.5 149 c 128,-1,94
145 138 m 2,108,-1
 145 101 l 2,109,110
 146 95 146 95 141 88 c 0,111,112
 130 77 130 77 86 95 c 0,113,114
 72 100 72 100 72 119 c 2,115,-1
 72 155 l 2,116,117
 71 171 71 171 92 164 c 0,118,119
 105 160 105 160 120 157 c 0,120,121
 145 152 145 152 145 138 c 2,108,-1
232 241 m 2,122,123
 232 247 232 247 237 254 c 128,-1,124
 242 261 242 261 248 262 c 2,125,-1
 260 266 l 2,126,127
 266 268 266 268 271 264.5 c 128,-1,128
 276 261 276 261 277 255 c 2,129,-1
 277 217 l 2,130,131
 277 212 277 212 271.5 204 c 128,-1,132
 266 196 266 196 260.5 195 c 128,-1,133
 255 194 255 194 248.5 192 c 128,-1,134
 242 190 242 190 237 194 c 0,135,136
 232 196 232 196 232 202 c 2,137,-1
 232 241 l 2,122,123
202 237 m 2,138,-1
 202 199 l 2,139,140
 202 193 202 193 197.5 188.5 c 128,-1,141
 193 184 193 184 186.5 184 c 128,-1,142
 180 184 180 184 171 184 c 0,143,144
 127 185 127 185 86 195 c 0,145,146
 80 197 80 197 76 204 c 128,-1,147
 72 211 72 211 72 217 c 2,148,-1
 72 255 l 2,149,150
 72 261 72 261 76 264 c 0,151,152
 80 268 80 268 86 266 c 0,153,154
 128 253 128 253 172 253 c 2,155,-1
 187 253 l 2,156,157
 193 253 193 253 197.5 248 c 128,-1,158
 202 243 202 243 202 237 c 2,138,-1
154 352 m 128,-1,160
 159 357 159 357 164 357 c 2,161,-1
 176 357 l 2,162,163
 220 357 220 357 260 370 c 0,164,165
 266 373 266 373 271 369.5 c 128,-1,166
 276 366 276 366 277 359 c 2,167,-1
 277 315 l 2,168,169
 277 309 277 309 271 302 c 0,170,171
 266 297 266 297 260 295 c 0,172,173
 216 281 216 281 170 280 c 0,174,175
 167 280 167 280 163 280 c 128,-1,176
 159 280 159 280 154 286 c 128,-1,177
 149 292 149 292 149 297 c 2,178,-1
 149 342 l 2,179,159
 149 347 149 347 154 352 c 128,-1,160
119 345 m 2,180,-1
 119 302 l 2,181,182
 118 296 118 296 115 292 c 0,183,184
 111 289 111 289 104.5 289.5 c 128,-1,185
 98 290 98 290 86 295 c 0,186,187
 80 297 80 297 76 303 c 128,-1,188
 72 309 72 309 72 315 c 2,189,-1
 72 359 l 2,190,191
 72 365 72 365 76 369 c 128,-1,192
 80 373 80 373 86.5 370.5 c 128,-1,193
 93 368 93 368 101 366 c 128,-1,194
 109 364 109 364 114 357.5 c 128,-1,195
 119 351 119 351 119 345 c 2,180,-1
EndSplineSet
Validated: 1
EndChar

